<svg id="图层_1" data-name="图层 1" xmlns="http://www.w3.org/2000/svg" viewBox="0 0 192 192.02"><defs><style>.cls-1{fill:#fe2f70;}.cls-2{fill:#fe6496;}.cls-3{fill:#fe6395;}.cls-4{fill:#fe6295;}.cls-5{fill:#fe3b78;}.cls-6{fill:#fe437e;}.cls-7{fill:#fe3f7b;}.cls-8{fill:#fe5f92;}.cls-9{fill:#fe568c;}.cls-10{fill:#fe4782;}.cls-11{fill:#fe6194;}.cls-12{fill:#fe5c90;}.cls-13{fill:#fe5088;}.cls-14{fill:#fe4982;}.cls-15{fill:#fe5e92;}.cls-16{fill:#fe558b;}.cls-17{fill:#fe5b90;}.cls-18{fill:#fe6094;}.cls-19{fill:#fe447f;}.cls-20{fill:#fe417d;}.cls-21{fill:#fe598e;}.cls-22{fill:#fe4b84;}.cls-23{fill:#fe4d85;}.cls-24{fill:#fe3a78;}.cls-25{fill:#fe3c79;}.cls-26{fill:#fe5289;}.cls-27{fill:#fe4f87;}.cls-28{fill:#fe6698;}.cls-29{fill:#fe6799;}.cls-30{fill:#c68da0;}.cls-31{fill:#c87690;}.cls-32{fill:#fe3171;}.cls-33{fill:#fd3171;}.cls-34{fill:#fe6e9d;}.cls-35{fill:#fe6c9c;}.cls-36{fill:#fe6a9a;}.cls-37{fill:#fe6b9b;}.cls-38{fill:#fe6899;}.cls-39{fill:#fe699a;}.cls-40{fill:#fd6b9b;}.cls-41{fill:#c9849b;}.cls-42{fill:#fe3675;}.cls-43{fill:#fe3474;}.cls-44{fill:#fe3272;}.cls-45{fill:#fe3372;}.cls-46{fill:#fe3977;}.cls-47{fill:#fe3876;}.cls-48{fill:#fe7ca6;}.cls-49{fill:#fe80aa;}.cls-50{fill:#fe81aa;}.cls-51{fill:#fe6597;}.cls-52{fill:#fe5e90;}.cls-53{fill:#fe6193;}.cls-54{fill:#fe7ba5;}.cls-55{fill:#fe79a4;}.cls-56{fill:#fe74a1;}.cls-57{fill:#fe719e;}.cls-58{fill:#fef8fa;}.cls-59{fill:#fe85ac;}.cls-60{fill:#fe78a3;}.cls-61{fill:#fe77a2;}.cls-62{fill:#fe6293;}.cls-63{fill:#fe6092;}.cls-64{fill:#fe6797;}.cls-65{fill:#fe6c9b;}.cls-66{fill:#fe82ab;}.cls-67{fill:#fe6b9c;}.cls-68{fill:#fe5d8f;}.cls-69{fill:#fe6497;}.cls-70{fill:#fe6798;}.cls-71{fill:#fe3d7a;}.cls-72{fill:#fe417c;}.cls-73{fill:#fe5b8f;}.cls-74{fill:#fe75a2;}.cls-75{fill:#fe6f9d;}.cls-76{fill:#fe4c85;}.cls-77{fill:#fe4c84;}.cls-78{fill:#fe4a83;}.cls-79{fill:#fe588e;}.cls-80{fill:#fe4580;}.cls-81{fill:#fe457f;}.cls-82{fill:#fe538a;}.cls-83{fill:#fe6a99;}.cls-84{fill:#fe6c9a;}.cls-85{fill:#fe4e86;}.cls-86{fill:#fe709d;}.cls-87{fill:#fe709e;}.cls-88{fill:#fef0f5;}.cls-89{fill:#fef7fa;}.cls-90{fill:#fe75a1;}.cls-91{fill:#fe5188;}.cls-92{fill:#fef6f8;}.cls-93{fill:#fef4f7;}.cls-94{fill:#fe82a9;}.cls-95{fill:#feeef3;}</style></defs><title>哔哩哔哩.exe(1)</title><path class="cls-1" d="M-291,330H-403.5c-1.17-1.22-2.63-.71-4-.68a33.52,33.52,0,0,1-15.6-5.92c-.71-3.23,1.77-2.36,3.25-2.36q72.67-.06,145.33,0c1.5,0,3.07-.19,3.83,1.59l-4.51,3A4.14,4.14,0,0,0-279,327c-2.43,1.59-5.2,2-8,2.33C-288.37,329.29-289.83,328.78-291,330Z" transform="translate(443.25 -137.98)"/><path class="cls-2" d="M-251.25,175.5v2.25H-287.1c-8.34,0-16.68,0-25,0-1.41,0-3.44-.43-2.12,2.24-1-.1-2.22.35-3-.75l6-8.25a19.94,19.94,0,0,0,5.89.77c16,0,32,0,48,0,1.31,0,2.78.5,3.89-.73C-251.73,172-254.08,175-251.25,175.5Z" transform="translate(443.25 -137.98)"/><path class="cls-3" d="M-443.25,180v-5.25H-381l3.76,4.5c-7.1,2.19-14.52,1.28-21.75,2.24-.91-1.93-2.69-1.48-4.25-1.49Q-423.25,180-443.25,180Z" transform="translate(443.25 -137.98)"/><path class="cls-4" d="M-314.25,180c-1.32-2.66.71-2.23,2.12-2.24,8.34,0,16.68,0,25,0h35.85V183c-11,0-21.92,0-32.88,0-1.31,0-2.77-.5-3.87.74l-7.5-2.27c-1.32-1.35-3-.5-4.5-.74h-3.75c-2.12-1.49-4.51-.42-6.75-.74Z" transform="translate(443.25 -137.98)"/><path class="cls-5" d="M-443.25,291v-9.75c7.27,0,14.54,0,21.81-.19,1.09,0,1.5.55,2.19.94a53.38,53.38,0,0,0,5.26,9,19.88,19.88,0,0,1-6.2.77c-7.42-.06-14.84,0-22.26,0Z" transform="translate(443.25 -137.98)"/><path class="cls-6" d="M-443.25,270V258c5.87,0,11.75.11,17.62-.06a3.83,3.83,0,0,1,4.09,2.32q0,2.24,0,4.48v4.51a7.73,7.73,0,0,1-4.31.75C-431.63,270-437.44,270-443.25,270Z" transform="translate(443.25 -137.98)"/><path class="cls-7" d="M-443.25,270c5.81,0,11.62,0,17.44,0a7.73,7.73,0,0,0,4.31-.75,1.56,1.56,0,0,0,.74,1.5c-.46,3.4.59,6.57,1.51,9.75V282c-.69-.39-1.09-1-2.19-.94-7.27.19-14.54.16-21.81.19Z" transform="translate(443.25 -137.98)"/><path class="cls-8" d="M-443.25,193.5v-8.25c10.75.39,21.54-.83,32.27.76l-.77,1.5c-1.51,2-3.58,3.56-4.5,6h-27Z" transform="translate(443.25 -137.98)"/><path class="cls-9" d="M-251.25,209.25v10.5c-4.56,0-9.12.19-13.66-.07-3.09-.18-4,1.07-3.56,3.84-.41,3,.79,6.1-.76,9l0-.77v-10.5c-1-1.36-2.46-.56-3.7-.81l-.06-3.67q0-1.3,0-2.6c0-4.9,0-4.9,5-4.9Z" transform="translate(443.25 -137.98)"/><path class="cls-10" d="M-421.54,260.26a3.83,3.83,0,0,0-4.09-2.32c-5.87.18-11.75.06-17.62.06v-9.75c7,0,14,.27,21-.75.91,2.64.72,5.39.81,8.12Z" transform="translate(443.25 -137.98)"/><path class="cls-11" d="M-411,186c-10.72-1.59-21.51-.37-32.27-.76V180q20,0,40,0c1.56,0,3.34-.45,4.25,1.49C-403.31,182.16-407.15,184.07-411,186Z" transform="translate(443.25 -137.98)"/><path class="cls-12" d="M-443.25,193.5H-417l-2.28,5.93a51.12,51.12,0,0,1-6.11,2.33c-2.57.64-3.28,2.11-2.82,4.49-.83-4.05-3.48-5-7.25-4.55a70.61,70.61,0,0,1-7.8.06Z" transform="translate(443.25 -137.98)"/><path class="cls-13" d="M-443.25,233.25v-10.5c3.83,0,7.66-.12,11.48,0a6.84,6.84,0,0,0,5.92-2.33,76.16,76.16,0,0,1,2.08,14.29c-1.19-.71-.35-2.13-.69-2.57C-430.81,234.25-437.1,232.81-443.25,233.25Z" transform="translate(443.25 -137.98)"/><path class="cls-14" d="M-251.25,243.75V255c-5.76-.31-11.59.72-17.3-.75q0-5.62,0-11.25C-262.83,244.3-257,243.56-251.25,243.75Z" transform="translate(443.25 -137.98)"/><path class="cls-15" d="M-251.25,188.25V195h-20.9c-1.48,0-3.06-.24-3.86,1.51l-1.5-1.5a27.37,27.37,0,0,0-3.74-6c1.1-1.23,2.56-.73,3.87-.73C-268.67,188.23-260,188.25-251.25,188.25Z" transform="translate(443.25 -137.98)"/><path class="cls-16" d="M-425.85,220.46a6.84,6.84,0,0,1-5.92,2.33c-3.82-.16-7.65,0-11.48,0V211.5c5.28-.15,10.6.49,15.83-.77A35.62,35.62,0,0,1-425.85,220.46Z" transform="translate(443.25 -137.98)"/><path class="cls-17" d="M-276,196.51c.79-1.76,2.38-1.51,3.86-1.51h20.9v7.5c-6.05,0-12.11.22-18.15-.08-3.69-.19-4.93,1.14-4.36,4.59l-.74,0c-.32-2,.72-4.15-.75-6Z" transform="translate(443.25 -137.98)"/><path class="cls-18" d="M-251.25,188.25c-8.71,0-17.42,0-26.13,0-1.31,0-2.77-.5-3.87.73l-1.5-.75c-1.66-1.61-4-2.37-5.25-4.5,1.1-1.24,2.56-.73,3.87-.74,11,0,21.92,0,32.88,0Z" transform="translate(443.25 -137.98)"/><path class="cls-7" d="M-251.25,272.25v7.5h-23.27q0-1.5,0-3l.75-3.75a7.75,7.75,0,0,1,4.32-.76C-263.38,272.26-257.31,272.25-251.25,272.25Z" transform="translate(443.25 -137.98)"/><path class="cls-19" d="M-268.55,254.25c5.71,1.48,11.54.44,17.3.75v9.75h-17.33Q-268.56,259.5-268.55,254.25Z" transform="translate(443.25 -137.98)"/><path class="cls-20" d="M-268.58,264.75h17.33v7.5c-6.06,0-12.13,0-18.19,0a7.75,7.75,0,0,0-4.32.76l.08-6.69c1.46-.33,3.14.55,4.42-.79Z" transform="translate(443.25 -137.98)"/><path class="cls-21" d="M-273.76,207c-.57-3.46.66-4.78,4.36-4.59,6,.31,12.1.08,18.15.08v6.75H-268c-5,0-5,0-5,4.9q0,1.3,0,2.6C-274.62,213.61-273.34,210.25-273.76,207Z" transform="translate(443.25 -137.98)"/><path class="cls-22" d="M-422.22,247.5c-7,1-14,.73-21,.75v-7.5c4,0,8-.17,12,0,3.74.2,7,0,7.64-4.64l-.06,0c.14,1.54-.66,3.22.69,4.57A19.21,19.21,0,0,1-422.22,247.5Z" transform="translate(443.25 -137.98)"/><path class="cls-23" d="M-251.25,243.75c-5.77-.19-11.58.55-17.3-.75q0-3.29,0-6.58c.29-2,1.84-1.66,3.16-1.66,4.72,0,9.45,0,14.17,0Z" transform="translate(443.25 -137.98)"/><path class="cls-24" d="M-251.25,285.75V291l-.62.05-24-.05c-1.48,0-3.08.27-3.89-1.49.18-1.8,1.76-2.89,2.29-4.51a35.45,35.45,0,0,0,8.42.77C-263.11,285.69-257.18,285.75-251.25,285.75Z" transform="translate(443.25 -137.98)"/><path class="cls-25" d="M-251.25,285.75c-5.93,0-11.86-.06-17.79,0a35.46,35.46,0,0,1-8.42-.77,7.37,7.37,0,0,1,0-.74c2.46-.54,1.41-3.38,3-4.52h23.27Z" transform="translate(443.25 -137.98)"/><path class="cls-21" d="M-427.42,210.73c-5.23,1.26-10.55.62-15.83.77v-9.75a70.61,70.61,0,0,0,7.8-.06c3.76-.42,6.42.5,7.25,4.55A9,9,0,0,1-427.42,210.73Z" transform="translate(443.25 -137.98)"/><path class="cls-23" d="M-423.63,236.16c-.69,4.62-3.9,4.84-7.64,4.64-4-.22-8,0-12,0v-7.5c6.15-.44,12.44,1,18.79-1.07.34.44-.5,1.87.69,2.57Z" transform="translate(443.25 -137.98)"/><path class="cls-26" d="M-268.48,223.52c-.42-2.77.47-4,3.56-3.84,4.54.26,9.11.07,13.66.07V228c-3.48,0-7-.23-10.44.06C-265.34,228.37-268.16,228-268.48,223.52Z" transform="translate(443.25 -137.98)"/><path class="cls-27" d="M-268.48,223.52c.32,4.43,3.13,4.85,6.79,4.54,3.46-.29,7-.06,10.44-.06v6.75c-4.72,0-9.45,0-14.17,0-1.32,0-2.87-.34-3.16,1.66-1-1.13-2.43-.66-3.66-1l.07-2.91,2.94-.05C-267.69,229.62-268.89,226.5-268.48,223.52Z" transform="translate(443.25 -137.98)"/><path class="cls-28" d="M-251.25,175.5c-2.83-.46-.48-3.51-2.25-4.5l-.05-3,.23-.18,2.07,6.14Z" transform="translate(443.25 -137.98)"/><path class="cls-29" d="M-441.75,174.75h-1.5v-1.5c1.42-1.52.82-3.81,2.07-5.39l.24.18a7.65,7.65,0,0,1-.74,3.71Z" transform="translate(443.25 -137.98)"/><path class="cls-30" d="M-443.25,291l.79.75.05.79-.13,2.36a1.59,1.59,0,0,0-.72-.15Z" transform="translate(443.25 -137.98)"/><path class="cls-30" d="M-251.87,291.05l.62-.05v3.75a1.14,1.14,0,0,0-.72.14Z" transform="translate(443.25 -137.98)"/><path class="cls-31" d="M-407.25,330a4.19,4.19,0,0,0-.26-.68c1.38,0,2.84-.54,4,.68Z" transform="translate(443.25 -137.98)"/><path class="cls-31" d="M-287,329.32a4.42,4.42,0,0,0-.26.68H-291C-289.83,328.78-288.37,329.29-287,329.32Z" transform="translate(443.25 -137.98)"/><path class="cls-32" d="M-423.12,323.4c-2.12-.7-3.48-2.47-5.21-3.71.48-2.48,2.48-1.65,3.92-1.65q77.22-.06,154.45,0c1.31,0,2.8-.49,3.81.9a10.18,10.18,0,0,1-4.55,3.67c-.76-1.78-2.33-1.59-3.83-1.59q-72.67,0-145.33,0C-421.35,321-423.83,320.17-423.12,323.4Z" transform="translate(443.25 -137.98)"/><path class="cls-33" d="M-275.22,325.55A5.47,5.47,0,0,1-279,327,4.14,4.14,0,0,1-275.22,325.55Z" transform="translate(443.25 -137.98)"/><path class="cls-34" d="M-423.74,144.78a33.16,33.16,0,0,1,16.22-6.07c1.59-.11,3.28.57,4.74-.6q41.33-.05,82.65-.1c9.47,0,18.95.06,28.42.1,1.46,1.17,3.15.49,4.74.6,6.05.77,11.83,2.22,16.32,6.76a64.65,64.65,0,0,1-7,.75q-69.65.07-139.3,0A13,13,0,0,1-423.74,144.78Z" transform="translate(443.25 -137.98)"/><path class="cls-35" d="M-423.74,144.78a13,13,0,0,0,6.78,1.48q69.65,0,139.3,0a64.65,64.65,0,0,0,7-.75c1.7,1,3.82,1.42,4.55,3.62l-.2.19c-1.26.13-2.66-.52-3.7.72H-422.55c-2.09,0-4.32.4-5.81-1.69A14.05,14.05,0,0,1-423.74,144.78Z" transform="translate(443.25 -137.98)"/><path class="cls-29" d="M-441.18,167.86a17.67,17.67,0,0,1,3.11-7.44q25.65,0,51.29.1c1.57,0,3.34-.45,4.27,1.47-2.11,1.5-2.17,3.77-2.26,6-16.68,0-33.36-.06-50,.07-2,0-4.1-1.29-6.14,0Z" transform="translate(443.25 -137.98)"/><path class="cls-36" d="M-260.84,154.43c1.31.21,1.78,1.17,2,2.32q-27.44,0-54.87,0c-1.76,0-4-.62-4.31,2.23h-1.5c-.16-2-1.57-2.25-3.2-2.25q-24.55,0-49.09,0c-1.64,0-3,.21-3.2,2.25h-2.25c.13-2.95-2.07-2.22-3.66-2.23q-27.45-.08-54.91-.08l1.67-2.19h44.54Z" transform="translate(443.25 -137.98)"/><path class="cls-37" d="M-260.84,154.43l-128.77.07h-44.54c.17-1.15,1.07-1.71,1.88-2.35l1.77-.65c1.35.84,2.86.76,4.36.76h157.78c1.5,0,3,.09,4.36-.76l1.73.63A2.7,2.7,0,0,1-260.84,154.43Z" transform="translate(443.25 -137.98)"/><path class="cls-38" d="M-255.67,161.9a6.36,6.36,0,0,1,1.58,3.77,8.34,8.34,0,0,0-2.15-.6c-17.11,0-34.23,0-51.34-.08-1.64,0-2.27.72-2.17,2.26,0,.82.13,1.71-.75,2.25.49-2.7-.74-5.05-1.5-7.5.85-1.05,2-.74,3.12-.74q24.79,0,49.58,0A21.49,21.49,0,0,1-255.67,161.9Z" transform="translate(443.25 -137.98)"/><path class="cls-39" d="M-382.5,162c-.93-1.92-2.71-1.46-4.27-1.47q-25.65-.07-51.29-.1a3.33,3.33,0,0,1,1.32-2.29c4.65-1.25,9.39-.55,14.09-.59,13.55-.1,27.11-.06,40.66,0,1.21,0,3.91-1,2.5,2.2Z" transform="translate(443.25 -137.98)"/><path class="cls-28" d="M-309.74,167.25c-.1-1.54.52-2.27,2.17-2.26,17.11,0,34.23,0,51.34.08a8.34,8.34,0,0,1,2.15.6,3.06,3.06,0,0,1,.77,2.19l-.23.18c-2-1.25-4.11.06-6.16,0-14.71-.14-29.43-.1-44.14,0A20.16,20.16,0,0,1-309.74,167.25Z" transform="translate(443.25 -137.98)"/><path class="cls-36" d="M-318,159c.34-2.85,2.55-2.23,4.31-2.23q27.44,0,54.87,0l1,1.37c-1.56,1-3.32.88-5.07.88q-23.57,0-47.13,0c-1.57,0-3.34-.45-4.26,1.48Z" transform="translate(443.25 -137.98)"/><path class="cls-39" d="M-314.25,160.49c.92-1.93,2.69-1.48,4.26-1.48q23.57,0,47.13,0c1.74,0,3.51.16,5.07-.88a7,7,0,0,1,2.12,3.78,21.41,21.41,0,0,0-3.63-.62q-24.79-.06-49.58,0c-1.08,0-2.27-.31-3.12.74Z" transform="translate(443.25 -137.98)"/><path class="cls-35" d="M-428.37,148.3c1.49,2.09,3.72,1.69,5.81,1.69H-270c1.24-.19,2.66.51,3.7-.72l.2-.19a1.38,1.38,0,0,1,.6.16l.75,1.51h-165l.65-1.76Z" transform="translate(443.25 -137.98)"/><path class="cls-36" d="M-379.5,159.74c1.41-3.24-1.29-2.19-2.5-2.2-13.55-.07-27.11-.11-40.66,0-4.7,0-9.44-.66-14.09.59l.93-1.44q27.45,0,54.91.08c1.59,0,3.79-.72,3.66,2.23Z" transform="translate(443.25 -137.98)"/><path class="cls-35" d="M-264.75,150.75l-.75-1.51c1.72.24,2.49,1.55,3.23,2.89l-1.72-.63Z" transform="translate(443.25 -137.98)"/><path class="cls-40" d="M-429.1,149l-.65,1.76-.75.75-1.77.65A6.67,6.67,0,0,1-429.1,149Z" transform="translate(443.25 -137.98)"/><path class="cls-41" d="M-287,138.71c-1.59-.11-3.28.57-4.74-.6C-290.1,138.05-288.44,137.63-287,138.71Z" transform="translate(443.25 -137.98)"/><path class="cls-41" d="M-402.78,138.11c-1.46,1.17-3.14.49-4.74.6C-406.06,137.63-404.4,138.05-402.78,138.11Z" transform="translate(443.25 -137.98)"/><path class="cls-42" d="M-440.49,302.35c-.75-.6-.57-1.44-.6-2.23.8-1.09,2-.83,3.07-.86,11.76-.3,23.55.7,35.29-.76,1.38.92,2.95.73,4.48.76,2.12,1.49,4.51.42,6.76.74,11.05.5,22.1,1.16,33.15,1.45,17.31.45,34.6-.4,51.88-1.45,6.57-.4,13.17-.67,19.21-3.75A30,30,0,0,0-276,297.79c6.44-.14,12.88,0,19.32-.05,1.74,0,3.31,0,3.24,2.37a10.31,10.31,0,0,1-2.34,5.71c.07-1.65-.76-2.45-2.3-1.88-2.08.77-4.19.56-6.29.56q-34.73,0-69.46,0c-14.17,0-28.34.16-42.5,0-20.81-.29-41.65.95-62.44-.71Z" transform="translate(443.25 -137.98)"/><path class="cls-43" d="M-438.75,303.75c20.8,1.66,41.63.43,62.44.71,14.16.2,28.33,0,42.5,0q34.73,0,69.46,0c2.1,0,4.21.21,6.29-.56,1.54-.57,2.37.23,2.3,1.88l-2,3.29c-.25,0-.5-.06-.75-.06l-175.07,0c-1.1,0-2.29-.2-3.07.91A7.82,7.82,0,0,1-438.8,306Q-438.78,304.86-438.75,303.75Z" transform="translate(443.25 -137.98)"/><path class="cls-44" d="M-430.63,317.47a11,11,0,0,1-3.52-4l.65-.73H-261v1.35l-2.73,2.51c-.5,0-1-.09-1.5-.09q-81,0-162,0C-428.43,316.51-429.78,316.17-430.63,317.47Z" transform="translate(443.25 -137.98)"/><path class="cls-45" d="M-433.5,312.75l-.65.73c-.76-1.24-2.45-1.83-2.49-3.57.78-1.12,2-.91,3.07-.91l175.07,0c.25,0,.5,0,.75.06-1.36,1.49-1.17,4-3.25,5q0-.67,0-1.35c-1.24-1.29-2.83-.72-4.26-.72q-51.5-.05-103,0c-5.84,0-11.68-.06-17.52,0-1.66,0-3.49-.68-5,.71h-.75c-.73-.94-1.77-.74-2.75-.74h-36.51C-431.73,312-432.77,311.81-433.5,312.75Z" transform="translate(443.25 -137.98)"/><path class="cls-32" d="M-430.63,317.47c.86-1.3,2.2-1,3.41-1q81,0,162,0c.5,0,1,.06,1.5.09a5.37,5.37,0,0,1-2.43,2.31c-1-1.39-2.5-.9-3.81-.9q-77.22,0-154.45,0c-1.44,0-3.44-.83-3.92,1.65A5.57,5.57,0,0,1-430.63,317.47Z" transform="translate(443.25 -137.98)"/><path class="cls-46" d="M-253.41,300.1c.07-2.37-1.51-2.38-3.24-2.37-6.44,0-12.88-.09-19.32.05a30,30,0,0,1-11.28-1.54c1.5-1.79,4.16-2.22,5.23-4.51a4.85,4.85,0,0,1,2.27-2.23c.82,1.76,2.41,1.48,3.89,1.49l24,.05q-.05,1.92-.11,3.84A13.57,13.57,0,0,1-253.41,300.1Z" transform="translate(443.25 -137.98)"/><path class="cls-47" d="M-402.73,298.49c-11.74,1.46-23.53.46-35.29.76-1.09,0-2.27-.23-3.07.86a4,4,0,0,1-.77-2.93c0-1.56.65-3.21-.54-4.64l-.05-.79c7.42,0,14.84,0,22.26,0A19.88,19.88,0,0,0-414,291l1.48.76C-410.29,295.51-405.88,296.09-402.73,298.49Z" transform="translate(443.25 -137.98)"/><path class="cls-5" d="M-442.4,292.54c1.19,1.43.5,3.08.54,4.64-.65-.64-.57-1.49-.67-2.29Z" transform="translate(443.25 -137.98)"/><path class="cls-47" d="M-438.75,303.75q0,1.11-.05,2.23a8,8,0,0,1-1.69-3.63Z" transform="translate(443.25 -137.98)"/><path class="cls-48" d="M-288,183.76c1.21,2.13,3.59,2.89,5.25,4.5-.62,2.46-2.63,1.44-4,1.45q-59.34.08-118.68,0c-1.37,0-2.75-.06-4.12,0-1.64.08-2.27-.72-2.17-2.26l.77-1.5c3.83-1.93,7.67-3.85,12-4.51,7.23-1,14.65-.06,21.75-2.24,5.75-.42,11.57.88,17.27-.75,3.09,1.48,6.39.76,9.56.69,5.06-.12,10.18.9,15.17-.67,5.89,2.74,11.94,1.63,18,.74.8,1.1,2,.65,3,.75h3.74c2.12,1.48,4.51.43,6.75.74H-300c1.32,1.34,3,.51,4.5.74Z" transform="translate(443.25 -137.98)"/><path class="cls-28" d="M-309.74,167.25a20.16,20.16,0,0,0,5.89.77c14.71,0,29.43-.09,44.14,0,2.06,0,4.12-1.29,6.16,0l.05,3c-1.11,1.23-2.57.73-3.89.73-16,0-32,0-48,0a20,20,0,0,1-5.89-.77l0-.75.75-.75C-309.62,169-309.78,168.07-309.74,167.25Z" transform="translate(443.25 -137.98)"/><path class="cls-49" d="M-311.25,170.25l0,.75-6,8.25c-6,.89-12.09,2-18-.74l4.52-8.25,2.23-2.25c.53,2.31,2.41,2.22,4.14,2.23C-320,170.28-315.62,170.25-311.25,170.25Z" transform="translate(443.25 -137.98)"/><path class="cls-50" d="M-360,178.5c-5.7,1.64-11.52.33-17.27.75l-3.76-4.5-2.24-3-1.5-3.75c.08-2.26.14-4.53,2.26-6l3-2.23,2.25-.74H-375l2.25.75,3,3c1,1.25,1.47,2.92,3,3.76a7.8,7.8,0,0,0,3,4.5Z" transform="translate(443.25 -137.98)"/><path class="cls-51" d="M-383.26,171.75l2.24,3h-60.74q0-1.5.07-3c4.91,1,9.88.81,14.84.73C-412.32,172.24-397.77,173.21-383.26,171.75Z" transform="translate(443.25 -137.98)"/><path class="cls-2" d="M-303.75,180.74c-2.24-.31-4.64.73-6.75-.74C-308.26,180.33-305.87,179.25-303.75,180.74Z" transform="translate(443.25 -137.98)"/><path class="cls-2" d="M-295.5,181.49c-1.5-.23-3.18.6-4.5-.74C-298.5,181-296.82,180.14-295.5,181.49Z" transform="translate(443.25 -137.98)"/><path class="cls-52" d="M-412.51,291.76-414,291a53.38,53.38,0,0,1-5.26-9q0-.75,0-1.5c2.74,2.14,12.34,2.16,15.74,0h.73c2.24,3.71,5.6,5,9.77,4.48,2.12,1.49,4.51.42,6.76.74h3.75c2.63,1.58,5.52.36,8.26.73h6c.73.93,1.78.74,2.75.74h37.25c1,0,2,.19,2.75-.74h6c3-.37,6.12.81,9-.74h3c2-.32,4.15.74,6-.73,1.26-.21,2.7.48,3.76-.76,1.73.19,3-.85,4.49-1.51.7,1.57,2.08,1.52,3.48,1.52,4.1,0,8.2,0,12.3,0a7.29,7.29,0,0,0,0,.74c-.53,1.62-2.11,2.71-2.29,4.51a4.85,4.85,0,0,0-2.27,2.23c-1.35-.84-2.86-.75-4.36-.75H-408.16A7.78,7.78,0,0,0-412.51,291.76Z" transform="translate(443.25 -137.98)"/><path class="cls-53" d="M-403.51,280.54c-3.4,2.13-13,2.1-15.74,0-.93-3.18-2-6.35-1.51-9.75-.28-2,.66-4.15-.73-6q0-2.24,0-4.48l.12-4.64c1.15,3.57.78,7.32,1.25,11,.26,2,.9,2.85,2.92,2.79,3.58-.11,7.16-.1,10.74-.14,1,1.64.69,3.48.77,5.26V276C-404.68,277.36-405.54,279.66-403.51,280.54Z" transform="translate(443.25 -137.98)"/><path class="cls-10" d="M-421.49,264.74c1.39,1.86.45,4,.73,6a1.56,1.56,0,0,1-.74-1.5Z" transform="translate(443.25 -137.98)"/><path class="cls-54" d="M-411.75,187.5c-.1,1.54.53,2.34,2.17,2.26,1.37-.07,2.74,0,4.12,0q59.34,0,118.68,0c1.4,0,3.41,1,4-1.45l1.5.75a27.38,27.38,0,0,1,3.74,6c-1.24,1.28-2.83.63-4.26.72-4.58.3-9.22-.63-13.74.77-9.71-1.67-19.56-1.93-29.34-2.12-20.71-.4-41.44-.42-62.14.62-2.5.33-5.13-.78-7.51.74l-4.5.76c-4.17-1.66-8.52-.36-12.77-.75-1.81-.17-3.86.23-4.48-2.26C-415.33,191.07-413.26,189.49-411.75,187.5Z" transform="translate(443.25 -137.98)"/><path class="cls-55" d="M-416.25,193.5c.62,2.49,2.67,2.09,4.48,2.26,4.25.39,8.6-.91,12.77.75-2.32,2-4.84,3.75-6,6.74-3.52,2.35-7,1.66-10.55,0-.13-2.35.79-5.7-3.7-3.8l2.28-5.93Z" transform="translate(443.25 -137.98)"/><path class="cls-56" d="M-273.76,207c.41,3.24-.86,6.6.75,9.75q0,1.83.06,3.67l-1.48,2.31c-.71-3.09-2.57-2.33-4.5-1.34-2.8-1.8-3.64-1.46-3.82,1.58-.07,1.23-.07,2.46-.09,3.69-1.06-2.7-.62-5.52-.71-8.3-.25-2.54.82-5.2-.71-7.63l-.05-1.38.09-1.11c.31.12.71.15.91.36,2.15,2.26,4.89,1.31,7.39,1.27,1.84,0,1.27-1.76,1.41-2.9Z" transform="translate(443.25 -137.98)"/><path class="cls-57" d="M-282.83,226.67c0-1.23,0-2.46.1-3.69.17-3,1-3.39,3.82-1.59a22.34,22.34,0,0,1,.68,7.26c-.11,2.89,1.17,3.71,3.78,3.1l1.39-.73c1.06,1.36,2.5.7,3.82.7l0,.77-2.94,0c-2.49-.13-5.2.86-7.33.4-3.42-.73-2.36,1.23-2.57,2.69C-283.17,232.73-282.71,229.68-282.83,226.67Z" transform="translate(443.25 -137.98)"/><path class="cls-58" d="M-269.26,231.74c-1.32,0-2.75.66-3.82-.7a53.91,53.91,0,0,0,0-6.33c-.33-3.1.91-4.1,3.81-3.46Z" transform="translate(443.25 -137.98)"/><path class="cls-59" d="M-269.24,221.24c-2.9-.64-4.14.37-3.81,3.46a53.91,53.91,0,0,1,0,6.33l-1.39.73q0-4.51,0-9l1.48-2.31C-271.71,220.67-270.24,219.87-269.24,221.24Z" transform="translate(443.25 -137.98)"/><path class="cls-60" d="M-295.51,196.5c4.52-1.4,9.16-.47,13.74-.77,1.43-.09,3,.56,4.26-.72l1.5,1.5.76,4.48c-.06,1,0,2.23-1.39,2.17-4.29-.16-8.65.84-12.86-.67A31.73,31.73,0,0,0-295.51,196.5Z" transform="translate(443.25 -137.98)"/><path class="cls-61" d="M-289.51,202.5c4.22,1.51,8.57.5,12.86.67,1.39.05,1.34-1.18,1.39-2.17,1.48,1.84.44,4,.75,6-.15,1.14.43,2.87-1.41,2.9-2.5,0-5.24,1-7.39-1.27-.21-.22-.61-.25-.91-.36l-.09,1.11c-.3-3.43-2.7-3.32-5.19-3.08V202.5Z" transform="translate(443.25 -137.98)"/><path class="cls-62" d="M-273.67,266.31l-.08,6.69-.75,3.75c-2.35,1.84-11.32,2.22-13.63.52-.34-.25-.41-.84-.61-1.28v-5.23c1.46-1.86.44-4,.73-6q0-2.25,0-4.49l.73,0c.41.71-.73,1.94.77,2.28l6,0c2.15,3.08,3.34.93,4.59-.85l0,0C-275.62,263.44-277.31,266.2-273.67,266.31Z" transform="translate(443.25 -137.98)"/><path class="cls-63" d="M-288.75,276c.2.43.28,1,.61,1.28,2.32,1.7,11.29,1.32,13.63-.52q0,1.5,0,3c-1.54,1.14-.5,4-3,4.52-4.1,0-8.2,0-12.3,0-1.4,0-2.78,0-3.48-1.52.43-1,1.61-1.68,1.53-3a4.7,4.7,0,0,0,2.24-3.75Z" transform="translate(443.25 -137.98)"/><path class="cls-64" d="M-273.67,266.31c-3.64-.11-1.95-2.87-2.29-4.61.22,4.8,3.81,3.71,6.71,3.83C-270.53,266.86-272.21,266-273.67,266.31Z" transform="translate(443.25 -137.98)"/><path class="cls-23" d="M-423.69,236.18c1,1.42.67,3,.69,4.57C-424.35,239.39-423.55,237.71-423.69,236.18Z" transform="translate(443.25 -137.98)"/><path class="cls-65" d="M-277.5,240a39.88,39.88,0,0,1,.73,9.74c-1.62-1.76-.1-4.07-1-6-1.43,3.18-3.62,6.1-2.78,9.88-1.07-2.92-.65-6-.74-9-.26-2.56.89-5.24-.71-7.67l-.05-1.34c.2-1.47-.85-3.43,2.57-2.69,2.13.46,4.84-.53,7.33-.4q0,1.45-.07,2.91H-273c-1.52-1.05-3-1.21-4.46.13l.07-.08C-278.73,237-278.6,238.49-277.5,240Z" transform="translate(443.25 -137.98)"/><path class="cls-51" d="M-383.26,171.75c-14.51,1.46-29.06.49-43.59.73-5,.08-9.93.29-14.84-.73a7.64,7.64,0,0,0,.74-3.71c2-1.26,4.09.05,6.14,0,16.68-.13,33.36-.07,50-.07Z" transform="translate(443.25 -137.98)"/><path class="cls-35" d="M-266.3,149.28c-1,1.23-2.46.53-3.7.72C-269,148.76-267.55,149.41-266.3,149.28Z" transform="translate(443.25 -137.98)"/><path class="cls-66" d="M-311.25,170.25c-4.37,0-8.74,0-13.11,0-1.73,0-3.61.08-4.14-2.23q0-.37,0-.75l3.76-5.25c1.43-.78,2-2.63,3.74-3h3l3.75,1.49L-312,162c.76,2.45,2,4.8,1.5,7.5Z" transform="translate(443.25 -137.98)"/><path class="cls-36" d="M-319.5,159H-321c-.8-1.77-2.4-1.5-3.88-1.5-15.12,0-30.24,0-45.35,0-1.2,0-3.93-1.07-2.52,2.2L-375,159c.16-2,1.57-2.25,3.2-2.25q24.55,0,49.09,0C-321.07,156.74-319.66,157-319.5,159Z" transform="translate(443.25 -137.98)"/><path class="cls-67" d="M-430.5,151.5l.75-.75h165l.75.75c-1.35.84-2.86.76-4.36.76H-426.14C-427.64,152.25-429.15,152.34-430.5,151.5Z" transform="translate(443.25 -137.98)"/><path class="cls-68" d="M-412.51,291.76a7.78,7.78,0,0,1,4.36-.76h121.78c1.5,0,3-.1,4.36.75-1.06,2.29-3.73,2.72-5.23,4.51-6,3.08-12.64,3.35-19.21,3.75-17.28,1-34.56,1.89-51.88,1.45-11.06-.28-22.1-1-33.15-1.45-2.12-1.45-4.51-.44-6.76-.74-1.53,0-3.1.16-4.48-.76C-405.88,296.09-410.29,295.51-412.51,291.76Z" transform="translate(443.25 -137.98)"/><path class="cls-47" d="M-398.25,299.26c2.25.3,4.64-.71,6.76.74C-393.73,299.68-396.13,300.75-398.25,299.26Z" transform="translate(443.25 -137.98)"/><path class="cls-45" d="M-368.25,312q51.5,0,103,0c1.43,0,3-.57,4.26.72H-368.25Z" transform="translate(443.25 -137.98)"/><path class="cls-45" d="M-433.5,312.75c.73-.94,1.77-.74,2.75-.74h36.51c1,0,2-.19,2.75.74Z" transform="translate(443.25 -137.98)"/><path class="cls-45" d="M-368.25,312v.75h-22.5c1.49-1.39,3.32-.69,5-.71C-379.93,311.94-374.09,312-368.25,312Z" transform="translate(443.25 -137.98)"/><path class="cls-69" d="M-360,178.5l-3.78-7.48c.79-1.74,2.36-1.51,3.84-1.51,8.42,0,16.83,0,25.25,0a7.31,7.31,0,0,1,3.94.77l-4.52,8.25c-5,1.57-10.12.56-15.17.67C-353.59,179.26-356.89,180-360,178.5Z" transform="translate(443.25 -137.98)"/><path class="cls-70" d="M-330.73,170.26a7.31,7.31,0,0,0-3.94-.77c-8.42,0-16.83,0-25.25,0-1.48,0-3-.23-3.84,1.51a7.8,7.8,0,0,1-3-4.5c.54-.25,1.09-.72,1.63-.72,11.49,0,23,0,34.48,0,1.1,0,2,.19,2.15,1.5q0,.37,0,.75Z" transform="translate(443.25 -137.98)"/><path class="cls-29" d="M-328.5,167.25c-.15-1.32-1.05-1.51-2.15-1.5-11.49,0-23,0-34.48,0-.55,0-1.09.47-1.63.72-1.52-.84-2-2.52-3-3.76a2.4,2.4,0,0,1,2.39-1.49c14.21.41,28.44-.92,42.62.74Z" transform="translate(443.25 -137.98)"/><path class="cls-39" d="M-324.74,162c-14.18-1.66-28.42-.33-42.62-.74a2.4,2.4,0,0,0-2.39,1.49l-3-3c-1.41-3.27,1.31-2.2,2.52-2.2,15.12-.07,30.23,0,45.35,0,1.48,0,3.08-.27,3.88,1.5C-322.75,159.37-323.31,161.23-324.74,162Z" transform="translate(443.25 -137.98)"/><path class="cls-71" d="M-291.73,279.76c.08,1.3-1.09,1.95-1.53,3-1.44.66-2.76,1.71-4.49,1.51-2,.33-4.15-.75-6,.74-1.26.2-2.7-.47-3.76.75h-3c-3,.36-6.11-.78-9,.74h-54.72c-2.64-1.55-5.52-.37-8.26-.73h-3.75c-2.12-1.46-4.51-.43-6.76-.74-4.17.5-7.53-.76-9.77-4.48a2.61,2.61,0,0,1,3.47-1.41c2.33.78,4.68.62,7,.63h72.68c6.74,0,13.49-.09,20.23,0C-296.8,279.85-294.26,278-291.73,279.76Z" transform="translate(443.25 -137.98)"/><path class="cls-7" d="M-291.73,279.76c-2.54-1.81-5.08.09-7.63,0-6.74-.14-13.49,0-20.23,0h-72.68c-2.36,0-4.71.15-7-.63a2.61,2.61,0,0,0-3.47,1.41h-.73c-2-.88-1.18-3.17-2.22-4.54H-402c.85,1.05,2.05.74,3.14.74q14.18,0,28.36,0H-348c1.47-.92,3.1-.75,4.72-.75h53.79A4.7,4.7,0,0,1-291.73,279.76Z" transform="translate(443.25 -137.98)"/><path class="cls-68" d="M-368.25,286.51h42.74c-.73.93-1.78.74-2.75.74H-365.5C-366.47,287.24-367.52,287.44-368.25,286.51Z" transform="translate(443.25 -137.98)"/><path class="cls-68" d="M-319.51,286.49c2.9-1.52,6-.38,9-.74C-313.4,287.31-316.52,286.13-319.51,286.49Z" transform="translate(443.25 -137.98)"/><path class="cls-68" d="M-382.5,285.76c2.74.36,5.62-.82,8.26.73C-377,286.12-379.86,287.34-382.5,285.76Z" transform="translate(443.25 -137.98)"/><path class="cls-68" d="M-393,285c2.25.3,4.64-.72,6.76.74C-388.48,285.42-390.88,286.5-393,285Z" transform="translate(443.25 -137.98)"/><path class="cls-7" d="M-303.75,285c1.85-1.49,4-.42,6-.74-1.05,1.24-2.5.55-3.76.76Z" transform="translate(443.25 -137.98)"/><path class="cls-68" d="M-303.75,285l2.24,0c-1.85,1.48-4,.42-6,.73C-306.45,284.53-305,285.19-303.75,285Z" transform="translate(443.25 -137.98)"/><path class="cls-72" d="M-288.75,276l-.74,0h0c.48-3.1-1.51-3-3.68-3-17.2.23-34.41.19-51.62.17-18.7,0-37.41.06-56.11-.19a7.09,7.09,0,0,0-4.83,1.53c-.08-1.78.26-3.62-.77-5.26a19.85,19.85,0,0,0,6.62-1.54c2.91,2.27,6.26,2.38,9.79,2.35,14.59-.12,29.17,0,43.76,0,5.83,0,5.83,0,5.84-6l.84-.06h0c.26,1.77-.83,3.74.8,5.3l-.06-.09.72.87a15.87,15.87,0,0,0,10.47,0c.83,0,1.74.11,2.27-.79,6.58-1.62,13-3.59,18.68-7.51,2.47,3.94,5.94,1.77,9.11,1.51l0,0c-.07,2.14,0,4.15,3,2.29,1.75-.83,5,.22,4.4-3.55a31.88,31.88,0,0,1,.23-3.69c.09-.51.62-1.28,1-1.35,1.06-.18,1,.77,1.06,1.5s0,1.24,0,1.85q0,2.25,0,4.49c-1.48,1.85-.43,4-.73,6Z" transform="translate(443.25 -137.98)"/><path class="cls-7" d="M-405.74,274.5a7.09,7.09,0,0,1,4.83-1.53c18.7.25,37.41.17,56.11.19,17.2,0,34.41.05,51.62-.17,2.17,0,4.16-.09,3.68,3h-53.78c-1.61,0-3.25-.17-4.72.75-3.91-1.59-8-.63-12-.66-3.24,0-6.62-1-9.76.66h-.75c-1.1-1.22-2.56-.72-3.87-.73-9.21,0-18.42,0-27.63,0h-3.73Q-405.73,275.25-405.74,274.5Z" transform="translate(443.25 -137.98)"/><path class="cls-73" d="M-289.51,202.5V204c-12.36,0-24.73,0-37.09,0a17.49,17.49,0,0,1-8-1.53c.3-3.13-.67-4.35-3.87-2.79a34.48,34.48,0,0,1-6,2.19c-2.35.64-3.26,2-2.83,4.35-.57-2.06-1.88-2.3-4-2.35-7.44-.19-14.85.56-22.31.22-10.48-.48-21-.12-31.49-.12q0-.37,0-.75c1.18-3,3.7-4.77,6-6.74l4.5-.76c2.5-.32,5.13.75,7.51-.74,20.71-1,41.43-1,62.14-.62,9.78.19,19.63.45,29.34,2.12A31.73,31.73,0,0,1-289.51,202.5Z" transform="translate(443.25 -137.98)"/><path class="cls-55" d="M-387,195c-2.38,1.5-5,.42-7.51.74C-392.12,194.22-389.48,195.33-387,195Z" transform="translate(443.25 -137.98)"/><path class="cls-74" d="M-405,203.25q0,.37,0,.75t0,.74c-1.23,1.06-.57,2.49-.74,3.76V210l-.76,5.25c-1.79,2.33-4.35,1.74-6.53,1.3-3.11-.62-.82-4-2.54-6.17v7.28a42.21,42.21,0,0,1,0-14.43C-412.05,204.91-408.54,205.61-405,203.25Z" transform="translate(443.25 -137.98)"/><path class="cls-58" d="M-274.43,222.74q0,4.51,0,9c-2.61.61-3.88-.21-3.78-3.1a22.34,22.34,0,0,0-.68-7.26C-277,220.41-275.14,219.65-274.43,222.74Z" transform="translate(443.25 -137.98)"/><path class="cls-61" d="M-283.55,218.38c-1.09-2.46-.59-5.07-.71-7.63C-282.73,213.17-283.8,215.84-283.55,218.38Z" transform="translate(443.25 -137.98)"/><path class="cls-20" d="M-340.5,264c0,6,0,6-5.84,6-14.59,0-29.17-.07-43.76,0-3.53,0-6.88-.08-9.79-2.35,4.45-1.93,9-3.68,12.88-6.7a2.08,2.08,0,0,0,2.25-2.28l1.31-2.26c1.57-1.7,1.48-3.42.06-5.16v.06a1.67,1.67,0,0,1,1.6-.83c.08.81-.08,1.72.84,2.21l0,0c.13,1.29-.56,2.74.77,3.78v0c.11,1.29-.53,2.72.73,3.8-.14,2,.3,4.48,2.11,4.9s4.64.83,6.07-1.73c-.16-1.82.75-3.77-.7-5.42a.56.56,0,0,1,0-.61l.08-3.12c.85,1.41,1.71,2.78,3.73,2.23a.58.58,0,0,1,0,.62c.18,1.55-.76,3.3.81,4.6l5.87,0c1.26-1.76,2.81-1.78,4.52-.74l.08,2.75c-.05,1.12-.19,2.47,1.41,2.42,2-.05,4.15.78,6-.64l.16-8.27c1.59,1.93-.82,5.3,1.54,6.36C-345.73,264.55-343,263.93-340.5,264Z" transform="translate(443.25 -137.98)"/><path class="cls-75" d="M-403.5,242.2c-1.84,0-3.69-.06-5.53-.07-5.27,0-5.29,0-5.65-5.44-.11-1.59-.08-3.19-.11-4.79.14-6.15.14-6.15,6.07-6.14h1.48v13.5C-407.75,242.46-404.43,240.81-403.5,242.2Z" transform="translate(443.25 -137.98)"/><path class="cls-76" d="M-403.5,242.2c-.93-1.39-4.25.25-3.75-3A6,6,0,0,1-401.8,237c2.18.14,4.38,0,6.57,0a6.61,6.61,0,0,0,6.59,1.19c1.53-.44,3-1.28,4.63-1.18a13.81,13.81,0,0,1,.87,5.25c-2.76,1-5.63.68-8.48.77-1.3,0-2.8-.48-3.75,1Z" transform="translate(443.25 -137.98)"/><path class="cls-57" d="M-407.25,225.75h-1.48c-5.93,0-5.93,0-6.07,6.14-1.26-4.69-.67-9.48-.77-14.23,0-2.23,0-4.45,0-7.28,1.72,2.21-.57,5.55,2.54,6.17,2.18.43,4.74,1,6.53-1.3l0,3C-406.24,220.8-406.85,223.26-407.25,225.75Z" transform="translate(443.25 -137.98)"/><path class="cls-77" d="M-408.67,251.46c-.23-1.36.59-1.84,2.2-1.37l.36.11c3.39,1,9,1.47,9.1,4.32s-5.08,4.81-8.29,6.71c-1.48.87-2,.24-2.18-1.19C-407.83,257.31-408.23,254.6-408.67,251.46Z" transform="translate(443.25 -137.98)"/><path class="cls-78" d="M-395.37,244c1-1.45,2.45-.93,3.75-1,2.84-.08,5.72.23,8.48-.77.06,1.1-.33,2.28.64,3.19.17,1.2-.51,2.6.8,3.55l0,0-.08,1.58a1.67,1.67,0,0,0-1.6.83C-386.62,247.65-391.05,245.91-395.37,244Z" transform="translate(443.25 -137.98)"/><path class="cls-78" d="M-383.39,251.29c1.42,1.74,1.51,3.46-.06,5.16A10.49,10.49,0,0,0-383.39,251.29Z" transform="translate(443.25 -137.98)"/><path class="cls-78" d="M-384.76,258.72A2.08,2.08,0,0,1-387,261Z" transform="translate(443.25 -137.98)"/><path class="cls-64" d="M-280.51,255l-.06-1.35c-.84-3.77,1.34-6.7,2.78-9.88.93,1.91-.59,4.22,1,6l.07,2.09c.25,2.55-.86,5.22.68,7.66l.08,2.17c-1.25,1.78-2.43,3.93-4.59.85A8.36,8.36,0,0,0-280.51,255Z" transform="translate(443.25 -137.98)"/><path class="cls-65" d="M-276,259.5c-1.54-2.44-.43-5.11-.68-7.66C-275.62,254.31-276.1,256.93-276,259.5Z" transform="translate(443.25 -137.98)"/><path class="cls-57" d="M-277.5,240c-1.1-1.52-1.24-3,.09-4.48Q-277.45,237.76-277.5,240Z" transform="translate(443.25 -137.98)"/><path class="cls-57" d="M-277.47,235.6c1.45-1.34,2.94-1.18,4.46-.13Z" transform="translate(443.25 -137.98)"/><path class="cls-79" d="M-289.49,206.29l-.29.09-.3-.07c-1.28,0-2.85-.56-3.25,1.45-.78,1.8-2.08,2.31-4.08,2.29-12.11-.11-24.23-.06-36.34-.06a5.89,5.89,0,0,0-.11-1.09c0-.14-.32-.21-.73-.45v10.73a58.75,58.75,0,0,1,0-16.7,17.49,17.49,0,0,0,8,1.53c12.36-.08,24.73,0,37.09,0Z" transform="translate(443.25 -137.98)"/><path class="cls-78" d="M-288.75,243a71.42,71.42,0,0,1,1.58,13.35l-.1,3.88-.72,0c0-.62,0-1.24,0-1.85s0-1.68-1.06-1.5c-.43.07-1,.83-1,1.35a31.79,31.79,0,0,0-.23,3.69,54,54,0,0,1-1.47-12c-.17-1.83.78-3.8-.71-5.46a.49.49,0,0,1,0-.57c.22-2.49-.86-5.62,3.12-6.22h0C-289.25,239.47-290.18,241.39-288.75,243Z" transform="translate(443.25 -137.98)"/><path class="cls-65" d="M-280.51,255a8.36,8.36,0,0,1,0,7.53l-6,0,.1-1a4.93,4.93,0,0,0,.72.18c5.3.49,5.3.49,5.14-4.86C-280.56,256.23-280.52,255.62-280.51,255Z" transform="translate(443.25 -137.98)"/><path class="cls-64" d="M-286.4,261.54l-.1,1c-1.49-.34-.36-1.57-.77-2.28q.05-1.94.1-3.88C-286.21,258-286.61,259.8-286.4,261.54Z" transform="translate(443.25 -137.98)"/><path class="cls-78" d="M-288.74,270.76c.3-2-.74-4.16.73-6C-288.31,266.75-287.28,268.91-288.74,270.76Z" transform="translate(443.25 -137.98)"/><path class="cls-57" d="M-281.31,244.67c-1.08-2.48-.6-5.1-.71-7.67C-280.42,239.43-281.57,242.11-281.31,244.67Z" transform="translate(443.25 -137.98)"/><path class="cls-7" d="M-402,276c9.21,0,18.42,0,27.63,0,1.31,0,2.77-.5,3.87.73q-14.18,0-28.36,0C-399.95,276.74-401.15,277.05-402,276Z" transform="translate(443.25 -137.98)"/><path class="cls-7" d="M-369.75,276.75c3.15-1.64,6.52-.68,9.76-.66,4,0,8.07-.93,12,.66Z" transform="translate(443.25 -137.98)"/><path class="cls-80" d="M-301.47,244.49c.07,5.37,2.75,10.17,3.33,15.43.12,1.11.29,2.21.43,3.31-3.16.26-6.64,2.43-9.11-1.51l4.48-5.23c1.24-1.77,1.55-3.51-.19-5.17l-2.8-2.93C-304,247.07-302.14,246.4-301.47,244.49Z" transform="translate(443.25 -137.98)"/><path class="cls-81" d="M-339.87,260.26l.21,3.69-.84.06c-2.46-.07-5.23.55-7.3-.38-2.36-1.06,0-4.43-1.55-6.36,1-2.36,2.33-2.75,4-.66A11.4,11.4,0,0,0-339.87,260.26Z" transform="translate(443.25 -137.98)"/><path class="cls-20" d="M-339,269.15c4.48.62,9,.17,13.46.08-.53.9-1.44.75-2.27.79h-10.47Z" transform="translate(443.25 -137.98)"/><path class="cls-7" d="M-338.24,270h10.47A15.87,15.87,0,0,1-338.24,270Z" transform="translate(443.25 -137.98)"/><path class="cls-20" d="M-339.7,263.93c1,1.66.42,3.55.8,5.3C-340.53,267.67-339.45,265.7-339.7,263.93Z" transform="translate(443.25 -137.98)"/><path class="cls-80" d="M-297.72,263.21c.59,1.28,1.12,2.65,3,2.29C-297.76,267.35-297.79,265.35-297.72,263.21Z" transform="translate(443.25 -137.98)"/><path class="cls-79" d="M-347.24,206.25a.8.8,0,0,1,.1.7c-1,2.82-3.14,3.3-5.84,3.09a40.61,40.61,0,0,0-7.4,0c-2.58.27-4.12-.62-4.84-3.05-1.41-2.72-3.37-1.54-5.27-.74-1.19.78-3.28.08-3.66,2.22a5.06,5.06,0,0,1-4.21,2c-9.13.28-18.27,1-27.37-.44q0-.75,0-1.5c1.24-1.06.57-2.49.74-3.76q0-.37,0-.74c10.5,0,21-.36,31.49.12,7.46.34,14.87-.42,22.31-.22C-349.12,204-347.82,204.19-347.24,206.25Z" transform="translate(443.25 -137.98)"/><path class="cls-9" d="M-405.75,210c9.1,1.47,18.24.72,27.37.44a5.06,5.06,0,0,0,4.21-2,52.11,52.11,0,0,1,1.45,12l-1.53,0a5.17,5.17,0,0,0,.33-4.74c-.74,2.18-2.39,1.75-3.84,1.75q-12.19,0-24.37,0c-1.5,0-3-.09-4.36.75l0-3Z" transform="translate(443.25 -137.98)"/><path class="cls-73" d="M-405,204.74c-.17,1.27.5,2.7-.74,3.76C-405.58,207.23-406.23,205.8-405,204.74Z" transform="translate(443.25 -137.98)"/><path class="cls-16" d="M-334.52,222.76q0-1.79-.07-3.57c0-3.53,0-7.06,0-10.73.41.24.7.31.73.45a5.89,5.89,0,0,1,.11,1.09c0,5.07.18,5.24,5.24,5.25,9.8,0,19.6,0,29.4,0a11.84,11.84,0,0,0,6.74-1.6c.85,1.69.63,3.51.66,5.31h-7.11c1.2,1.18,2.71.26,3.25,1.58-3.12-.68-4.36.48-3.72,3.67a11.21,11.21,0,0,1-.07,2.55l.06,0c-2.3-.13-1.19-2-1.43-3.05-.31-1.39-.25-2.66-2.31-2.61-2.28.06-2.31,1.34-2.09,3-.65,2.79-2.46,1-3.45.63a164,164,0,0,0-15.88-5.24C-330.89,217.7-330.88,217.65-334.52,222.76Z" transform="translate(443.25 -137.98)"/><path class="cls-9" d="M-292.38,213.69a11.84,11.84,0,0,1-6.74,1.6c-9.8-.09-19.6,0-29.4,0-5.05,0-5.2-.17-5.24-5.25,12.11,0,24.23-.06,36.34.06,2,0,3.3-.5,4.08-2.29.37,1.48-.54,3.19.82,4.49Z" transform="translate(443.25 -137.98)"/><path class="cls-27" d="M-292.56,243.92l-1.46-8.36c-1-1.48-2.47-.59-3.73-.77-.92-.62-.72-1.57-.71-2.46a4.06,4.06,0,0,0,3.52-.65c1.86-1.65-.17-5.91,4-6h0c.21,1.78-.74,3.71.73,5.32a.52.52,0,0,1,0,.58c.19,1.81-.76,3.78.72,5.42a.71.71,0,0,1,0,.69C-293.42,238.3-292.34,241.43-292.56,243.92Z" transform="translate(443.25 -137.98)"/><path class="cls-82" d="M-290.92,225.68c-4.19.09-2.16,4.35-4,6,.77-2.15-.2-4.32.12-6.48-.17-1.58.76-3.33-.76-4.69v.06c-.54-1.32-2-.4-3.25-1.58h7.11A17.62,17.62,0,0,1-290.92,225.68Z" transform="translate(443.25 -137.98)"/><path class="cls-73" d="M-292.51,212.25c-1.36-1.3-.45-3-.82-4.49.4-2,2-1.42,3.25-1.45C-293.94,207-292.14,210.09-292.51,212.25Z" transform="translate(443.25 -137.98)"/><path class="cls-82" d="M-289.48,237c-1.47-1.64-.52-3.6-.72-5.42C-289.28,233.31-289.5,235.17-289.48,237Z" transform="translate(443.25 -137.98)"/><path class="cls-27" d="M-288.75,243c-1.44-1.61-.51-3.53-.71-5.31C-288.53,239.37-288.77,241.2-288.75,243Z" transform="translate(443.25 -137.98)"/><path class="cls-82" d="M-290.23,231c-1.47-1.61-.52-3.54-.73-5.32C-290,227.36-290.27,229.21-290.23,231Z" transform="translate(443.25 -137.98)"/><path class="cls-83" d="M-350.28,265.49c.22-10,.37-19.95-.09-29.92,1.69,1.52.7,3.5.85,5.26.21,2.43-.9,5.41,3.34,5.52,1.1,0,1.41,1.63,1.88,2.62a9.27,9.27,0,0,0,3.74,4.51c.4,2.24,1,4.47.68,6.78a11.4,11.4,0,0,1-5.43-3.66c-1.71-2.08-3-1.69-4,.66q-.08,4.13-.16,8.27Z" transform="translate(443.25 -137.98)"/><path class="cls-78" d="M-373.5,246l-.09-1.25.09-4.75,3.1-.81h0c.2,1.78-.76,3.72.73,5.33l.1,1.43c-1.07,1.94-.29,3.65.68,5.33a10.73,10.73,0,0,1,.69,5.23c-2,.55-2.88-.82-3.73-2.23-.06-.83.11-1.74-.79-2.27a.52.52,0,0,1,0-.59C-373,249.6-372.06,247.65-373.5,246Z" transform="translate(443.25 -137.98)"/><path class="cls-84" d="M-357.63,252.57c.92,2.76.52,5.61.63,8.43-1.72-1-3.26-1-4.52.74l-.63-11.23c.77.62.62,1.51.71,2.33a2.24,2.24,0,0,0,2.24,2C-357.47,255-358,253.47-357.63,252.57Z" transform="translate(443.25 -137.98)"/><path class="cls-81" d="M-350.28,265.49l.77,0c-1.87,1.43-4,.59-6,.64-1.59,0-1.46-1.3-1.41-2.42C-355.4,267-352.53,265.07-350.28,265.49Z" transform="translate(443.25 -137.98)"/><path class="cls-78" d="M-371.31,263.42c-.89-1.72-.71-3.58-.7-5.42C-370.56,259.65-371.47,261.6-371.31,263.42Z" transform="translate(443.25 -137.98)"/><path class="cls-85" d="M-372.77,252c.9.54.73,1.44.79,2.27l-.08,3.12C-373,255.68-372.75,253.82-372.77,252Z" transform="translate(443.25 -137.98)"/><path class="cls-78" d="M-368.2,257.12c.89,1.42.54,3.07.81,4.6C-369,260.42-368,258.67-368.2,257.12Z" transform="translate(443.25 -137.98)"/><path class="cls-78" d="M-380.22,256.46a5.5,5.5,0,0,1,.73,3.8C-380.75,259.18-380.11,257.75-380.22,256.46Z" transform="translate(443.25 -137.98)"/><path class="cls-78" d="M-381,252.71a5.86,5.86,0,0,1,.77,3.78C-381.53,255.45-380.85,254-381,252.71Z" transform="translate(443.25 -137.98)"/><path class="cls-76" d="M-381.72,249a5.92,5.92,0,0,1,.76,3.78c-.93-.49-.76-1.4-.84-2.21Z" transform="translate(443.25 -137.98)"/><path class="cls-82" d="M-406.49,218.25c1.35-.85,2.86-.75,4.36-.75q12.19,0,24.37,0c1.45,0,3.1.43,3.84-1.75a5.17,5.17,0,0,1-.33,4.74l-2.25.76c-1.66-1.26-3.18-1.44-4.38.61l-.88,1.64c-.45-1.48-1-2.71-3-2.32-2.7.53-1,2.53-1.43,3.81a26.55,26.55,0,0,0-9.82,4.52c-2.67-3.39-6.39-1.05-9.55-1.46-1.88-.24-.57,2.57-.92,4-.18.71-.09,1.48-.77,2v-8.25C-406.85,223.26-406.24,220.8-406.49,218.25Z" transform="translate(443.25 -137.98)"/><path class="cls-85" d="M-407.24,234c.68-.5.59-1.27.77-2,.35-1.39-1-4.21.92-4,3.16.41,6.88-1.92,9.55,1.46-.84,2.61,0,5,.76,7.48-2.19,0-4.39.11-6.57,0a6,6,0,0,0-5.44,2.28Q-407.24,236.62-407.24,234Z" transform="translate(443.25 -137.98)"/><path class="cls-75" d="M-395.24,237c-.79-2.44-1.6-4.88-.76-7.48a26.55,26.55,0,0,1,9.82-4.52,21.42,21.42,0,0,1,1.18,4.47c.12,2.6,1.41,3.31,3.71,3l1.84-.7c3.21.55,4.18-.86,3.64-3.91-.38-2.16-.47-4.37-.68-6.56l2.25-.76,1.53,0a59.14,59.14,0,0,1,1.55,12,16,16,0,0,0-6.61,2.14l2.81.14,0,.77c-3.06.11-6.25-.53-9,1.48-1.67-.1-3.1.75-4.63,1.18A6.61,6.61,0,0,1-395.24,237Z" transform="translate(443.25 -137.98)"/><path class="cls-76" d="M-382.5,245.44c1,1,.73,2.32.8,3.55C-383,248-382.33,246.64-382.5,245.44Z" transform="translate(443.25 -137.98)"/><path class="cls-27" d="M-291.82,250c-.9-1.74-.7-3.61-.71-5.46C-291,246.15-292,248.13-291.82,250Z" transform="translate(443.25 -137.98)"/><path class="cls-86" d="M-298.46,232.33c0,.89-.21,1.83.71,2.46q0,.33,0,.66c-2.1.46-5-.43-5.31,3.07a9.72,9.72,0,0,1-2.56-.27c-9.15-3.58-18.57-6.4-28-9.43l-.26,3.86c-1.07-3.25-.65-6.59-.65-9.91,3.64-5.11,3.63-5.06,10.06-3.29a164,164,0,0,1,15.88,5.24c1,.38,2.81,2.17,3.45-.63.45,1.91,1.24,3.81,1.27,5.73,0,2.85,1.37,3.2,3.63,2.63l1.71-.68A1,1,0,0,1-298.46,232.33Z" transform="translate(443.25 -137.98)"/><path class="cls-23" d="M-333.87,232.67l.26-3.86c9.42,3,18.84,5.84,28,9.43a9.72,9.72,0,0,0,2.56.27,10.31,10.31,0,0,1,1.59,6c-.67,1.91-2.58,2.59-3.86,3.89a41.19,41.19,0,0,0-25.09-6.22c-2.12.16-3-.54-2.66-2.7-.18-2.08.83-4.3-.7-6.22A.67.67,0,0,1-333.87,232.67Z" transform="translate(443.25 -137.98)"/><path class="cls-16" d="M-345.71,215.26a10.83,10.83,0,0,1,.79,5.13c-1.38.81-.36,3.69-2.11,3.48-3.49-.41-2.32,1.89-2.44,3.43s0,3,0,4.44a12.62,12.62,0,0,1-9.71-.07c2.64.78,4.06.15,3.72-3a43,43,0,0,1-.09-5.59c0-1.68-.59-2.57-2.39-2.49-2.06.09-1.94,1.43-1.82,2.89.23,2.72.41,5.44.61,8.17l-.82,0c-.33-2,.73-4.15-.74-6,.1-2,.16-4.22-1.53-5.47-2.11-1.56-2.46-3.47-2.23-5.77,4.11,0,8.22-.17,12.31,0,2.74.14,4.81-.37,5.79-3.17l0,0C-346.34,212.73-347,214.19-345.71,215.26Zm-4.56,11c0-1,0-2,0-3,.08-1.63-.4-2.66-2.27-2.56s-1.64,1.49-1.64,2.7c0,2.11.08,4.22.09,6.34,0,1.23.22,2.18,1.79,2.22,1.75.05,2.08-.93,2-2.36C-350.31,228.47-350.28,227.35-350.27,226.23Z" transform="translate(443.25 -137.98)"/><path class="cls-27" d="M-360,231.75l.82,0,0,0a12.62,12.62,0,0,0,9.71.07c2.15.5,4.4,1.74,6.11-.87l-.05,0c.15,1.54-.69,3.24.72,4.59A62.85,62.85,0,0,1-341.14,248c-.05,1.35-.54,2.75.54,3.94l.05,1.49a9.27,9.27,0,0,1-3.74-4.51c-.47-1-.78-2.59-1.88-2.62-4.24-.11-3.13-3.09-3.34-5.52-.15-1.76.84-3.75-.85-5.26l.1,0a8.77,8.77,0,0,0-8.22,0l.09,0-.85-.06c-1.32-.63-2.82-.95-3.73-2.25C-362.76,231.22-361.17,231.9-360,231.75Z" transform="translate(443.25 -137.98)"/><path class="cls-78" d="M-327.52,252.39c-.47-2.46.55-2.61,2.28-2.22a48.29,48.29,0,0,1,8.13,2.81c2.13.9,2,1.88.22,3.08-2.16,1.49-4.27,3-6.39,4.58s-3.33,1.3-3.57-1.52C-327,256.75-327.32,254.4-327.52,252.39Z" transform="translate(443.25 -137.98)"/><path class="cls-9" d="M-346.4,211.39c-1,2.8-3.06,3.31-5.79,3.17-4.09-.21-8.21,0-12.31,0l-.68,0-.13-3.55.09-3.94c.73,2.43,2.27,3.32,4.84,3.05a40.61,40.61,0,0,1,7.4,0c2.7.21,4.84-.27,5.84-3.09C-346.29,208.33-346.43,209.87-346.4,211.39Z" transform="translate(443.25 -137.98)"/><path class="cls-27" d="M-343.39,230.88c-1.71,2.61-4,1.37-6.11.87,0-1.48-.09-3,0-4.44s-1-3.84,2.44-3.43c1.75.2.74-2.67,2.11-3.48l0,0c.16,1.54-.68,3.25.76,4.58A14.05,14.05,0,0,1-343.39,230.88Z" transform="translate(443.25 -137.98)"/><path class="cls-16" d="M-333.78,233.24c1.53,1.93.52,4.14.7,6.22C-334,237.47-333.77,235.34-333.78,233.24Z" transform="translate(443.25 -137.98)"/><path class="cls-23" d="M-302.53,251.32c1.75,1.66,1.44,3.4.19,5.17A11.34,11.34,0,0,0-302.53,251.32Z" transform="translate(443.25 -137.98)"/><path class="cls-16" d="M-344.2,225c-1.44-1.33-.6-3-.76-4.58C-344,221.85-344.23,223.46-344.2,225Z" transform="translate(443.25 -137.98)"/><path class="cls-27" d="M-342.72,235.51c-1.41-1.34-.57-3-.72-4.59C-342.46,232.34-342.75,234-342.72,235.51Z" transform="translate(443.25 -137.98)"/><path class="cls-83" d="M-340.6,252c-1.08-1.19-.59-2.6-.54-3.94A6,6,0,0,1-340.6,252Z" transform="translate(443.25 -137.98)"/><path class="cls-9" d="M-345.71,215.26c-1.31-1.08-.63-2.53-.73-3.84C-345.51,212.57-345.74,213.94-345.71,215.26Z" transform="translate(443.25 -137.98)"/><path class="cls-87" d="M-297.75,235.45q0-.33,0-.66c1.26.18,2.74-.7,3.73.77Z" transform="translate(443.25 -137.98)"/><path class="cls-73" d="M-365.23,207l-.09,3.94c-.42-3-1-5.83-5.19-4.67C-368.6,205.46-366.64,204.28-365.23,207Z" transform="translate(443.25 -137.98)"/><path class="cls-88" d="M-300.24,232.44c-2.26.58-3.6.22-3.63-2.63,0-1.91-.82-3.82-1.27-5.73-.22-1.63-.18-2.91,2.09-3,2.06-.05,2,1.23,2.31,2.61.24,1.07-.87,2.92,1.43,3.05C-300.37,228.54-299.63,230.6-300.24,232.44Z" transform="translate(443.25 -137.98)"/><path class="cls-89" d="M-298.46,232.33a1,1,0,0,0-.07-.58c-.25-1.65.68-3.51-.83-5a11.21,11.21,0,0,0,.07-2.55c-.64-3.19.6-4.35,3.72-3.67v-.06c.2,1.57-.14,3.23.76,4.69-.32,2.15.65,4.33-.12,6.48A4.06,4.06,0,0,1-298.46,232.33Z" transform="translate(443.25 -137.98)"/><path class="cls-87" d="M-299.35,226.81c1.5,1.45.57,3.3.83,5l-1.71.68c.6-1.84-.13-3.9.94-5.66Z" transform="translate(443.25 -137.98)"/><path class="cls-16" d="M-294.82,225.21c-.9-1.46-.57-3.12-.76-4.69C-294.06,221.87-295,223.63-294.82,225.21Z" transform="translate(443.25 -137.98)"/><path class="cls-23" d="M-363,233.25c.91,1.3,2.41,1.62,3.73,2.25.34,2.24-.77,4.65.78,6.75.86,3.39.72,6.86.85,10.31-.33.9.16,2.48-1.59,2.26a2.24,2.24,0,0,1-2.24-2c-.09-.82.06-1.72-.71-2.33l-.17-4.26c-.25-2.58.91-5.3-.7-7.75l0-1.25Z" transform="translate(443.25 -137.98)"/><path class="cls-90" d="M-365.19,214.48l.68,0c-.23,2.3.12,4.2,2.23,5.77,1.69,1.25,1.63,3.47,1.53,5.47-.73,1.29-1,3-3,3A82.8,82.8,0,0,1-365.19,214.48Z" transform="translate(443.25 -137.98)"/><path class="cls-85" d="M-375,234.75l-2.81-.14a16,16,0,0,1,6.61-2.14.53.53,0,0,1,0,.56c.12,1.58-.67,3.29.66,4.71l.12,1.45-3.09.8h-.75l-.08-1.27C-374.39,237.38-373.75,235.92-375,234.75Z" transform="translate(443.25 -137.98)"/><path class="cls-27" d="M-363.79,228.76c2,0,2.32-1.71,3-3,1.48,1.85.42,4,.75,6-1.17.15-2.76-.53-3,1.5l-.09,4C-364.05,234.47-363.79,231.6-363.79,228.76Z" transform="translate(443.25 -137.98)"/><path class="cls-27" d="M-363,238.49c1.62,2.46.46,5.17.7,7.75C-363.3,243.73-363,241.09-363,238.49Z" transform="translate(443.25 -137.98)"/><path class="cls-85" d="M-368.94,251.27c-1-1.68-1.76-3.38-.68-5.33C-368.83,247.65-369,249.47-368.94,251.27Z" transform="translate(443.25 -137.98)"/><path class="cls-85" d="M-369.72,244.51c-1.49-1.6-.53-3.55-.73-5.33C-369.47,240.86-369.76,242.71-369.72,244.51Z" transform="translate(443.25 -137.98)"/><path class="cls-91" d="M-370.52,237.74c-1.33-1.41-.53-3.12-.66-4.71C-370.32,234.52-370.5,236.14-370.52,237.74Z" transform="translate(443.25 -137.98)"/><path class="cls-85" d="M-373.5,246c1.44,1.65.5,3.6.7,5.4C-373.67,249.69-373.5,247.83-373.5,246Z" transform="translate(443.25 -137.98)"/><path class="cls-91" d="M-374.25,240h.75l-.09,4.75C-374.45,243.26-374.25,241.61-374.25,240Z" transform="translate(443.25 -137.98)"/><path class="cls-91" d="M-375,234.75c1.21,1.16.57,2.62.64,4-.73-1-.54-2.12-.68-3.2Z" transform="translate(443.25 -137.98)"/><path class="cls-27" d="M-358.48,235.6a8.77,8.77,0,0,1,8.22,0Z" transform="translate(443.25 -137.98)"/><path class="cls-27" d="M-358.47,242.26c-1.55-2.1-.44-4.51-.78-6.75l.85.06Q-358.44,238.91-358.47,242.26Z" transform="translate(443.25 -137.98)"/><path class="cls-92" d="M-376.5,221.25c.22,2.19.3,4.4.68,6.56.54,3.05-.43,4.46-3.64,3.91l-.83-5.21c0-1.58.29-3.19-.59-4.66C-379.67,219.81-378.16,220-376.5,221.25Z" transform="translate(443.25 -137.98)"/><path class="cls-93" d="M-381.29,232.42c-2.3.35-3.58-.36-3.71-3a21.42,21.42,0,0,0-1.18-4.47c.44-1.28-1.27-3.28,1.43-3.81,2-.39,2.55.84,3,2.32,0,1.81-.31,3.67.7,5.35Z" transform="translate(443.25 -137.98)"/><path class="cls-94" d="M-381.06,228.85c-1-1.68-.66-3.54-.7-5.35l.88-1.64c.87,1.47.56,3.08.59,4.66C-381.16,227.09-380.91,228-381.06,228.85Z" transform="translate(443.25 -137.98)"/><path class="cls-75" d="M-381.06,228.85c.14-.82-.11-1.76.77-2.33l.83,5.21-1.84.7Q-381.18,230.64-381.06,228.85Z" transform="translate(443.25 -137.98)"/><path class="cls-95" d="M-359.18,231.71c-.2-2.72-.38-5.45-.61-8.17-.12-1.46-.24-2.8,1.82-2.89,1.8-.08,2.43.8,2.39,2.49a43,43,0,0,0,.09,5.59c.34,3.11-1.08,3.73-3.72,3Z" transform="translate(443.25 -137.98)"/><path class="cls-93" d="M-350.28,226.23c0,1.12,0,2.24,0,3.36.05,1.43-.27,2.42-2,2.36-1.57,0-1.78-1-1.79-2.22,0-2.11-.08-4.22-.09-6.34,0-1.21-.29-2.6,1.64-2.7s2.35.94,2.27,2.56C-350.32,224.24-350.27,225.24-350.28,226.23Z" transform="translate(443.25 -137.98)"/></svg>