<svg id="图层_1" data-name="图层 1" xmlns="http://www.w3.org/2000/svg" viewBox="0 0 192 192"><defs><style>.cls-1{fill:#dc001b;}</style></defs><title>cloudMusic</title><path class="cls-1" d="M-363,327H-482.25c-.32-.94-1.19-.69-1.87-.87q-26.25-7-33.26-33.24c-.18-.68,0-1.54-.88-1.89V171c1.21-.51.81-1.73,1-2.6,5.6-20.65,22.23-33.4,43.64-33.4h103.72A43.68,43.68,0,0,1-328,165.86c.61,2,.53,4.12,1.75,5.89V291c-1.32.89-1,2.44-1.37,3.66-4.51,15.36-14.45,25.42-29.51,30.58C-359.07,325.91-361.24,325.77-363,327Zm-34.6-117.19a24.52,24.52,0,0,1,10.5,4.9c17.31,13.44,17.81,41,1,56.88a50.22,50.22,0,0,1-68.36.27c-19.51-18-22-47.6-5.65-68.11a51.7,51.7,0,0,1,20.37-15.45c3.74-1.62,5.31-4.41,4.72-8s-2.86-5.4-6.25-6.05c-2.11-.41-3.91.61-5.72,1.4-30.72,13.37-45.89,48.75-34.62,80.68a65,65,0,0,0,78.36,41c30.09-8.35,47.9-34.56,43.22-63.62-3-18.72-17.42-35-35.35-38.35-5.8-1.09-8-3.54-8.5-8.74-.1-1-.36-2-.38-3a6.57,6.57,0,0,1,3.84-6.34A6.66,6.66,0,0,1-393,178c1.1.81,2,1.91,3.08,2.72a6.86,6.86,0,0,0,8.07.5c2.76-1.62,3.77-4.2,3.4-7.35-.29-2.39-1.73-4.09-3.4-5.63a22.39,22.39,0,0,0-26.73-2.7c-8.35,5-11.87,14.08-9.38,24.33,1.21,5,1.21,5-3.51,6.47-15.41,4.94-25.88,17.68-27.31,33.24-2,22.18,18.93,39,39,31.35,13.58-5.18,20.34-19.79,16.39-35.62C-394.61,220.28-396.09,215.28-397.6,209.81Z" transform="translate(518.25 -135)"/><path class="cls-1" d="M-406.64,233.12c.09,8.66-5,14.58-12.06,15.19-7.42.64-14.39-5.25-15.5-13.19-1.65-11.83,7-22.68,19.6-25.7.92-.22,1.74-.26,2,.93C-410.57,218.27-407.59,226-406.64,233.12Z" transform="translate(518.25 -135)"/></svg>