<svg id="图层_1" data-name="图层 1" xmlns="http://www.w3.org/2000/svg" viewBox="0 0 148.44 154.05"><defs><style>.cls-1{fill:#bbc4cb;}.cls-2{fill:#5f707b;}.cls-3{fill:#8adbfe;}.cls-4{fill:#9ad9f4;}.cls-5{fill:#2496da;}.cls-6{fill:#2596da;}.cls-7{fill:#2495da;}.cls-8{fill:#72838e;}.cls-9{fill:#55bbf2;}.cls-10{fill:#7dcef5;}.cls-11{fill:#77c9f3;}.cls-12{fill:#98bccb;}.cls-13{fill:#5dbdf1;}.cls-14{fill:#61bff1;}.cls-15{fill:#8dd0f0;}.cls-16{fill:#4e575d;}.cls-17{fill:#62bfee;}.cls-18{fill:#72c6f1;}.cls-19{fill:#86cef0;}.cls-20{fill:#4bb2ee;}.cls-21{fill:#636b70;}.cls-22{fill:#4bb3ef;}.cls-23{fill:#8fb7cb;}.cls-24{fill:#7bcbf2;}.cls-25{fill:#f6f6f6;}.cls-26{fill:#56baf1;}.cls-27{fill:#93b9cb;}.cls-28{fill:#98d8f4;}.cls-29{fill:#f0f0f0;}.cls-30{fill:#a9b2b9;}.cls-31{fill:#56a9d7;}.cls-32{fill:#5c6368;}.cls-33{fill:#5bbbf0;}.cls-34{fill:#a3a9ae;}.cls-35{fill:#b6e5fa;}.cls-36{fill:#ebeef0;}.cls-37{fill:#aaafb4;}.cls-38{fill:#a7adb2;}.cls-39{fill:#b0e3f8;}.cls-40{fill:#a9abad;}.cls-41{fill:#b0b5ba;}.cls-42{fill:#afb5bb;}.cls-43{fill:#abb4bb;}.cls-44{fill:#a7e1fa;}.cls-45{fill:#9ebbc7;}.cls-46{fill:#b6c2c7;}.cls-47{fill:#a8aeb3;}.cls-48{fill:#52befd;}.cls-49{fill:#b2babf;}.cls-50{fill:#adb7be;}.cls-51{fill:#b6bcc0;}.cls-52{fill:#9cd7fc;}.cls-53{fill:#bcc0c2;}.cls-54{fill:#55bffc;}.cls-55{fill:#a8b5be;}.cls-56{fill:#76c0ef;}.cls-57{fill:#63b4e8;}.cls-58{fill:#45b2f4;}.cls-59{fill:#c1cbd2;}.cls-60{fill:#b9bec1;}.cls-61{fill:#50bafa;}.cls-62{fill:#6bb9eb;}.cls-63{fill:#44b3f7;}.cls-64{fill:#41b1f4;}.cls-65{fill:#656b70;}.cls-66{fill:#4bbafd;}.cls-67{fill:#a8ddfe;}.cls-68{fill:#b1dffd;}.cls-69{fill:#bbc5cc;}.cls-70{fill:#86cefa;}.cls-71{fill:#68c5fc;}.cls-72{fill:#9ed4f5;}.cls-73{fill:#8ad1fc;}.cls-74{fill:#6ab9eb;}.cls-75{fill:#bac4cb;}.cls-76{fill:#79beeb;}.cls-77{fill:#82c9f5;}.cls-78{fill:#acb7c0;}.cls-79{fill:#88999f;}.cls-80{fill:#879aa2;}.cls-81{fill:#8199a3;}.cls-82{fill:#909fa5;}.cls-83{fill:#75c0ee;}.cls-84{fill:#84979f;}.cls-85{fill:#899aa0;}.cls-86{fill:#879aa1;}.cls-87{fill:#91a7b2;}.cls-88{fill:#788b91;}.cls-89{fill:#798c92;}.cls-90{fill:#565b5e;}.cls-91{fill:#919fa5;}.cls-92{fill:#708389;}.cls-93{fill:#85949d;}.cls-94{fill:#57bffb;}.cls-95{fill:#4b565d;}.cls-96{fill:#86d5fa;}.cls-97{fill:#7fd1f9;}.cls-98{fill:#caedfc;}.cls-99{fill:#cbedfc;}.cls-100{fill:#86d6fa;}.cls-101{fill:#78d0fc;}.cls-102{fill:#73cefc;}.cls-103{fill:#83d5fb;}.cls-104{fill:#7cd2fc;}.cls-105{fill:#c4ced5;}.cls-106{fill:#73c9f6;}.cls-107{fill:#6fc9f7;}.cls-108{fill:#6ac5f7;}.cls-109{fill:#b0e5fd;}.cls-110{fill:#b5e7fd;}.cls-111{fill:#b3e5fd;}.cls-112{fill:#bee9fc;}.cls-113{fill:#94d7f4;}.cls-114{fill:#77caf6;}.cls-115{fill:#84d5fa;}.cls-116{fill:#71c6f5;}.cls-117{fill:#7bd1fc;}.cls-118{fill:#82d5fc;}.cls-119{fill:#4bbafa;}.cls-120{fill:#40b1f7;}.cls-121{fill:#4bb9f9;}.cls-122{fill:#5fc4fc;}.cls-123{fill:#64c5fa;}.cls-124{fill:#5dc3fd;}.cls-125{fill:#50bcfa;}.cls-126{fill:#6ccafc;}.cls-127{fill:#78d0fb;}.cls-128{fill:#70ccfb;}.cls-129{fill:#73cdfb;}.cls-130{fill:#83d0f4;}.cls-131{fill:#8bd2f4;}.cls-132{fill:#88d2f4;}.cls-133{fill:#69c8fc;}.cls-134{fill:#67c7fa;}.cls-135{fill:#53bffa;}.cls-136{fill:#4ab9f9;}.cls-137{fill:#8ed5f4;}.cls-138{fill:#4ebcfd;}.cls-139{fill:#67b8ea;}.cls-140{fill:#c1c6c9;}.cls-141{fill:#6fbbed;}.cls-142{fill:#63b5e9;}.cls-143{fill:#8ad0fc;}.cls-144{fill:#8fd2fc;}.cls-145{fill:#85cefc;}.cls-146{fill:#97d4fc;}.cls-147{fill:#93d3fb;}.cls-148{fill:#80ccfc;}.cls-149{fill:#a0d5f8;}.cls-150{fill:#86cef9;}.cls-151{fill:#8eccf4;}.cls-152{fill:#9bd5f9;}.cls-153{fill:#60b3e7;}.cls-154{fill:#72beee;}.cls-155{fill:#7ac7f7;}.cls-156{fill:#67b7ea;}.cls-157{fill:#abdbfa;}.cls-158{fill:#93c5e5;}.cls-159{fill:#93a3a9;}.cls-160{fill:#b2bcc3;}.cls-161{fill:#708489;}.cls-162{fill:#70bced;}.cls-163{fill:#46b8fd;}.cls-164{fill:#c0ccd3;}.cls-165{fill:#4abafd;}.cls-166{fill:#94d5fe;}.cls-167{fill:#99d7fe;}.cls-168{fill:#9cd8fe;}.cls-169{fill:#7cc3f1;}.cls-170{fill:#83c6f2;}.cls-171{fill:#b8e2fe;}.cls-172{fill:#bfcad1;}.cls-173{fill:#90c5e7;}.cls-174{fill:#73bae5;}.cls-175{fill:#7dcafa;}.cls-176{fill:#83cefd;}.cls-177{fill:#80d4fb;}.cls-178{fill:#7bd1fb;}.cls-179{fill:#70ccfc;}.cls-180{fill:#80d4fc;}.cls-181{fill:#c2e6fd;}.cls-182{fill:#91b1c3;}.cls-183{fill:#93beda;}.cls-184{fill:#8ba9b9;}.cls-185{fill:#b2bac1;}.cls-186{fill:#a3cbe3;}.cls-187{fill:#8dc0e0;}.cls-188{fill:#b7d7eb;}.cls-189{fill:#b0d2e7;}.cls-190{fill:#7d8f95;}.cls-191{fill:#87a0ab;}.cls-192{fill:#91a1a7;}.cls-193{fill:#809398;}.cls-194{fill:#63c6fc;}.cls-195{fill:#66c7fc;}.cls-196{fill:#88ccf9;}.cls-197{fill:#85cbf9;}.cls-198{fill:#8ecffa;}.cls-199{fill:#7fc9f8;}.cls-200{fill:#88c9f3;}.cls-201{fill:#b7e1fc;}.cls-202{fill:#aad8f6;}.cls-203{fill:#b0ddfb;}.cls-204{fill:#72bdee;}.cls-205{fill:#9dd8fd;}.cls-206{fill:#a1d9fd;}.cls-207{fill:#77c1f0;}.cls-208{fill:#7dc3f1;}.cls-209{fill:#80cbfb;}.cls-210{fill:#86cdfb;}.cls-211{fill:#a0d9fe;}.cls-212{fill:#a4d0ed;}.cls-213{fill:#8cd2fc;}.cls-214{fill:#91d3fd;}.cls-215{fill:#a6dcfe;}.cls-216{fill:#acdefe;}.cls-217{fill:#93cef5;}.cls-218{fill:#8dcbf4;}.cls-219{fill:#7f9297;}.cls-220{fill:#95a9b3;}.cls-221{fill:#b2e0fe;}.cls-222{fill:#b0defc;}.cls-223{fill:#b7e2fe;}.cls-224{fill:#bce4fe;}.cls-225{fill:#bce3fc;}.cls-226{fill:#9ed3f6;}.cls-227{fill:#a5d6f6;}.cls-228{fill:#99d1f5;}.cls-229{fill:#abddfd;}.cls-230{fill:#97d5fd;}.cls-231{fill:#86d0fd;}.cls-232{fill:#a5dbfd;}</style></defs><title>imageres.dll(8)</title><path class="cls-1" d="M-227,299.23A4.15,4.15,0,0,1-225.7,302c.37,1.5.05,3.36,2.11,4-.49,2.5,2,4.35,1.52,6.84-1,3.77-1.3,7.54.16,11.28a30.59,30.59,0,0,1-3.19,12c-1.75,1-2,2.93-2.88,4.44l-2.24,3c0,.86-1.93,1.23-.61,2.42l-.82.57c-2.16,1.65-4.5,3.13-5.33,6l-1.35.81c-1.67.18-3.2.59-3.87,2.39l-5.33,3.55a3.64,3.64,0,0,0-.7.08l-6.81,2.14c-1.27.14-2.64-.26-3.74.72a1.58,1.58,0,0,0-.65.05l-6.1.09a2.45,2.45,0,0,0-.69,0H-267l-5.2-.69-5.22-1-6.83-2.86-.63-.08c-1.08-1.69-3.11-1.95-4.59-3-.58-1.16-1.82-1.48-2.77-2.18l-1.83-1.45-.75-1.39c.25-1.39-1-2.07-1.45-3.14a2.6,2.6,0,0,0,1.54-1.56l3,2.33c.65.74.8,2.34,2.43,1.45l1.32.81a2.47,2.47,0,0,0,2.3,1.53l.72.62,1.38,1.51a7.91,7.91,0,0,0,4.67,2.28l3.66,1.45c1.5.32,2.91,1.1,4.52.81.55.89,1.43.76,2.27.73H-261c1.07,0,2.14.1,2.31-1.37a1.9,1.9,0,0,0,2.17-.17c1.82.18,3.63.32,5.28-.72,1.28-.76,3.22-.46,3.77-2.38l.7-1.24.84-.74a12.12,12.12,0,0,0,5.14-2.35c4-1.37,5.67-4.84,7.54-8.16A2.19,2.19,0,0,0-231,339l1.54-3.77.7-.69,0-1.53c1.74-1.39,2.55-3,1.48-5.23,1.28-.77,2.18-1.64.76-3.08v-1.47c1.56-2.11.49-4.5.74-6.75-.16-1.54.55-3.22-.75-4.56-.06-1,.32-2.16-.66-3,.17-3.4-2-5.73-3.82-8.19-.23-2.59-2.66-3.85-3.62-6-.76-2.46-2.76-3.83-4.66-5.28l-1.54-.78c-1.46-2-4.59-1.41-5.9-3.69l1.44-3,.91-.08,3.59,2.3c4.55,2.9,9,5.88,11.29,11.1A5.27,5.27,0,0,0-227,299.23Z" transform="translate(369.75 -248.88)"/><path class="cls-2" d="M-325.52,390.6c-3.73,1.66-5.71,5.27-8.69,7.77-1.12.94-2.17,2-3.25,2.93-.53-2.6-2.69-3.81-4.53-5.3v-.76a5.17,5.17,0,0,0,.93-.6q16.1-16.06,32.19-32.15a3.74,3.74,0,0,0,1.43-2.52l6,5.29-14.31,14.86-6.76,6.77C-323.8,387.93-325.39,388.69-325.52,390.6Z" transform="translate(369.75 -248.88)"/><path class="cls-3" d="M-326.95,250.57l2.93-.84,4.59,0c8.42,2.14,16.44,5.42,24.62,8.27,15.51,5.4,31.14,10.5,46.72,15.69,1.42.47,2.89.8,3.66,2.28-2.5.43-5.17-.76-7.56.8a13.25,13.25,0,0,1-2.54-.33c-7.92-2.61-15.81-5.27-23.72-7.92a5.61,5.61,0,0,0-3.09-.8c-.29-1.85-1.51-1.82-2.91-1.46-1.38.2-2.29-1.83-3.84-.8-.3-1.83-1.52-1.82-2.92-1.45l-1.57,0c-.3-1.83-1.52-1.83-2.92-1.46l-3.9-1.18c-9-2.73-17.68-6.38-26.84-8.57h0Z" transform="translate(369.75 -248.88)"/><path class="cls-3" d="M-365.17,263.33c4.42-2.71,8.88-1.49,13.34-.12l6.82,2.3,33,11.23,12,3.76c3.12,1.61,6.83,1.76,9.76,3.86l-1.55,2.09-3,2.31a3.59,3.59,0,0,0-3.76-2.25,26,26,0,0,0-9-3c-.55-.88-1.45-.73-2.28-.78-.63-1.76-2.53-1.39-3.72-2.22l-5.26-1.49-4.5-1.53-3.74-.75-32.28-10.51c-.53-1.41-1.71-1.54-3-1.49h0C-362.85,263.53-364.52,264.47-365.17,263.33Z" transform="translate(369.75 -248.88)"/><path class="cls-4" d="M-369,266.14c0-1.48,1-2,2.26-2.16,1.31,1.38,3,.52,4.51.76h0q0,.36,0,.73c-2.1,1-1.51,3-1.51,4.62q0,25.46,0,50.91c-1.85,1.1-3.05,3.09-5.22,3.74Z" transform="translate(369.75 -248.88)"/><path class="cls-3" d="M-338.24,255.71l4.54,1.65,7.44,2.14,35.26,12c5.76,1.88,11.62,3.45,17.17,5.92l-2.92.86-.77.64c-1.51.3-3.21-.4-4.55.83-4-3-9.26-2.66-13.42-5.21l-11.26-3.76c-11.31-3.8-22.63-7.59-33.92-11.45a3.15,3.15,0,0,0-2.82.17c.05-2.13-2.35-1-3-2.23l4.46-1.55Z" transform="translate(369.75 -248.88)"/><path class="cls-5" d="M-284.25,357.78l6.83,2.86q0,6.05-.07,12.11,0,4.5,0,9V390l.06,4.51c-.56,4.82-1.09,5.3-7.6,6.93q.09-.83.17-1.65l.56-.84Z" transform="translate(369.75 -248.88)"/><path class="cls-6" d="M-247.53,359.22l5.33-3.55,1.43-.16.15,24.72v2.27a9.41,9.41,0,0,1-1.21,4.4c-2.3,1-4.48,2.33-7.12,2.23.23-1,2.3-1.55.79-3,0-.18,0-.36-.07-.53.89-.55.82-1.45.82-2.3Q-247.47,371.26-247.53,359.22Z" transform="translate(369.75 -248.88)"/><path class="cls-7" d="M-265.54,362.31l6.1-.09q0,12.74,0,25.48l.1.85-.3,3.63c-2,2-4.74,2.61-7.39,3.27l.87-2.41a1.58,1.58,0,0,0,.6-1.6Z" transform="translate(369.75 -248.88)"/><path class="cls-8" d="M-345.78,391.4l5.21-5.83a8.78,8.78,0,0,0,3.16-3,15.12,15.12,0,0,0,3.73-3.74c7.73-7.27,15.25-14.75,22.49-22.51a4.24,4.24,0,0,1,.67,0l1.56,2.21c-2.49.36-3.61,2.53-5.14,4.06-10.1,10.11-20.12,20.31-30.16,30.48l-.72,0Z" transform="translate(369.75 -248.88)"/><path class="cls-9" d="M-284.86,399.79l-.17,1.65a7.09,7.09,0,0,1-6.72.52c-5-1.77-10-3.43-15-5.14.66-1.21,1.86-2.21,1.54-3.82l6,2.25Z" transform="translate(369.75 -248.88)"/><path class="cls-10" d="M-363.72,377.89c-2.63-1.18-4.62-2.92-5.27-5.87l.05-.06c3.39-1.35,5.54-3.53,5.21-7.51-.14-1.73,0-3.47,0-5.21q0-4.12,0-8.25v-8.25h.75q0,3.75,0,7.5,0,4.5,0,9c.37,3.49-.83,7.09.74,10.5l1.51,3.75C-360.38,375.88-362.33,376.7-363.72,377.89Z" transform="translate(369.75 -248.88)"/><path class="cls-11" d="M-348.63,383l-10.59-3.63,2.21-3.63a5.14,5.14,0,0,0,3,.75c1.8,1.29,3.94,1.64,6,2.25.54.88,1.43.72,2.25.75C-345.76,381.45-347.47,382-348.63,383Z" transform="translate(369.75 -248.88)"/><path class="cls-12" d="M-369,266.14q0,29.3,0,58.59l-.06,1.51h-.61q-.06-28.86-.11-57.72C-369.75,267.67-369.84,266.76-369,266.14Z" transform="translate(369.75 -248.88)"/><path class="cls-13" d="M-305.25,393c.32,1.61-.88,2.6-1.54,3.82a37.56,37.56,0,0,1-9-3c-1-1.29-.16-2.56,0-3.84,3.53.09,6.35,2.5,9.75,3Z" transform="translate(369.75 -248.88)"/><path class="cls-14" d="M-315.75,390c-.18,1.28-1,2.55,0,3.84a45.18,45.18,0,0,1-9.75-3.24c.13-1.92,1.72-2.67,3-3.71a14,14,0,0,0,6.81,2.36Z" transform="translate(369.75 -248.88)"/><path class="cls-15" d="M-345,265.5l-6.82-2.3c.57-2,.78-4.22,3.08-5.2.87,1.42,2.89.05,3.74,1.53q0,1.48,0,3Z" transform="translate(369.75 -248.88)"/><path class="cls-16" d="M-342,396c1.84,1.49,4,2.7,4.53,5.3-2.78,2.16-5.53,2.21-8.26-.1Z" transform="translate(369.75 -248.88)"/><path class="cls-17" d="M-252,276.76c2.38-1.56,5.05-.37,7.56-.8,1.67.67,2.38,2.11,3,3.65-1.06,1.47-2.68.64-4,1a15.83,15.83,0,0,1-6.5-3.17Q-252,277.09-252,276.76Z" transform="translate(369.75 -248.88)"/><path class="cls-18" d="M-348.63,383c1.16-1,2.86-1.57,2.88-3.51l8.34,3a8.78,8.78,0,0,1-3.16,3Z" transform="translate(369.75 -248.88)"/><path class="cls-19" d="M-326.26,259.5l-7.44-2.14c1.22-1.33.41-3.6,2.18-4.67,1.18,2.07,3.3,2,5.26,2.3v4.51Z" transform="translate(369.75 -248.88)"/><path class="cls-20" d="M-277.44,394.51l-.06-4.51,6,2.24.07,3.62-.09.18Z" transform="translate(369.75 -248.88)"/><path class="cls-21" d="M-342,396l-3.73,5.2a4,4,0,0,1-2.14-3.74c1.68-1,1.92-3,2.89-4.49l.72,0a4.93,4.93,0,0,0,2.26,2.23Z" transform="translate(369.75 -248.88)"/><path class="cls-22" d="M-259.34,388.55l-.11-.85c.53-3.57,2.69-3.31,5.2-2.2h.75l.75.75c-1.15.84-.4,3.5-2.91,3l-3-.62A1.91,1.91,0,0,0-259.34,388.55Z" transform="translate(369.75 -248.88)"/><path class="cls-23" d="M-369,372c-.83-.61-.76-1.51-.76-2.37q0-11.57.11-23.14h.61l.05,8.24v7.51l0,9.71Z" transform="translate(369.75 -248.88)"/><path class="cls-24" d="M-357,375.76l-2.21,3.63a9.93,9.93,0,0,1-4.5-1.5c1.39-1.19,3.33-2,3-4.4l2.25,1.5Z" transform="translate(369.75 -248.88)"/><path class="cls-25" d="M-240.63,382.52v-2.27l7.67,2.48c-.6,1.8-1.85,2.07-3.29,2C-237.32,383.25-239.26,383.45-240.63,382.52Z" transform="translate(369.75 -248.88)"/><path class="cls-26" d="M-255.66,389.27c2.51.48,1.76-2.18,2.91-3,1.53,0,3.11,1.79,4.58-.13,1.52,1.47-.56,2-.79,3A6.37,6.37,0,0,1-255.66,389.27Z" transform="translate(369.75 -248.88)"/><path class="cls-27" d="M-369,346.5h-.61q0-10.12,0-20.25h.61q0,4.87.06,9.75t0,9.74Z" transform="translate(369.75 -248.88)"/><path class="cls-28" d="M-326.26,255c-2-.3-4.08-.23-5.26-2.3a3.83,3.83,0,0,1,3-1.34c.13,1.47,1.22,1.4,2.26,1.4h0Q-326.24,253.87-326.26,255Z" transform="translate(369.75 -248.88)"/><path class="cls-29" d="M-240.63,382.52c1.36.94,3.31.73,4.38,2.24-1.63,1.31-3.71,1.48-5.59,2.16A9.42,9.42,0,0,0-240.63,382.52Z" transform="translate(369.75 -248.88)"/><path class="cls-30" d="M-221.91,324.09c-1.46-3.74-1.15-7.5-.16-11.28.13,1.27,1,2.41.68,3.76a6.44,6.44,0,0,0,0,5.84A1.72,1.72,0,0,1-221.91,324.09Z" transform="translate(369.75 -248.88)"/><path class="cls-31" d="M-245.47,280.58c1.34-.33,3,.5,4-1,1.22,1.39.56,3.07.71,4.62l-3.6-2.3Z" transform="translate(369.75 -248.88)"/><path class="cls-32" d="M-345,393c-1,1.5-1.2,3.46-2.89,4.49-.39-2.4-.16-4.58,2.09-6.07Z" transform="translate(369.75 -248.88)"/><path class="cls-33" d="M-266.17,393l-.87,2.41c-1.44.64-2.81,1.74-4.49.59l.09-.18c2-.11,2.71-2.27,4.42-2.86Z" transform="translate(369.75 -248.88)"/><path class="cls-34" d="M-237,352.47c.83-2.84,3.17-4.32,5.33-6C-232.57,349.26-234.89,350.77-237,352.47Z" transform="translate(369.75 -248.88)"/><path class="cls-35" d="M-345,259.54c-.85-1.48-2.86-.11-3.74-1.53.55-.9,1.42-.77,2.27-.74.61,1.24,3,.1,3,2.23Z" transform="translate(369.75 -248.88)"/><path class="cls-36" d="M-259.34,388.55a1.91,1.91,0,0,1,.67.1c.55,1.42,3.39,3.47-1,3.53Z" transform="translate(369.75 -248.88)"/><path class="cls-37" d="M-230.22,343.51l2.24-3h.76a7.92,7.92,0,0,1-2.25,3.8Z" transform="translate(369.75 -248.88)"/><path class="cls-38" d="M-227.22,340.51H-228c.92-1.5,1.13-3.47,2.88-4.44A7,7,0,0,1-227.22,340.51Z" transform="translate(369.75 -248.88)"/><path class="cls-39" d="M-362.24,264.75c-1.51-.24-3.2.61-4.51-.76a1.47,1.47,0,0,1,1.58-.66C-364.52,264.47-362.85,263.53-362.24,264.75Z" transform="translate(369.75 -248.88)"/><path class="cls-40" d="M-221.43,322.41a6.44,6.44,0,0,1,0-5.84Q-221.41,319.49-221.43,322.41Z" transform="translate(369.75 -248.88)"/><path class="cls-41" d="M-223.59,306c-2.06-.6-1.74-2.46-2.11-4A5.29,5.29,0,0,1-223.59,306Z" transform="translate(369.75 -248.88)"/><path class="cls-42" d="M-227,299.23a5.27,5.27,0,0,1-2.44-3.9C-227.53,295.93-227.25,297.56-227,299.23Z" transform="translate(369.75 -248.88)"/><path class="cls-43" d="M-240.77,355.52l-1.43.16c.67-1.8,2.2-2.21,3.87-2.39Z" transform="translate(369.75 -248.88)"/><path class="cls-44" d="M-326.25,252.75c-1,0-2.13.06-2.26-1.4l1.56-.78Z" transform="translate(369.75 -248.88)"/><path class="cls-45" d="M-319.43,249.72l-4.59,0A3.53,3.53,0,0,1-319.43,249.72Z" transform="translate(369.75 -248.88)"/><path class="cls-46" d="M-338.24,255.71l-3.77,0A2.58,2.58,0,0,1-338.24,255.71Z" transform="translate(369.75 -248.88)"/><path class="cls-47" d="M-230.22,343.51l.75.8-1.36,1.62C-232.15,344.74-230.22,344.37-230.22,343.51Z" transform="translate(369.75 -248.88)"/><path class="cls-48" d="M-289.46,354.67c1.48,1.09,3.5,1.35,4.59,3q-.11,1.9-.21,3.81c-.47.15-1.06.16-1.38.46-6.92,6.42-13.26,13.39-19.65,20.33a3.32,3.32,0,0,0-.63,2.45,5.05,5.05,0,0,0-3-.75c-1-1.2-2.91-.81-3.75-2.25,5.54-8.64,13.35-15.19,20.5-22.36A13.41,13.41,0,0,0-289.46,354.67Z" transform="translate(369.75 -248.88)"/><path class="cls-49" d="M-227.17,308.94c1,.82.61,2,.66,3l.06,4.54-.08.81c-.87.53-.68,1.41-.72,2.22-2.09-1.52-3.68-.91-5.67.62-2.48,1.9-4.5,4.57-7.75,5.39q-.07-3-.15-6l.14-3c1.88-.41,3.13-1.86,4.68-2.81C-233.15,312-231.23,308.44-227.17,308.94Z" transform="translate(369.75 -248.88)"/><path class="cls-50" d="M-227.17,308.94c-4.06-.5-6,3-8.83,4.75-1.55.95-2.8,2.39-4.68,2.81q-.07-2.63-.13-5.25l.13-5.25c1.73.25,2.57-1.24,3.83-1.89,2-1,2.7-4.43,5.87-3.37C-229.15,303.22-227,305.54-227.17,308.94Z" transform="translate(369.75 -248.88)"/><path class="cls-51" d="M-240.67,325.5c3.25-.82,5.27-3.49,7.75-5.39,2-1.53,3.58-2.13,5.67-.62q0,1.13,0,2.26l.75,1.49v1.47c-1.07.83-.67,2-.76,3.08,1.07,2.19.25,3.84-1.48,5.23-1-2.47-1.71-5-.63-8.15-4.73,2-6.93,6.34-11.3,7.38q-.08-2.25-.16-4.5Z" transform="translate(369.75 -248.88)"/><path class="cls-52" d="M-246.78,352.58l-.7,1.24-.75,0-.06-2.87V330q0-7.88,0-15.76,0-6.38,0-12.75,0-3,0-6c0-1.49,0-3,0-4.46,0-1.88-.33-2.56-2.3-1.21-2.38,1.63-5.65-1.42-8,1.2l-.93-1.54c-.54-.88-1.43-.72-2.25-.75,3.53-1.17,5.83-5.76,10.5-3.74a4.36,4.36,0,0,0,3.75,1.5,5.84,5.84,0,0,1,0,.7v6.09q0,27.5,0,55C-247.47,349.73-247.93,351.3-246.78,352.58Z" transform="translate(369.75 -248.88)"/><path class="cls-53" d="M-233.27,341.33c-1.86,3.32-3.57,6.79-7.54,8.16q0-1.86,0-3.72,0-4.9,0-9.79l.19.06c3.46-1.2,5.54-4.72,9.37-5.83-.23,3-1.8,5.19-2.83,7.55-1.2,2.75.58,1.58,1.69,1.28Z" transform="translate(369.75 -248.88)"/><path class="cls-54" d="M-289.46,354.67a13.41,13.41,0,0,1-3.54,4.72c-7.15,7.17-15,13.72-20.5,22.36-1.18,0-2.22-.1-2.3-1.62l14.31-14.86c1.18-.9.25-1.59-.24-2.32,2.05-3.93,6.1-6.08,8.59-9.63l.91-.84C-291.28,353.18-290,353.51-289.46,354.67Z" transform="translate(369.75 -248.88)"/><path class="cls-55" d="M-231,300.75c-3.17-1.07-3.84,2.34-5.87,3.37-1.26.64-2.1,2.13-3.83,1.89q-.06-2.25-.12-4.5V294l-.1-3.74.09-1.56,1.54.78c.59,2.61,2.67,3.91,4.66,5.28C-233.65,296.91-231.22,298.16-231,300.75Z" transform="translate(369.75 -248.88)"/><path class="cls-56" d="M-240.9,290.26q0,1.87.1,3.74c-5.58,1.93-6,2.62-5.94,10.5v26.25q0,4.12,0,8.25V349.5c0,.87-.08,1.77.8,2.34l-.84.74c-1.15-1.28-.69-2.85-.69-4.3q0-27.5,0-55c1.37-1.61.44-3.53.74-5.29C-244.49,288-243.23,290.51-240.9,290.26Z" transform="translate(369.75 -248.88)"/><path class="cls-57" d="M-256.53,356.92a1.9,1.9,0,0,1-2.17.17c-.84-.06-1.69-.18-2.33.58l-4.5-.13q.05-5.89.11-11.78c2.62.27,3.69-2.51,5.92-3,.47,4.48-.94,9.07.76,13.49l2.26,0Q-256.51,356.6-256.53,356.92Z" transform="translate(369.75 -248.88)"/><path class="cls-58" d="M-253.5,385.5h-.75c0-2.75,0-5.5,0-8.25,0-1.57-.63-2.56-2.19-2.18-2.37.56-2.36-.73-2.34-2.4.05-3.5,0-7,0-10.5,1.1-1,2.47-.58,3.74-.72,1.48.21,1.56,1.28,1.55,2.44,0,2,0,3.9,0,5.86Q-253.5,377.63-253.5,385.5Z" transform="translate(369.75 -248.88)"/><path class="cls-59" d="M-276.75,278.27l2.92-.86,6.14-.78,2.9.11c2.11,1.51,4.53.43,6.78.78l12.75,4.5-1.45,3h-.11l-.28-.51-.34.46-.15.11-1.48-.76c-3.62-3.38-8.06-3.43-12.6-3.09-1.84-1.58-4.1-.33-6.1-.9.66-.68,2-1.16,1.62-2.2-.49-1.25-1.93-.57-2.93-.58C-271.65,277.53-274,279.52-276.75,278.27Z" transform="translate(369.75 -248.88)"/><path class="cls-60" d="M-232.41,339c-1.11.29-2.9,1.46-1.69-1.28,1-2.36,2.61-4.51,2.83-7.55-3.83,1.11-5.91,4.63-9.37,5.83q0-1.89,0-3.78c4.37-1,6.57-5.4,11.3-7.38-1.08,3.16-.4,5.68.63,8.15l0,1.53-.7.69L-231,339Z" transform="translate(369.75 -248.88)"/><path class="cls-61" d="M-253.5,369.75c0-2,0-3.9,0-5.86,0-1.17-.07-2.24-1.55-2.44l6.81-2.14q0,6.73-.06,13.45c-2.59,1.12-5,1.91-4.74-2.48C-253,370.11-253.34,369.93-253.5,369.75Z" transform="translate(369.75 -248.88)"/><path class="cls-62" d="M-283.6,353.2l-1.38-1.51c1.56-2.86.3-6,.8-8.93,1.26,0,1.91-1.12,2.94-1.49.87-.32,1.46-1.74,2.56-1,.77.54.41,1.62.41,2.47,0,3.49,0,7,0,10.48h0c-1.19-.59-2.39-1.17-3.57-1.77s-1.57-.11-1.69,1A3.88,3.88,0,0,1-283.6,353.2Z" transform="translate(369.75 -248.88)"/><path class="cls-63" d="M-277.49,372.75q0-6.05.07-12.11l5.22,1c1.32,2.61.44,5.4.7,8.1V378c-1.34-1.34-.75-3-.7-4.55.1-3.13-1.15-3.41-3.48-2C-276.31,371.88-276.89,372.33-277.49,372.75Z" transform="translate(369.75 -248.88)"/><path class="cls-64" d="M-258.78,362.17c0,3.5.07,7,0,10.5,0,1.67,0,3,2.34,2.4,1.56-.37,2.22.62,2.19,2.18-.05,2.75,0,5.5,0,8.25-2.51-1.1-4.67-1.37-5.2,2.2q0-12.74,0-25.48A1.58,1.58,0,0,1-258.78,362.17Z" transform="translate(369.75 -248.88)"/><path class="cls-65" d="M-293.14,353.32c-2.48,3.55-6.53,5.7-8.58,9.63-.62-1.76-2.73-2.1-3.53-3.69a59.83,59.83,0,0,0,9-9l1.42-.65.75,1.39C-295.32,352.42-293.92,352.75-293.14,353.32Z" transform="translate(369.75 -248.88)"/><path class="cls-66" d="M-271.5,369.75c-.26-2.7.63-5.5-.7-8.1l5.2.69q0,6,0,11.92c-2.49.93-4.23.82-3.75-2.58A1.9,1.9,0,0,0-271.5,369.75Z" transform="translate(369.75 -248.88)"/><path class="cls-67" d="M-285.09,361.51q.11-1.9.21-3.81l.63.08q0,20.58,0,41.16c-1.45-2.36-.29-5-.79-7.45q0-5.24,0-10.49,0-4.5,0-9Z" transform="translate(369.75 -248.88)"/><path class="cls-68" d="M-284.18,342.75c-.5,3,.76,6.07-.8,8.93l-.72-.63c1.41-2.41.41-5,.68-7.56q0-6.38,0-12.75,0-3.37,0-6.74v-4.5q0-1.88,0-3.75V315h.74l.05,3.75V330Z" transform="translate(369.75 -248.88)"/><path class="cls-69" d="M-294.72,344.94a2.6,2.6,0,0,1-1.54,1.56,2.6,2.6,0,0,1-1.49-1.5l-3.75-6a2.26,2.26,0,0,0,2.25-1.51l3,3q0,.35,0,.69c-.15,1.34,1.08,2,1.55,3A6.31,6.31,0,0,0-294.72,344.94Z" transform="translate(369.75 -248.88)"/><path class="cls-70" d="M-285,343.5c-.27,2.52.73,5.14-.68,7.56a2.47,2.47,0,0,1-2.3-1.53c.13-1.32-1.07-2-1.5-3C-288.44,344.88-287.33,343.31-285,343.5Z" transform="translate(369.75 -248.88)"/><path class="cls-71" d="M-267,374.25q0-6,0-11.92h.76c0,8.54,0,17.08,0,25.62,0,1.18-.44,2.5.66,3.5a1.58,1.58,0,0,1-.6,1.6l-.84,0q0-3.75,0-7.51Q-267,379.88-267,374.25Z" transform="translate(369.75 -248.88)"/><path class="cls-72" d="M-265.57,391.44c-1.1-1-.66-2.32-.66-3.5,0-8.54,0-17.08,0-25.62a2.48,2.48,0,0,1,.69,0Q-265.56,376.88-265.57,391.44Z" transform="translate(369.75 -248.88)"/><path class="cls-73" d="M-248.3,372.76q0-6.73.06-13.45a3.68,3.68,0,0,1,.7-.08q.06,12,.11,24.06c0,.86.07,1.76-.82,2.3Q-248.27,379.17-248.3,372.76Z" transform="translate(369.75 -248.88)"/><path class="cls-74" d="M-245.95,351.84c-.88-.57-.8-1.47-.8-2.34,2.46-.47,4-2.45,5.91-3.73q0,1.86,0,3.72A12.13,12.13,0,0,1-245.95,351.84Z" transform="translate(369.75 -248.88)"/><path class="cls-75" d="M-245.26,282l-12.75-4.5,1.56,0,4.48-.07a15.82,15.82,0,0,0,6.5,3.17l1.12,1.35Z" transform="translate(369.75 -248.88)"/><path class="cls-76" d="M-240.9,290.26c-2.34.25-3.59-2.3-5.85-2.26l-.73-.8a5.84,5.84,0,0,0,0-.7l-.08-1.42.15-.11a3.6,3.6,0,0,0,.62.05h.11c1.31,2.28,4.43,1.66,5.9,3.69Q-240.85,289.48-240.9,290.26Z" transform="translate(369.75 -248.88)"/><path class="cls-77" d="M-275.27,356.93l-3.66-1.45.06-.78.63-1.45h.74l.75.75c1.67,1.58,4.32,1.12,5.92,2.85l.09.23C-272.26,357.39-273.71,355.44-275.27,356.93Z" transform="translate(369.75 -248.88)"/><path class="cls-78" d="M-297.75,345a2.6,2.6,0,0,0,1.49,1.5c.44,1.06,1.7,1.75,1.45,3.14l-1.42.65a4.32,4.32,0,0,0-1.56-3.08l-.85-2.17Z" transform="translate(369.75 -248.88)"/><path class="cls-79" d="M-234.61,294.76c-2-1.37-4.07-2.67-4.66-5.28C-237.37,290.94-235.38,292.31-234.61,294.76Z" transform="translate(369.75 -248.88)"/><path class="cls-80" d="M-256.53,356.92q0-.32.06-.64a15.6,15.6,0,0,1,5.21-.86l0,.78C-252.9,357.24-254.72,357.11-256.53,356.92Z" transform="translate(369.75 -248.88)"/><path class="cls-81" d="M-265.54,357.54l4.5.13,0,.8h-7.47l.83-.8,1.39-.17.36.07Z" transform="translate(369.75 -248.88)"/><path class="cls-82" d="M-226.5,323.24l-.75-1.49c1.38-1.31.51-3,.72-4.47l.08-.81.69,0C-226,318.74-224.93,321.14-226.5,323.24Z" transform="translate(369.75 -248.88)"/><path class="cls-83" d="M-289.51,346.51c.44,1,1.63,1.7,1.5,3l-1.33-.81a5.62,5.62,0,0,0-2.42-2.21l0-.76h.75Z" transform="translate(369.75 -248.88)"/><path class="cls-84" d="M-278.87,354.7l-.06.78a7.92,7.92,0,0,1-4.67-2.28,4,4,0,0,0,.09-.74Z" transform="translate(369.75 -248.88)"/><path class="cls-85" d="M-291.77,345.75l0,.76v.75l-3-2.33a6.62,6.62,0,0,1,.09-.74C-293.37,344.14-292.77,345.32-291.77,345.75Z" transform="translate(369.75 -248.88)"/><path class="cls-86" d="M-251.25,356.2l0-.77,3-1.55.75,0C-248,355.74-250,355.45-251.25,356.2Z" transform="translate(369.75 -248.88)"/><path class="cls-87" d="M-267.65,357.67l-.83.8c-.84,0-1.72.16-2.27-.73q0-.33,0-.66l-.09-.23C-269.77,357.14-268.54,356.73-267.65,357.67Z" transform="translate(369.75 -248.88)"/><path class="cls-82" d="M-227.26,327.79c.1-1.07-.31-2.26.76-3.08C-225.08,326.15-226,327-227.26,327.79Z" transform="translate(369.75 -248.88)"/><path class="cls-88" d="M-270.74,357.08q0,.33,0,.66c-1.61.29-3-.49-4.52-.81C-273.71,355.44-272.26,357.39-270.74,357.08Z" transform="translate(369.75 -248.88)"/><path class="cls-89" d="M-225.76,316.49l-.69,0q0-2.27-.06-4.54C-225.21,313.28-225.93,315-225.76,316.49Z" transform="translate(369.75 -248.88)"/><path class="cls-90" d="M-293.14,353.32c-.78-.57-2.18-.9-.92-2.29l1.83,1.45Z" transform="translate(369.75 -248.88)"/><path class="cls-82" d="M-261,358.46l0-.8c.64-.76,1.49-.63,2.33-.58C-258.87,358.56-259.94,358.51-261,358.46Z" transform="translate(369.75 -248.88)"/><path class="cls-91" d="M-232.41,339l1.41,0a2.19,2.19,0,0,1-2.27,2.32Z" transform="translate(369.75 -248.88)"/><path class="cls-85" d="M-291.76,347.27v-.75a5.62,5.62,0,0,1,2.42,2.21C-291,349.6-291.1,348-291.76,347.27Z" transform="translate(369.75 -248.88)"/><path class="cls-92" d="M-229.47,335.24l.7-.69Z" transform="translate(369.75 -248.88)"/><path class="cls-93" d="M-342,395.24a4.93,4.93,0,0,1-2.26-2.23c10-10.17,20.06-20.37,30.16-30.48,1.53-1.53,2.65-3.7,5.14-4.06l1.51,1.51a3.74,3.74,0,0,1-1.43,2.52q-16.1,16.07-32.19,32.15A5.17,5.17,0,0,1-342,395.24Z" transform="translate(369.75 -248.88)"/><path class="cls-94" d="M-315.8,380.13c.08,1.52,1.12,1.67,2.3,1.62.84,1.44,2.77,1.05,3.75,2.25-1.53,2.29-4.9,2.47-6,5.26a14,14,0,0,1-6.81-2.36Z" transform="translate(369.75 -248.88)"/><path class="cls-95" d="M-307.44,360l-1.51-1.51-1.56-2.21c1.32-1.44,2,.34,3,.58l2.27,2.41c.79,1.6,2.91,1.93,3.53,3.69.49.73,1.41,1.42.24,2.32Z" transform="translate(369.75 -248.88)"/><path class="cls-96" d="M-326.26,255q0-1.12,0-2.24c9.16,2.19,17.86,5.84,26.84,8.57l3.9,1.18,2.92,1.46,1.57,0,2.92,1.45c1.55-1,2.46,1,3.84.8a4,4,0,0,0,2.91,1.46,5.62,5.62,0,0,1,3.09.8c-.34,2.06-1.56,1.24-2.77.94-3.33-.82-6.48-2.36-10-2.44-2.12-.67-4.22-1.37-6.35-2-9.68-2.94-19.05-6.83-28.9-9.24Z" transform="translate(369.75 -248.88)"/><path class="cls-97" d="M-291,267c3.51.08,6.66,1.63,10,2.44,1.21.3,2.43,1.12,2.77-.94,7.9,2.65,15.8,5.31,23.72,7.92a13.25,13.25,0,0,0,2.54.33q0,.33,0,.66l-4.48.07c-2.66-1.5-5.56-.47-8.33-.75l-2.9-.11c.18-.74,1.44-.27,1.45-1.3l-9.76-3.07c-3.43-1.24-6.76-2.83-10.5-3h0Z" transform="translate(369.75 -248.88)"/><path class="cls-98" d="M-281.33,267.71a4,4,0,0,1-2.91-1.46C-282.85,265.89-281.62,265.86-281.33,267.71Z" transform="translate(369.75 -248.88)"/><path class="cls-99" d="M-292.57,264l-2.92-1.46C-294.09,262.13-292.87,262.13-292.57,264Z" transform="translate(369.75 -248.88)"/><path class="cls-99" d="M-288.08,265.45-291,264C-289.6,263.63-288.38,263.62-288.08,265.45Z" transform="translate(369.75 -248.88)"/><path class="cls-100" d="M-363,342.75h-.75V333q0-6,0-12,0-25.46,0-50.91c0-1.66-.59-3.6,1.51-4.62l2.94.77L-327,276.75a12.81,12.81,0,0,1-2.05,3.06c-7.91,6.49-14.62,14.21-21.88,21.36-2.14,2.11-3.09,5.34-5.89,7-4.62,2.72-7.37,6.4-6.18,12.09q0,4.87,0,9.75v12.75Z" transform="translate(369.75 -248.88)"/><path class="cls-101" d="M-307.5,283.51a26,26,0,0,1,9,3c-7.25,7.67-14.51,15.33-22.5,22.27-5.24,4.55-10.64,9-15,14.47-3.55-.56-2.42-4.05-3.75-6,3.19-5.22,8.28-8.75,12-13.5,6.68-5.67,13-11.7,19.12-18A3.16,3.16,0,0,0-307.5,283.51Z" transform="translate(369.75 -248.88)"/><path class="cls-102" d="M-336,323.25c4.35-5.49,9.74-9.92,15-14.47,8-6.94,15.25-14.6,22.5-22.27a3.59,3.59,0,0,1,3.76,2.25c-1.14,2.25-4,3.21-4.55,5.88-3,2.68-4,6.59-5.94,9.89-1.7-.86-2.46.61-3.34,1.47q-12.21,11.74-24.36,23.56c-1,.94-2,1.8-3.06,2.7-2-.3-2.36-3-4.5-3Z" transform="translate(369.75 -248.88)"/><path class="cls-103" d="M-363,320.25c-1.19-5.69,1.56-9.37,6.18-12.09,2.8-1.65,3.74-4.88,5.89-7,7.26-7.15,14-14.87,21.88-21.36a12.81,12.81,0,0,0,2.05-3.06l3.74.75.77,1.46c0,1.72-1.44,2.51-2.43,3.57-5,5.3-10.72,9.88-14.84,16a12.74,12.74,0,0,0-2,1.66c-3.73,4.63-8.93,7.77-11.79,13.5C-355,316.67-359.74,318.1-363,320.25Z" transform="translate(369.75 -248.88)"/><path class="cls-104" d="M-307.5,283.51a3.16,3.16,0,0,1-1.13,2.25c-6.1,6.29-12.44,12.32-19.12,18-3.22.89-4.58,4-7,5.86-.91.71-1.61,2.18-3.07.94-1.81-1.54-2.84-.17-4.07.92-3,2.69-5.26,6.3-9.14,8,0-1.73,1.44-2.52,2.45-3.56q10.37-10.62,20.8-21.19a145.49,145.49,0,0,0,13.49-13.45l.76,0c1,1,2.42,1.15,3.72,1.48C-308.95,282.78-308,282.63-307.5,283.51Z" transform="translate(369.75 -248.88)"/><path class="cls-105" d="M-299.3,294.63c.6-2.67,3.41-3.63,4.55-5.88l3-2.31,14.27-7.53.77-.64c2.7,1.25,5.1-.73,7.67-.71,1,0,2.44-.67,2.93.58.41,1-1,1.53-1.62,2.21-2,.37-4.13-.36-6,1a12.1,12.1,0,0,0-8.25,3.64c-2.69,0-4.62,1.15-5.41,3.85-1,0-1.35.58-1.37,1.48l-2.16,1.52c-1.76,1.28-3.63,2.45-4.64,4.5a4.52,4.52,0,0,0-1.48,2.9,4.92,4.92,0,0,0-2.19,3.6c-2,.68-1.9,2.5-2.28,4.07a2.73,2.73,0,0,0,0,.44c-.66,1.49-2.22,2.84-.79,4.69a4.1,4.1,0,0,1,0,.72c-1.38.62-1.51,1.79-1.36,3.09l-.18,5.2-2.91,1.5q0-3.37,0-6.74c1.2-3.87,1.58-7.92,3-11.78C-302.61,300.68-299.89,298.17-299.3,294.63Z" transform="translate(369.75 -248.88)"/><path class="cls-106" d="M-345,265.5v-3c2.11-.91,3.85.49,5.66,1,8.4,2.53,16.52,6,25.08,8a26.23,26.23,0,0,0,9,3L-303,276c-1.88.22-3.55-.57-5.26-1.13-1.87-.61-3.39-.56-3.74,1.87Z" transform="translate(369.75 -248.88)"/><path class="cls-107" d="M-312,276.73c.35-2.43,1.86-2.48,3.74-1.87,1.71.56,3.38,1.35,5.26,1.13a14.45,14.45,0,0,1,7.5,2.25c-1.78.19-4.13-.77-4.5,2.25Z" transform="translate(369.75 -248.88)"/><path class="cls-108" d="M-300,280.5c.37-3,2.72-2.06,4.5-2.25h0c2.91,2.18,6.48,2.21,9.81,3-1.59.92-2.55,2.77-4.55,3.09C-293.17,282.26-296.88,282.11-300,280.5Z" transform="translate(369.75 -248.88)"/><path class="cls-59" d="M-290.24,284.35c2-.32,3-2.16,4.55-3.09a5.38,5.38,0,0,0,.67-.07,3.66,3.66,0,0,0,2.95-1.46c1.34-1.23,3-.53,4.55-.83l-14.27,7.53Z" transform="translate(369.75 -248.88)"/><path class="cls-109" d="M-313.5,281.25l-.76,0-4.5-1.59q0-.34,0-.68l5.26,1.49Q-313.5,280.88-313.5,281.25Z" transform="translate(369.75 -248.88)"/><path class="cls-110" d="M-318.75,279q0,.34,0,.68l-3.73-.74-.77-1.46Z" transform="translate(369.75 -248.88)"/><path class="cls-111" d="M-313.5,281.25q0-.37,0-.74c1.19.83,3.09.46,3.72,2.22C-311.08,282.4-312.46,282.25-313.5,281.25Z" transform="translate(369.75 -248.88)"/><path class="cls-112" d="M-359.28,266.24l-2.94-.77q0-.36,0-.73C-361,264.69-359.81,264.83-359.28,266.24Z" transform="translate(369.75 -248.88)"/><path class="cls-113" d="M-363.75,321q0,6,0,12c-2,.47-3.05,2.74-5.22,3q0-4.87-.06-9.75l.06-1.51C-366.8,324.09-365.6,322.1-363.75,321Z" transform="translate(369.75 -248.88)"/><path class="cls-114" d="M-291,267l4.5,2.25c-1.77.2-4.12-.77-4.5,2.23l-35.26-12q0-1.88,0-3.75c9.85,2.41,19.22,6.3,28.9,9.24C-295.22,265.63-293.12,266.33-291,267Z" transform="translate(369.75 -248.88)"/><path class="cls-115" d="M-314.25,271.5c-8.56-2-16.68-5.44-25.08-8-1.82-.55-3.55-1.94-5.66-1q0-1.48,0-3l1.5,0a3.15,3.15,0,0,1,2.82-.17c11.29,3.86,22.61,7.64,33.92,11.45C-309,273.61-311.77,271.12-314.25,271.5Z" transform="translate(369.75 -248.88)"/><path class="cls-116" d="M-291,271.48c.37-3,2.73-2,4.5-2.23h0c3.3,1.71,6.69,3.07,10.5,3l9.76,3.07c0,1-1.26.56-1.45,1.3l-6.14.78C-279.38,274.93-285.24,273.36-291,271.48Z" transform="translate(369.75 -248.88)"/><path class="cls-117" d="M-282.07,279.74A3.66,3.66,0,0,1-285,281.2c-3.22-1.95-6.89-2.29-10.48-2.95h0A14.45,14.45,0,0,0-303,276l-2.25-1.5c2.11-.16,4.05.63,6,1.17,1.57.43,2.87.5,3.73-1.14C-291.34,277.08-286.06,276.74-282.07,279.74Z" transform="translate(369.75 -248.88)"/><path class="cls-118" d="M-295.5,274.53c-.86,1.65-2.17,1.57-3.73,1.14-2-.54-3.91-1.33-6-1.17a26.23,26.23,0,0,1-9-3c2.49-.38,5.25,2.11,7.5-.73Z" transform="translate(369.75 -248.88)"/><path class="cls-119" d="M-285.08,391.49c.49,2.46-.67,5.09.79,7.45l-.56.84-14.39-4.54c.53-2.9,3.85-3.93,4.5-6.75l1.5.75C-290.32,389.24-288,391.62-285.08,391.49Z" transform="translate(369.75 -248.88)"/><path class="cls-120" d="M-277.49,372.75c.6-.42,1.19-.87,1.81-1.25,2.33-1.45,3.58-1.17,3.48,2,0,1.51-.64,3.21.7,4.55v6q0,.37,0,.75c-1.89-1.21-3.68-2.63-6-3Q-277.49,377.25-277.49,372.75Z" transform="translate(369.75 -248.88)"/><path class="cls-64" d="M-277.49,381.75c2.31.37,4.1,1.79,6,3q0,3.75,0,7.5l-6-2.24Q-277.49,385.88-277.49,381.75Z" transform="translate(369.75 -248.88)"/><path class="cls-121" d="M-248.3,372.76q0,6.42.05,12.83,0,.27.07.54c-1.47,1.92-3.05.09-4.58.13l-.75-.75q0-7.88,0-15.75c.16.18.48.36.47.52C-253.31,374.67-250.89,373.87-248.3,372.76Z" transform="translate(369.75 -248.88)"/><path class="cls-122" d="M-311.19,356.29c-7.23,7.77-14.76,15.24-22.49,22.51.18-2.33-1-3.74-3.07-4.55a5.53,5.53,0,0,1,.65-1.69A324.9,324.9,0,0,1-303,339l2.87,4.5c-4.57,2.61-7.7,6.74-11.09,10.58C-311.77,354.68-312.29,355.58-311.19,356.29Z" transform="translate(369.75 -248.88)"/><path class="cls-123" d="M-336.75,374.25c2.07.81,3.26,2.22,3.07,4.55a15.11,15.11,0,0,1-3.73,3.74l-8.34-3c-.82,0-1.71.13-2.25-.75a10.39,10.39,0,0,1,3.82-3.77c1.44-.79,1.4-1.78.68-3l1.5-.75C-339.22,370.45-339.13,374.36-336.75,374.25Z" transform="translate(369.75 -248.88)"/><path class="cls-124" d="M-311.19,356.29c-1.1-.7-.58-1.61-.05-2.2,3.4-3.84,6.53-8,11.09-10.58l1.52,1.53.85,2.17-9.74,9.64c-1-.25-1.68-2-3-.58A4.26,4.26,0,0,0-311.19,356.29Z" transform="translate(369.75 -248.88)"/><path class="cls-125" d="M-294.75,388.5c-.65,2.82-4,3.85-4.5,6.75l-6-2.25H-306c-.8-1.24,0-2,.84-2.71a10.52,10.52,0,0,0,2.91-4l3,.75Z" transform="translate(369.75 -248.88)"/><path class="cls-126" d="M-358.5,375l-2.25-1.5-1.51-3.75c9.17-7.12,15.76-16.74,24-24.75,1.2-1.07,2.43-2.11,3.59-3.22,9-8.68,17.29-18.17,27.12-26q0,3.75,0,7.5c-2.26,1.9-4.66,3.66-6.76,5.73-7.48,7.35-14.49,15.22-22.37,22.1s-12.95,16.61-21.58,22.85C-358.47,374.09-358.42,374.63-358.5,375Z" transform="translate(369.75 -248.88)"/><path class="cls-127" d="M-336,323.25l-4.5,6a89.28,89.28,0,0,0-10.76,10.87A47.79,47.79,0,0,1-363,350.25q0-3.75,0-7.5V339c2.82-1.69,5.65-3.37,8.45-5.08,2-1.21,4.22-2.24,3.69-5.3-.08-.45.51-1.12.93-1.54,3.37-3.3,6.78-6.57,10.17-9.84C-338.42,319.2-339.55,322.69-336,323.25Z" transform="translate(369.75 -248.88)"/><path class="cls-128" d="M-338.25,345c-8.25,8-14.84,17.63-24,24.75-1.57-3.41-.37-7-.74-10.5,4-4,10-5,12.73-11.36,1.91-4.5,7.38-7.48,11.27-11.14Z" transform="translate(369.75 -248.88)"/><path class="cls-129" d="M-339,336.75c-3.88,3.66-9.36,6.64-11.27,11.14-2.69,6.35-8.77,7.35-12.73,11.36q0-4.5,0-9a47.79,47.79,0,0,0,11.74-10.13,89.28,89.28,0,0,1,10.76-10.87c2.14,0,2.53,2.7,4.5,3Z" transform="translate(369.75 -248.88)"/><path class="cls-130" d="M-368.94,372q0-4.86,0-9.71c2.32,0,2.89-3,5.22-3,0,1.74-.12,3.48,0,5.21C-363.4,368.44-365.54,370.61-368.94,372Z" transform="translate(369.75 -248.88)"/><path class="cls-131" d="M-369,346.5l.05-.76c2-.47,3-2.76,5.22-3h0q0,4.12,0,8.25c-2.48.21-3.21,2.87-5.22,3.74Z" transform="translate(369.75 -248.88)"/><path class="cls-132" d="M-369,354.74c2-.87,2.74-3.53,5.22-3.74q0,4.12,0,8.25c-2.33,0-2.9,3-5.22,3Q-369,358.49-369,354.74Z" transform="translate(369.75 -248.88)"/><path class="cls-133" d="M-358.5,375c.08-.36,0-.9.25-1.07,8.63-6.24,13.61-15.9,21.58-22.85s14.89-14.75,22.37-22.1c2.1-2.06,4.5-3.83,6.76-5.73l.74,1.6q0,1.45,0,2.9c-3.13,3.27-6.22,6.58-9.39,9.82q-11.37,11.62-22.79,23.18c-3.7,3.32-7.49,6.55-11.05,10-1.65,1.61-3.32,3.35-3.95,5.74a5.14,5.14,0,0,1-3-.75Z" transform="translate(369.75 -248.88)"/><path class="cls-134" d="M-354,376.5c.63-2.38,2.3-4.13,3.95-5.74,3.56-3.46,7.35-6.69,11.05-10,.14,3.45-2.6,5.09-4.58,7.18-1.36,1.44-2.25,2.76.08,4.07.72,1.21.77,2.2-.68,3a10.39,10.39,0,0,0-3.82,3.77C-350.06,378.15-352.2,377.79-354,376.5Z" transform="translate(369.75 -248.88)"/><path class="cls-135" d="M-302.25,386.25a10.52,10.52,0,0,1-2.91,4c-.83.73-1.64,1.47-.84,2.71-3.4-.5-6.22-2.9-9.75-3v-.75c1.1-2.78,4.47-3,6-5.26a5.05,5.05,0,0,1,3,.75C-305,384.56-303.7,385.61-302.25,386.25Z" transform="translate(369.75 -248.88)"/><path class="cls-136" d="M-271.5,392.25q0-3.75,0-7.5,0-.37,0-.75l4.48,1.5q0,3.75,0,7.51c-1.71.59-2.4,2.75-4.42,2.86Q-271.47,394.06-271.5,392.25Z" transform="translate(369.75 -248.88)"/><path class="cls-137" d="M-363.75,342.75c-2.18.23-3.18,2.52-5.22,3q0-4.87,0-9.74c2.16-.26,3.17-2.53,5.22-3Q-363.75,337.87-363.75,342.75Z" transform="translate(369.75 -248.88)"/><path class="cls-138" d="M-302.25,386.25c-1.45-.64-2.77-1.69-4.5-1.5a3.32,3.32,0,0,1,.63-2.45c6.38-6.93,12.73-13.91,19.65-20.33.32-.3.92-.31,1.38-.46q0,5.25,0,10.5c-5.73,4-10.76,8.75-14.16,15Z" transform="translate(369.75 -248.88)"/><path class="cls-74" d="M-246.74,322.5q0-4.5,0-9c2.48.57,3.46-2.8,5.92-2.25q.07,2.63.13,5.25l-.14,3C-243.14,319.81-244.4,322.23-246.74,322.5Z" transform="translate(369.75 -248.88)"/><path class="cls-139" d="M-246.74,322.5c2.34-.27,3.59-2.69,5.92-3q.07,3,.15,6l-.15,2.25c-2.32.31-3.57,2.72-5.91,3Z" transform="translate(369.75 -248.88)"/><path class="cls-140" d="M-226.53,317.28c-.2,1.5.67,3.17-.72,4.47q0-1.13,0-2.26C-227.21,318.69-227.4,317.82-226.53,317.28Z" transform="translate(369.75 -248.88)"/><path class="cls-141" d="M-240.81,311.25c-2.47-.54-3.45,2.82-5.92,2.25q0-4.5,0-9c2.35-.27,3.6-2.7,5.93-3q.06,2.25.12,4.5Q-240.75,308.63-240.81,311.25Z" transform="translate(369.75 -248.88)"/><path class="cls-142" d="M-246.74,330.75c2.34-.27,3.59-2.69,5.91-3q.08,2.25.16,4.5,0,1.89,0,3.78l-.19-.06c-2.29.38-3.56,2.74-5.89,3Q-246.74,334.88-246.74,330.75Z" transform="translate(369.75 -248.88)"/><path class="cls-143" d="M-248.26,314.26q0,7.88,0,15.76c-3.95,1.92-3.93,1.92-4.55-2.52a4.1,4.1,0,0,0-.68-1.24q0-2.25,0-4.5,0-3.75,0-7.5C-251.76,317.17-250,314.37-248.26,314.26Z" transform="translate(369.75 -248.88)"/><path class="cls-144" d="M-248.26,314.26c-1.75.12-3.49,2.91-5.24,0q0-3,0-6t0-6c2,1.81,3.47-.64,5.24-.75Q-248.26,307.88-248.26,314.26Z" transform="translate(369.75 -248.88)"/><path class="cls-145" d="M-253.5,326.25a4.1,4.1,0,0,1,.68,1.24c.62,4.44.6,4.44,4.55,2.52q0,5.62,0,11.24c-2.05.57-4.46,2.39-5.23-1.51q0-1.87,0-3.75Q-253.5,331.12-253.5,326.25Z" transform="translate(369.75 -248.88)"/><path class="cls-146" d="M-259.5,289.5l.93,1.54c2.37-2.62,5.64.42,8-1.2,2-1.35,2.31-.68,2.3,1.21,0,1.49,0,3,0,4.46-2.29.93-4.7,2.74-5.83-1.47-.27-1-1.44-.59-2.14.09a3.54,3.54,0,0,1-2.52,1.37,1.56,1.56,0,0,0-.74-1.5v-4.5Z" transform="translate(369.75 -248.88)"/><path class="cls-147" d="M-258.75,295.5a3.54,3.54,0,0,0,2.52-1.37c.7-.67,1.87-1.11,2.14-.09,1.13,4.21,3.54,2.4,5.83,1.47q0,3,0,6c-1.77.11-3.2,2.55-5.24.75-.06-1.46-.45-3.88-1.79-3.31C-260.06,301-258.5,297.5-258.75,295.5Z" transform="translate(369.75 -248.88)"/><path class="cls-148" d="M-253.5,339.75c.76,3.9,3.17,2.08,5.23,1.51q0,4.87,0,9.75l-5.22,2.25V346.5Q-253.5,343.12-253.5,339.75Z" transform="translate(369.75 -248.88)"/><path class="cls-149" d="M-251.25,285c-4.66-2-7,2.57-10.5,3.74-1,1-2.43,1.17-3.74,1.51l-.76-.76v-2.25l6.57-2.9-2.06-2.29c3.61.58,7.28.94,10.49,2.94Z" transform="translate(369.75 -248.88)"/><path class="cls-150" d="M-253.5,353.25l5.22-2.25q0,1.44.06,2.87l-3,1.55a15.59,15.59,0,0,0-5.21.86l-2.26,0C-258.12,353.28-255.08,354.55-253.5,353.25Z" transform="translate(369.75 -248.88)"/><path class="cls-151" d="M-265.49,290.26c1.31-.34,2.7-.49,3.74-1.51.82,0,1.71-.13,2.25.75V291l-6,4.5Q-265.48,292.88-265.49,290.26Z" transform="translate(369.75 -248.88)"/><path class="cls-152" d="M-247.59,285.08l.08,1.42a4.36,4.36,0,0,1-3.75-1.5h0l2.18-.68Z" transform="translate(369.75 -248.88)"/><path class="cls-152" d="M-247.47,287.2l.73.8c-.3,1.75.63,3.68-.74,5.29Q-247.48,290.25-247.47,287.2Z" transform="translate(369.75 -248.88)"/><path class="cls-153" d="M-246.74,339c2.33-.29,3.61-2.65,5.89-3q0,4.9,0,9.79c-1.95,1.28-3.46,3.26-5.91,3.73Q-246.74,344.25-246.74,339Z" transform="translate(369.75 -248.88)"/><path class="cls-154" d="M-240.81,301.5c-2.33.3-3.59,2.73-5.93,3,0-7.88.36-8.57,5.94-10.5Q-240.8,297.75-240.81,301.5Z" transform="translate(369.75 -248.88)"/><path class="cls-155" d="M-253.5,353.25c-1.58,1.3-4.62,0-5.24,3-1.7-4.41-.3-9-.76-13.49q0-4.13,0-8.25,0-1.5,0-3h.74v.75c0,3.49,0,7,0,10.47,0,.84-.12,2.71,1.34,1.72,3-2.05,2.74,1.16,3.88,2.06Z" transform="translate(369.75 -248.88)"/><path class="cls-156" d="M-259.51,334.5q0,4.13,0,8.25c-2.23.49-3.3,3.27-5.92,3q0-4.13,0-8.25C-263.11,337.19-261.86,334.76-259.51,334.5Z" transform="translate(369.75 -248.88)"/><path class="cls-157" d="M-265.44,337.5q0,4.13,0,8.25-.05,5.89-.11,11.78l-.36,0-.36-.07q0-.61,0-1.23,0-25.13,0-50.27,0-2.25,0-4.5h.71l.07,1.5v3.76q0,2.63,0,5.25v25.5Z" transform="translate(369.75 -248.88)"/><path class="cls-158" d="M-249.07,284.32l-2.18.68c-3.21-2-6.88-2.36-10.49-2.94h-3.81l-5.16-.07h-.16c3-1.41,6.14-.38,9.2-.75C-257.13,280.89-252.69,280.94-249.07,284.32Z" transform="translate(369.75 -248.88)"/><path class="cls-159" d="M-261.66,281.23c-3.06.37-6.23-.66-9.2.75-1-.12-2.1.36-2.85-.69,1.83-1.32,4-.59,6-1C-265.77,280.9-263.51,279.65-261.66,281.23Z" transform="translate(369.75 -248.88)"/><path class="cls-160" d="M-264.78,276.73c2.77.28,5.67-.74,8.33.75l-1.56,0C-260.26,277.16-262.67,278.24-264.78,276.73Z" transform="translate(369.75 -248.88)"/><path class="cls-161" d="M-246.82,285a3.6,3.6,0,0,1-.62-.05l.34-.46Z" transform="translate(369.75 -248.88)"/><path class="cls-162" d="M-277.5,353.25h-.74c0-3.49,0-7,0-10.48,0-.84.36-1.92-.41-2.47-1.11-.78-1.69.64-2.56,1-1,.37-1.69,1.53-2.94,1.49q0-6.38,0-12.76a15.09,15.09,0,0,1,2.63-2c.93-.44,1.64-1.94,2.84-1.18.92.57.35,1.83.47,2.78.39,3.13-.84,6.39.74,9.42q0,2.62,0,5.25Q-277.5,348.75-277.5,353.25Z" transform="translate(369.75 -248.88)"/><path class="cls-162" d="M-278.87,354.7l-4.64-2.24c.12-1.09.6-1.54,1.69-1s2.38,1.18,3.57,1.77Z" transform="translate(369.75 -248.88)"/><path class="cls-163" d="M-267,385.5l-4.48-1.5q0-3,0-6v-8.25a1.9,1.9,0,0,1,.73,1.92c-.48,3.41,1.27,3.52,3.75,2.58Q-267,379.88-267,385.5Z" transform="translate(369.75 -248.88)"/><path class="cls-164" d="M-307.52,356.84l9.74-9.64a4.32,4.32,0,0,1,1.56,3.08,59.81,59.81,0,0,1-9,9Z" transform="translate(369.75 -248.88)"/><path class="cls-165" d="M-299.25,387c3.41-6.24,8.43-10.95,14.16-15q0,4.5,0,9a19.15,19.15,0,0,0-8.16,8.24l-1.5-.75Z" transform="translate(369.75 -248.88)"/><path class="cls-163" d="M-293.25,389.25a19.15,19.15,0,0,1,8.16-8.24q0,5.24,0,10.49C-288,391.62-290.32,389.24-293.25,389.25Z" transform="translate(369.75 -248.88)"/><path class="cls-73" d="M-289.51,346.51l-1.51-.76c-1.46-1.82-2.68-3.89-5.17-4.54q0-.34,0-.69c1.3-1-.27-2,0-3,1.7,1.21,2.61-.08,3.74-1.07,2.35-2.08,4-5.17,7.5-5.68q0,6.37,0,12.75C-287.33,343.31-288.44,344.88-289.51,346.51Z" transform="translate(369.75 -248.88)"/><path class="cls-144" d="M-285,330.75c-3.54.51-5.15,3.6-7.5,5.68-1.12,1-2,2.28-3.74,1.07a8.39,8.39,0,0,1-2.24-4.5c1.26.87,2.1.25,3.25-.51,3.73-2.46,6.19-6.43,10.24-8.48Q-285,327.38-285,330.75Z" transform="translate(369.75 -248.88)"/><path class="cls-166" d="M-285,324c-4,2-6.5,6-10.24,8.48-1.15.76-2,1.38-3.25.51-.64-1.45-1.69-2.77-1.49-4.5,1.28,1.8,2.17,2.33,4.16.27,3.29-3.4,7.18-6.21,10.82-9.26Z" transform="translate(369.75 -248.88)"/><path class="cls-167" d="M-285,319.51c-3.64,3.06-7.53,5.87-10.82,9.26-2,2.06-2.88,1.52-4.16-.27l0-1.5c2.09,1,3.14-.65,4.39-1.76l10.6-9.48Z" transform="translate(369.75 -248.88)"/><path class="cls-56" d="M-277.51,339c-1.58-3-.35-6.29-.74-9.42-.12-.95.45-2.21-.47-2.78-1.2-.75-1.91.74-2.84,1.18a15.09,15.09,0,0,0-2.63,2q0-3,0-6c5-3.94,5-3.94,6.7.76q0,4.87,0,9.74Z" transform="translate(369.75 -248.88)"/><path class="cls-168" d="M-285,315.76l-10.6,9.48c-1.25,1.12-2.3,2.75-4.39,1.76a1.57,1.57,0,0,1-.74-1.5v-2.25c.94,1.8,1.62,2.34,3.65.65,4.09-3.4,7.43-7.68,12.09-10.39v2.25Z" transform="translate(369.75 -248.88)"/><path class="cls-169" d="M-277.51,324.75c-1.72-4.7-1.72-4.7-6.7-.76q0-2.62,0-5.25c2-1.18,3.21-3.43,5.68-3.89.61,1-.16,2.4,1,3.15q0,1.5,0,3Z" transform="translate(369.75 -248.88)"/><path class="cls-170" d="M-277.51,318c-1.19-.74-.42-2.12-1-3.15-2.47.45-3.72,2.7-5.68,3.89q0-1.87-.05-3.75h0a25,25,0,0,0,3.2-2.92c1.74-2.23,2.6-.88,3.51.67V318Z" transform="translate(369.75 -248.88)"/><path class="cls-171" d="M-285,315v-1.5q0-1.5,0-3,0-2.25,0-4.5v-.76h.74q0,1.87,0,3.75v6H-285Z" transform="translate(369.75 -248.88)"/><path class="cls-172" d="M-306.73,322.49l2.91-1.5q.07,1.1.14,2.19a2.35,2.35,0,0,0,.68,2.4l.77,2.13c-.06,1.68-.93,3.62,1.46,4.5-.26,2,1.39,3.4,1.52,5.26A2.26,2.26,0,0,1-301.5,339c-3-4.58-3.86-9.87-5.24-15Q-306.73,323.25-306.73,322.49Z" transform="translate(369.75 -248.88)"/><path class="cls-173" d="M-299.24,337.48c-.14-1.86-1.79-3.29-1.52-5.26-.52-1.49-.38-3.19-1.46-4.5l-.77-2.13c1.11-.81.64-2,.72-3l0-2.29c1.68,1.42-.18,3.83,1.49,5.25A1.57,1.57,0,0,0-300,327l0,1.5c-.2,1.73.85,3,1.49,4.5a8.39,8.39,0,0,0,2.24,4.5c-.24,1,1.33,2,0,3Z" transform="translate(369.75 -248.88)"/><path class="cls-1" d="M-306.74,324c1.38,5.13,2.28,10.42,5.24,15l3.75,6-.88,0-1.52-1.53L-303,339l-2.34-6-1.46-5.28q0-1.45,0-2.9Z" transform="translate(369.75 -248.88)"/><path class="cls-174" d="M-296.18,341.21c2.49.64,3.71,2.72,5.17,4.54h-.75c-1-.43-1.6-1.61-2.87-1.55C-295.11,343.18-296.34,342.56-296.18,341.21Z" transform="translate(369.75 -248.88)"/><path class="cls-175" d="M-277.5,353.25q0-4.5,0-9c2-.62,4-2.47,6,0a21,21,0,0,0,.16,4.44c.55,2.25,1.07,4.79,4.34,4.56v1.5c-3.3.34-6.51-.43-9.75-.75Z" transform="translate(369.75 -248.88)"/><path class="cls-176" d="M-276.75,354c3.24.33,6.46,1.09,9.75.75a1.62,1.62,0,0,0,.72,1.52q0,.61,0,1.23l-1.39.17c-.89-.93-2.13-.53-3.19-.82C-272.43,355.12-275.08,355.58-276.75,354Z" transform="translate(369.75 -248.88)"/><path class="cls-114" d="M-276,272.25c-3.81.07-7.2-1.29-10.5-3C-282.76,269.42-279.43,271-276,272.25Z" transform="translate(369.75 -248.88)"/><path class="cls-177" d="M-327.75,294.75q-10.4,10.59-20.8,21.19c-1,1-2.42,1.83-2.45,3.56a3.4,3.4,0,0,1-1.72,2.7L-363,330q0-4.87,0-9.75c3.26-2.15,8-3.58,9.46-6.6,2.86-5.73,8.06-8.87,11.79-13.5a12.74,12.74,0,0,1,2-1.66c2,3.52,2.55,3.6,5.57.81C-332.23,297.52-330.74,295.07-327.75,294.75Z" transform="translate(369.75 -248.88)"/><path class="cls-178" d="M-363,330l10.28-7.8a3.4,3.4,0,0,0,1.72-2.7c3.87-1.73,6.1-5.34,9.14-8,1.22-1.09,2.26-2.46,4.07-.92,1.46,1.24,2.15-.23,3.07-.94,2.4-1.86,3.76-5,7-5.86-3.72,4.75-8.81,8.28-12,13.5-3.4,3.28-6.8,6.54-10.17,9.84-.43.42-1,1.09-.93,1.54.54,3.05-1.7,4.08-3.69,5.3-2.81,1.71-5.64,3.39-8.45,5.08Q-363,334.5-363,330Z" transform="translate(369.75 -248.88)"/><path class="cls-179" d="M-339,336.75l3-4.5c1-.9,2.08-1.75,3.06-2.7q12.18-11.78,24.36-23.56c.89-.85,1.65-2.32,3.34-1.47-1.51,2.79-1.62,5.82-1.54,8.89-.79.6-.63,1.52-.77,2.33-9.83,7.86-18.08,17.35-27.12,26-1.16,1.11-2.39,2.15-3.59,3.22Z" transform="translate(369.75 -248.88)"/><path class="cls-172" d="M-306.78,313.42c-.08-3.07,0-6.1,1.54-8.89,2-3.31,2.92-7.22,5.94-9.89-.59,3.54-3.31,6-4.48,9.34-1.37,3.85-1.75,7.91-3,11.78Z" transform="translate(369.75 -248.88)"/><path class="cls-180" d="M-327.75,294.75c-3,.32-4.48,2.77-6.43,4.56-3,2.79-3.62,2.71-5.57-.81,4.12-6.09,9.87-10.67,14.84-16,1-1.05,2.4-1.85,2.43-3.57l3.73.74,4.5,1.59A145.45,145.45,0,0,1-327.75,294.75Z" transform="translate(369.75 -248.88)"/><path class="cls-181" d="M-284.26,305.25H-285q0-1.12,0-2.24v-6.75c-.7-1.71-1.53-.84-2.58-.27-2.58,1.39-3.95,4.17-6.5,5.54-.94.51-1.94,2.11-2.9,0q0-.37,0-.75l2.26-3.74a3.18,3.18,0,0,0,2.94-3.06l.86-2.2,2.16-1.52a5.64,5.64,0,0,0,5.24-3l.33,0h.33c.9.22,2.23-.45,2.64.68s-1.08,1.36-1.72,2C-283,291-285,291.17-285,293.25l.75.75q0,1.5,0,3,0,1.87,0,3.74v4.51Z" transform="translate(369.75 -248.88)"/><path class="cls-182" d="M-273.72,281.29c.75,1.05,1.88.57,2.85.69h.15a4.33,4.33,0,0,0-.08.66q-.36,0-.72.07a16.76,16.76,0,0,0-9,3l-.8,0-.63-.82A12.1,12.1,0,0,1-273.72,281.29Z" transform="translate(369.75 -248.88)"/><path class="cls-183" d="M-302.24,320.25q0,1.15,0,2.29l-.69-.06-.1-6.72c1.14-.79.73-2,.79-3.06a4.08,4.08,0,0,0,0-.72c.28-1.56,1.07-3,.79-4.69a2.72,2.72,0,0,1,0-.44l1.44-.87.12,0c-.17,2.8-1.73,5.35-1.52,8.23Z" transform="translate(369.75 -248.88)"/><path class="cls-184" d="M-282,284.93l.63.82-1.5,1.46h-.33l-.33,0-3.87,1.54C-286.59,286.08-284.66,285-282,284.93Z" transform="translate(369.75 -248.88)"/><path class="cls-185" d="M-306.78,313.42l0,2.34q0,3.37,0,6.74,0,.75,0,1.5l-.06.86-.74-1.6q0-3.75,0-7.5C-307.41,314.93-307.57,314-306.78,313.42Z" transform="translate(369.75 -248.88)"/><path class="cls-186" d="M-297,300.78q0,.37,0,.75a1.52,1.52,0,0,0-.76,1.49,4.17,4.17,0,0,0-1.49,3H-300l-.12,0,.84-3.21a4.92,4.92,0,0,1,2.2-3.6Z" transform="translate(369.75 -248.88)"/><path class="cls-187" d="M-290.91,291.78l-.86,2.2-3,2.34-.82,0C-294.54,294.23-292.67,293.06-290.91,291.78Z" transform="translate(369.75 -248.88)"/><path class="cls-188" d="M-287.38,288.78l3.87-1.54a5.64,5.64,0,0,1-5.24,3C-288.73,289.36-288.34,288.81-287.38,288.78Z" transform="translate(369.75 -248.88)"/><path class="cls-189" d="M-295.55,296.28l.82,0a6.11,6.11,0,0,0,0,.73l-2.26,3.74-.07-1.6A4.51,4.51,0,0,1-295.55,296.28Z" transform="translate(369.75 -248.88)"/><path class="cls-190" d="M-303.07,315.76q0,3.36.1,6.72l-.71.7q-.07-1.1-.14-2.19.09-2.6.18-5.2Z" transform="translate(369.75 -248.88)"/><path class="cls-191" d="M-299.23,302.78l-.84,3.21-1.44.87C-301.13,305.28-301.21,303.46-299.23,302.78Z" transform="translate(369.75 -248.88)"/><path class="cls-192" d="M-303.07,315.76l-.57,0c-.15-1.3,0-2.47,1.36-3.09C-302.34,313.78-301.93,315-303.07,315.76Z" transform="translate(369.75 -248.88)"/><path class="cls-193" d="M-301.49,307.3c.28,1.65-.5,3.13-.79,4.69C-303.7,310.14-302.15,308.79-301.49,307.3Z" transform="translate(369.75 -248.88)"/><path class="cls-107" d="M-295.5,278.25c3.59.65,7.26,1,10.48,2.95a5.47,5.47,0,0,1-.67.07C-289,280.46-292.59,280.43-295.5,278.25Z" transform="translate(369.75 -248.88)"/><path class="cls-194" d="M-305.36,333l2.34,6a324.89,324.89,0,0,0-33.08,33.55,5.53,5.53,0,0,0-.65,1.69c-2.38.11-2.47-3.8-5.25-3,3.81-5.79,9.27-10.08,13.87-15.16,3.3-3.64,6.78-7.12,10.27-10.57C-313.68,341.37-310.56,336.16-305.36,333Z" transform="translate(369.75 -248.88)"/><path class="cls-195" d="M-305.36,333c-5.2,3.13-8.32,8.34-12.5,12.48-3.49,3.46-7,6.93-10.27,10.57-4.6,5.08-10.06,9.37-13.87,15.16l-1.5.75c-2.32-1.32-1.44-2.63-.08-4.07,2-2.09,4.71-3.73,4.58-7.18q11.4-11.59,22.79-23.18c3.17-3.24,6.26-6.54,9.39-9.82Z" transform="translate(369.75 -248.88)"/><path class="cls-196" d="M-253.5,308.25q0,3,0,6,0,3.75,0,7.5c-1.75-2-3.5-1-5.25,0-.4-4,.83-8.08-.74-12q0-.37,0-.75,0-3,0-6v-2.25a2.3,2.3,0,0,1,.73,2.32c-.37,3,.32,5,3.93,4.63C-254.41,307.66-253.95,308.06-253.5,308.25Z" transform="translate(369.75 -248.88)"/><path class="cls-197" d="M-258.75,321.75c1.75-1,3.5-2,5.25,0q0,2.25,0,4.5,0,4.88,0,9.75c-1.39-1.76-.31-7-5.25-3.75v-10.5Z" transform="translate(369.75 -248.88)"/><path class="cls-198" d="M-253.5,308.25c-.45-.19-.91-.59-1.33-.55-3.61.37-4.3-1.64-3.93-4.63a2.3,2.3,0,0,0-.73-2.32v-1.5q0-2.25,0-4.5V294a1.56,1.56,0,0,1,.74,1.5c.25,2-1.32,5.49,3.46,3.44,1.34-.58,1.73,1.85,1.79,3.31Q-253.5,305.25-253.5,308.25Z" transform="translate(369.75 -248.88)"/><path class="cls-199" d="M-258.75,332.25c4.94-3.22,3.86,2,5.25,3.75q0,1.87,0,3.75,0,3.38,0,6.75c-1.15-.9-.85-4.11-3.88-2.06-1.46,1-1.32-.88-1.34-1.72C-258.78,339.23-258.75,335.74-258.75,332.25Z" transform="translate(369.75 -248.88)"/><path class="cls-200" d="M-259.49,294v.76c-2.7.12-3.28,3.61-6,3.75v-3l6-4.5Z" transform="translate(369.75 -248.88)"/><path class="cls-201" d="M-271.51,282.73q.36-.05.72-.07c.42,1.22,1.19,1.48,2.29.84,2,.18,2,.19,1.41,1.66-.39,1,.19,1.55.84,2.1q0,1.12,0,2.25H-267a1.55,1.55,0,0,0-.75-1.5c-.33-2-1-2.55-3-1.25-4.3,2.79-8.21,6.38-13.55,7.25l-.75-.75a26,26,0,0,0,3.17-1.74c3.36-2.44,7.5-4,9.58-8Z" transform="translate(369.75 -248.88)"/><path class="cls-202" d="M-266.25,287.25c-.66-.55-1.24-1.09-.84-2.1.57-1.46.55-1.47-1.41-1.66.63-1.2,2.29-.29,3-1.43h3.81l2.06,2.29Z" transform="translate(369.75 -248.88)"/><path class="cls-203" d="M-267,289.5h.75l.76.76q0,2.62,0,5.25,0,1.5,0,3l-.06,3h-.71q0-1.87,0-3.75A29.12,29.12,0,0,0-267,289.5Z" transform="translate(369.75 -248.88)"/><path class="cls-74" d="M-265.44,337.5q0-4.5,0-9c2.32-.32,3.42-3.07,5.94-3l0,6q0,1.5,0,3C-261.86,334.76-263.11,337.19-265.44,337.5Z" transform="translate(369.75 -248.88)"/><path class="cls-199" d="M-259.49,331.5q0-3,0-6,0-4.5,0-9v-6.76c1.57,3.92.34,8,.74,12q0,4.88,0,9.75Z" transform="translate(369.75 -248.88)"/><path class="cls-141" d="M-259.51,316.5q0,4.5,0,9c-2.52-.07-3.62,2.68-5.94,3q0-4.5,0-9C-263.12,319.19-262,316.43-259.51,316.5Z" transform="translate(369.75 -248.88)"/><path class="cls-204" d="M-259.51,316.5c-2.52-.07-3.62,2.69-5.95,3q0-3.75,0-7.5c2.34-.3,3.6-2.74,6-3q0,.37,0,.75Q-259.5,313.12-259.51,316.5Z" transform="translate(369.75 -248.88)"/><path class="cls-205" d="M-266.27,356.27a1.62,1.62,0,0,1-.72-1.52q0-.75,0-1.5,0-6.37,0-12.75V329.25q0-7.12,0-14.25,0-3.37,0-6.75,0-1.13,0-2.25h.75Q-266.26,331.14-266.27,356.27Z" transform="translate(369.75 -248.88)"/><path class="cls-206" d="M-266.25,306H-267v-3c0-4.27-.15-4.55-1.35-4-3,1.38-6.83,1-9.14,4h0q0-1.13,0-2.25c2.57-3.63,7.1-3.82,10.5-6,.11,1-.35,2.21.75,3q0,1.87,0,3.75Q-266.25,303.75-266.25,306Z" transform="translate(369.75 -248.88)"/><path class="cls-207" d="M-259.5,309c-2.36.26-3.61,2.71-6,3q0-2.63,0-5.25c2.68-.15,3.26-3.63,6-3.75Q-259.5,306-259.5,309Z" transform="translate(369.75 -248.88)"/><path class="cls-170" d="M-265.53,301.5q0-1.5.06-3c2.68-.15,3.27-3.63,6-3.75q0,2.25,0,4.5c-2.48.47-4,2.49-6,3.74Z" transform="translate(369.75 -248.88)"/><path class="cls-208" d="M-265.47,303c2-1.25,3.49-3.27,6-3.74q0,.75,0,1.5,0,1.13,0,2.25c-2.7.12-3.28,3.6-6,3.75Q-265.46,304.87-265.47,303Z" transform="translate(369.75 -248.88)"/><path class="cls-188" d="M-265.55,282.07c-.66,1.14-2.32.22-3,1.43-1.1.64-1.87.38-2.29-.84a4.28,4.28,0,0,1,.08-.66Z" transform="translate(369.75 -248.88)"/><path class="cls-209" d="M-271.5,344.25c-2-2.47-4-.62-6,0q0-2.62,0-5.25,0-2.25,0-4.51c2.13-.77,4.61-4.38,6,.76v3Q-271.5,341.25-271.5,344.25Z" transform="translate(369.75 -248.88)"/><path class="cls-210" d="M-271.5,335.25c-1.38-5.14-3.87-1.52-6-.76q0-4.87,0-9.74,0-1.88,0-3.76a7.49,7.49,0,0,0,1.39-.41c3.52-1.83,4.53-1.24,4.6,2.75,0,1.72,0,3.44,0,5.17Q-271.5,331.88-271.5,335.25Z" transform="translate(369.75 -248.88)"/><path class="cls-211" d="M-285,310.5q0,1.5,0,3c-4.66,2.72-8,7-12.09,10.39-2,1.69-2.71,1.16-3.65-.65q0-1.12,0-2.25c2,1.23,3.24-.09,4.58-1.22Q-290.59,315.14-285,310.5Z" transform="translate(369.75 -248.88)"/><path class="cls-212" d="M-300.75,321q0,1.12,0,2.25t0,2.25c-1.67-1.42.19-3.84-1.49-5.25l.76-6,.72,0v3Q-300.74,319.13-300.75,321Z" transform="translate(369.75 -248.88)"/><path class="cls-213" d="M-271.5,328.5c0-1.72,0-3.44,0-5.17-.06-4-1.07-4.58-4.6-2.75a7.49,7.49,0,0,1-1.39.41q0-1.5,0-3v-2.26a26,26,0,0,0,3.06-2c1.23-1.05,2.3-1.17,2.79.48,1.08,3.63,2.87,1.88,4.63.75q0,7.12,0,14.25C-268.72,330.3-270.26,330.28-271.5,328.5Z" transform="translate(369.75 -248.88)"/><path class="cls-214" d="M-267,315c-1.76,1.13-3.55,2.88-4.63-.75-.49-1.66-1.56-1.54-2.79-.48a26,26,0,0,1-3.06,2V312c1-.89,2.05-1.78,3.07-2.69.76-.68,1.68-1.54,2.57-.6,1.93,2,3.32.47,4.86-.46Q-267,311.63-267,315Z" transform="translate(369.75 -248.88)"/><path class="cls-200" d="M-277.49,312v.75c-.91-1.55-1.77-2.9-3.51-.67a25,25,0,0,1-3.2,2.92q0-1.5,0-3c1.09-1,2.23-1.89,3.27-2.92,1.54-1.53,2.61-1.12,3.45.67Z" transform="translate(369.75 -248.88)"/><path class="cls-215" d="M-300.75,321q0-1.87,0-3.75c1.47,1.05,2.32,0,3.48-.79,4.4-3.13,7.58-7.67,12.25-10.46q0,2.25,0,4.5-5.58,4.64-11.15,9.28C-297.51,320.91-298.78,322.24-300.75,321Z" transform="translate(369.75 -248.88)"/><path class="cls-216" d="M-285,306c-4.67,2.79-7.85,7.33-12.25,10.46-1.16.83-2,1.84-3.48.79v-3a1.57,1.57,0,0,1,.75-1.5c1.55,3.19,2.49.54,3.55-.4,3.69-3.28,7.23-6.73,11.45-9.35q0,1.12,0,2.24Z" transform="translate(369.75 -248.88)"/><path class="cls-217" d="M-284.22,309q0-1.87,0-3.75h0a8.41,8.41,0,0,0,4.37-2.62c1.18-1.16,1.65-.18,2.36.36h0q0,1.5,0,3v.75c-.75-1.45-1.53-2.35-2.9-.5A8.94,8.94,0,0,1-284.22,309Z" transform="translate(369.75 -248.88)"/><path class="cls-218" d="M-284.22,309a8.94,8.94,0,0,0,3.81-2.74c1.37-1.85,2.16-1,2.9.5q0,1.5,0,3c-.84-1.8-1.91-2.21-3.45-.67-1,1-2.17,1.95-3.27,2.92Q-284.22,310.5-284.22,309Z" transform="translate(369.75 -248.88)"/><path class="cls-219" d="M-302.22,327.72c1.07,1.31.94,3,1.46,4.5C-303.16,331.33-302.29,329.39-302.22,327.72Z" transform="translate(369.75 -248.88)"/><path class="cls-220" d="M-303.68,323.19l.71-.7.7.06c-.08,1.05.39,2.24-.72,3A2.34,2.34,0,0,1-303.68,323.19Z" transform="translate(369.75 -248.88)"/><path class="cls-176" d="M-271.5,344.25q0-3,0-6c.91,1.92,2,3.57,4.5,2.25q0,6.37,0,12.75c-3.27.23-3.79-2.31-4.34-4.56A21,21,0,0,1-271.5,344.25Z" transform="translate(369.75 -248.88)"/><path class="cls-221" d="M-285,303c-4.22,2.62-7.76,6.07-11.45,9.35-1.06.94-2,3.59-3.55.4.18-1.26-.5-2.7.75-3.75.14,1.62,1.25,1.1,1.77.55,1.87-2,4.51-3,6.3-5.1,1.65-2,3.3-4.12,6.18-4.45Z" transform="translate(369.75 -248.88)"/><path class="cls-222" d="M-284.25,294c5.34-.87,9.25-4.46,13.55-7.25,2-1.29,2.62-.71,3,1.25-2.58,3.22-7.16,3.55-9.75,6.75-2.63-.4-4.44,1.66-6.73,2.25Z" transform="translate(369.75 -248.88)"/><path class="cls-223" d="M-285,300c-2.89.32-4.53,2.48-6.18,4.45-1.79,2.12-4.43,3.1-6.3,5.1-.51.55-1.62,1.07-1.77-.55v-3a4.17,4.17,0,0,1,1.49-3,6,6,0,0,0,0,1.12c.2,1-.64,2.53.78,2.94,1.17.34,1.3-1.26,2-1.89,3.31-3,6.64-6,10-8.93Z" transform="translate(369.75 -248.88)"/><path class="cls-224" d="M-285,296.25c-3.32,3-6.66,5.94-10,8.93-.69.63-.82,2.23-2,1.89-1.42-.41-.58-1.92-.78-2.94a6,6,0,0,1,0-1.12,1.52,1.52,0,0,1,.76-1.49c1,2.11,2,.5,2.9,0,2.56-1.38,3.92-4.15,6.5-5.54C-286.53,295.41-285.71,294.55-285,296.25Z" transform="translate(369.75 -248.88)"/><path class="cls-225" d="M-272.25,283.51c-2.08,4-6.22,5.56-9.58,8a26,26,0,0,1-3.17,1.74c0-2.08,2-2.27,3.08-3.35.63-.65,2.17-.74,1.72-2s-1.74-.47-2.64-.68l1.5-1.46.8,0C-277.58,285.71-275.1,283.94-272.25,283.51Z" transform="translate(369.75 -248.88)"/><path class="cls-226" d="M-284.23,303q0-1.13,0-2.25c2.41-1,3.18-4.85,6.73-3.75q0,.37,0,.75V300C-280.65,299-281.59,302.9-284.23,303Z" transform="translate(369.75 -248.88)"/><path class="cls-227" d="M-277.5,297c-3.55-1.1-4.33,2.79-6.73,3.75q0-1.87,0-3.74c2.3-.6,4.1-2.65,6.73-2.25Z" transform="translate(369.75 -248.88)"/><path class="cls-228" d="M-284.23,303c2.64-.1,3.58-4,6.73-3q0,.37,0,.75V303c-.71-.54-1.18-1.52-2.36-.36a8.41,8.41,0,0,1-4.37,2.62Q-284.23,304.13-284.23,303Z" transform="translate(369.75 -248.88)"/><path class="cls-188" d="M-294.71,297a6.11,6.11,0,0,1,0-.73l3-2.34A3.18,3.18,0,0,1-294.71,297Z" transform="translate(369.75 -248.88)"/><path class="cls-188" d="M-272.25,283.51c-2.85.43-5.33,2.2-8.29,2.21a16.76,16.76,0,0,1,9-3Z" transform="translate(369.75 -248.88)"/><path class="cls-189" d="M-299.24,306v3c-1.25,1-.57,2.48-.75,3.75a1.57,1.57,0,0,0-.75,1.5l-.72,0c-.2-2.87,1.35-5.42,1.52-8.23Z" transform="translate(369.75 -248.88)"/><path class="cls-229" d="M-277.5,297v-2.25c2.59-3.2,7.17-3.53,9.75-6.75a1.55,1.55,0,0,1,.75,1.5,29.12,29.12,0,0,1,.75,8.25c-1.09-.79-.64-2-.75-3s.43-2.45-1.68-1.69c-3.18,1.15-6.34,2.25-8.82,4.69Q-277.5,297.37-277.5,297Z" transform="translate(369.75 -248.88)"/><path class="cls-230" d="M-277.5,309.75q0-1.5,0-3V306c1.42,0,2.15-1.07,3-1.91s1.53-1.28,2.54-.39c1.91,1.69,3.39.3,4.93-.7q0,1.5,0,3,0,1.13,0,2.25c-1.54.93-2.93,2.5-4.86.46-.89-.94-1.81-.08-2.57.6-1,.9-2,1.79-3.07,2.69Q-277.5,310.87-277.5,309.75Z" transform="translate(369.75 -248.88)"/><path class="cls-231" d="M-267,340.5c-2.54,1.32-3.59-.33-4.5-2.25q0-1.5,0-3,0-3.38,0-6.75c1.24,1.78,2.78,1.8,4.5.75Z" transform="translate(369.75 -248.88)"/><path class="cls-205" d="M-267,303c-1.53,1-3,2.4-4.93.7-1-.89-1.77-.36-2.54.39s-1.6,1.93-3,1.91q0-1.5,0-3c2.31-3,6.12-2.61,9.14-4C-267.15,298.46-267,298.74-267,303Z" transform="translate(369.75 -248.88)"/><path class="cls-232" d="M-277.5,297.75c2.48-2.44,5.64-3.54,8.82-4.69,2.11-.76,1.51.75,1.68,1.69-3.4,2.18-7.93,2.37-10.5,6q0-.37,0-.75Q-277.5,298.87-277.5,297.75Z" transform="translate(369.75 -248.88)"/></svg>