<svg id="图层_1" data-name="图层 1" xmlns="http://www.w3.org/2000/svg" viewBox="0 0 166.68 159.49"><defs><style>.cls-1{fill:#353c40;}.cls-2{fill:#d4dadf;}.cls-3{fill:#c5cfd6;}.cls-4{fill:#a2abb0;}.cls-5{fill:#40494e;}.cls-6{fill:#2e3437;}.cls-7{fill:#41484c;}.cls-8{fill:#2f3437;}.cls-9{fill:#c7c9cc;}.cls-10{fill:#cbd4db;}.cls-11{fill:#c5d0d8;}.cls-12{fill:#c0cbd2;}.cls-13{fill:#bcc7cf;}.cls-14{fill:#c2cdd4;}.cls-15{fill:#8b979e;}.cls-16{fill:#d0d7dd;}.cls-17{fill:#3d4347;}.cls-18{fill:#bec7cd;}.cls-19{fill:#394146;}.cls-20{fill:#b7b9bc;}.cls-21{fill:#c8cacc;}.cls-22{fill:#4dbbfe;}.cls-23{fill:#2faffe;}.cls-24{fill:#31b0fe;}.cls-25{fill:#3bb4fe;}.cls-26{fill:#37b2fe;}.cls-27{fill:#34b1fe;}.cls-28{fill:#4bbafe;}.cls-29{fill:#47b9fe;}.cls-30{fill:#3fb5fe;}.cls-31{fill:#44b7fe;}.cls-32{fill:#24abfe;}.cls-33{fill:#42b6fe;}.cls-34{fill:#3fb6fe;}.cls-35{fill:#21aafe;}.cls-36{fill:#38b3fe;}.cls-37{fill:#44b7fd;}.cls-38{fill:#41b6fd;}.cls-39{fill:#47b8fd;}.cls-40{fill:#3cb4fe;}.cls-41{fill:#4ab7f9;}.cls-42{fill:#3cb4fd;}.cls-43{fill:#30b0fd;}.cls-44{fill:#f0f2f5;}.cls-45{fill:#e6e9ed;}.cls-46{fill:#eef0f3;}.cls-47{fill:#dcdfe3;}.cls-48{fill:#dde1e4;}.cls-49{fill:#dce0e4;}.cls-50{fill:#dadee2;}.cls-51{fill:#e5e9ed;}.cls-52{fill:#e0e3e7;}.cls-53{fill:#e4e8eb;}.cls-54{fill:#e5e8ec;}.cls-55{fill:#dfe3e7;}.cls-56{fill:#e7eaee;}.cls-57{fill:#ebedf1;}.cls-58{fill:#e4e7eb;}.cls-59{fill:#eaedf0;}.cls-60{fill:#e3e7ea;}.cls-61{fill:#edeff2;}.cls-62{fill:#eef0f4;}.cls-63{fill:#edeff3;}.cls-64{fill:#e9ecf0;}.cls-65{fill:#aab5bd;}.cls-66{fill:#acb7be;}.cls-67{fill:#a3b0b7;}.cls-68{fill:#60676c;}.cls-69{fill:#adb8bf;}.cls-70{fill:#545b5f;}.cls-71{fill:#abb6bd;}.cls-72{fill:#5a6064;}.cls-73{fill:#a6b1b8;}.cls-74{fill:#4c5357;}.cls-75{fill:#52585c;}.cls-76{fill:#596064;}.cls-77{fill:#a9b4bc;}.cls-78{fill:#9faab0;}.cls-79{fill:#9ba8b0;}.cls-80{fill:#acb6bd;}.cls-81{fill:#9daab2;}.cls-82{fill:#9eabb2;}.cls-83{fill:#9facb4;}.cls-84{fill:#a7b2ba;}.cls-85{fill:#575e62;}.cls-86{fill:#dddfe2;}.cls-87{fill:#9ba8af;}.cls-88{fill:#d0dae1;}.cls-89{fill:#b6bfc5;}.cls-90{fill:#d4d8da;}.cls-91{fill:#a4afb5;}.cls-92{fill:#565d62;}.cls-93{fill:#51bcfe;}.cls-94{fill:#4fbbfe;}.cls-95{fill:#2caefe;}.cls-96{fill:#4dbbfd;}.cls-97{fill:#29adfe;}.cls-98{fill:#26acfe;}.cls-99{fill:#54befe;}.cls-100{fill:#e2e6ea;}.cls-101{fill:#e2e5e9;}.cls-102{fill:#e1e5e9;}.cls-103{fill:#697075;}.cls-104{fill:#686f74;}.cls-105{fill:#b0b8be;}.cls-106{fill:#6a7176;}.cls-107{fill:#91999e;}.cls-108{fill:#a1adb5;}.cls-109{fill:#d8dde1;}.cls-110{fill:#a0adb4;}.cls-111{fill:#535a5e;}.cls-112{fill:#61686c;}.cls-113{fill:#e9ecef;}.cls-114{fill:#aab5bc;}.cls-115{fill:#4c5458;}.cls-116{fill:#5e6469;}.cls-117{fill:#e9ebef;}.cls-118{fill:#aeb9c0;}.cls-119{fill:#50575b;}.cls-120{fill:#a2abb1;}.cls-121{fill:#90989d;}.cls-122{fill:#949ba1;}.cls-123{fill:#52595d;}.cls-124{fill:#e7eaed;}.cls-125{fill:#848b90;}.cls-126{fill:#e5e9ec;}.cls-127{fill:#a8b1b8;}.cls-128{fill:#e8ebee;}.cls-129{fill:#dadfe3;}.cls-130{fill:#8d969c;}.cls-131{fill:#e3e6ea;}.cls-132{fill:#e2e6e9;}.cls-133{fill:#838a8f;}.cls-134{fill:#a3acb2;}.cls-135{fill:#565c61;}.cls-136{fill:#57bffe;}.cls-137{fill:#dde1e5;}.cls-138{fill:#5a6166;}.cls-139{fill:#a8b4bb;}.cls-140{fill:#a0a9af;}.cls-141{fill:#9da7ae;}.cls-142{fill:#9fa9af;}.cls-143{fill:#939ca2;}.cls-144{fill:#9fa7ad;}.cls-145{fill:#d9dde1;}.cls-146{fill:#959fa6;}.cls-147{fill:#97a1a7;}.cls-148{fill:#9aa4ab;}</style></defs><title>fileExplorer</title><path class="cls-1" d="M332.2,422.38c-20.42-6.82-40.83-13.71-61.3-20.4-2.94-1-4-2.16-4-5.39.16-23.75.08-47.5.1-71.25,0-1.45-.39-3,.79-4.25,6.24,3.11,13,4.76,19.58,7q49.3,16.49,98.65,32.84l.08,79.21-38-12.44-3.79-1C340.46,424.75,336.29,423.67,332.2,422.38ZM354,353.44c-2.72-.94-5.31-2.28-8.25-2.5a26.64,26.64,0,0,0-9-3l-4.45-1.64-3.06-1.12-5.94-1.89a8.7,8.7,0,0,0-4.55-1.37,15.92,15.92,0,0,0-6-2.15c-3-1.09-5.75-2.71-9-2.92l-7.5-2.78-19.44-6.35c-.67-.3-1.32-.65-2-.89-4.74-1.66-4.74-1.65-4.74,3.18q0,32.14,0,64.28c0,1.26-.69,2.74.65,3.81a68.21,68.21,0,0,0,14.23,4.7,21.26,21.26,0,0,0,6,2.07l9,3,9,3a70.84,70.84,0,0,0,12,3.9,120.13,120.13,0,0,0,15,5.09l11.28,3.75,9,3,9,3c4.14,1.45,8.27,2.93,12.43,4.35,5.73,2,5.73,1.93,5.27-4.32q0-18.7,0-37.41.09-13.72.18-27.45c0-.91,0-1.76-1.23-1.88a138.47,138.47,0,0,0-14.46-5Z" transform="translate(-224.19 -319.51)"/><path class="cls-2" d="M271.39,432.09c19.84,6.75,39.64,13.59,59.54,20.14,2.41.79,4.83,1.7,7.32,2.32q0,2.22,0,4.44a2,2,0,0,1-2.25,0c-1.59-2.73-4.43-1.65-6.73-2.2h-.77c-1.35-3.44-4.52-1.4-6.73-2.24-1.35-3.45-4.55-1.39-6.76-2.28-1.52-3.74-4.4-1.42-6.75-1.51.33-2-1.21-2.54-2.59-2.7a19.39,19.39,0,0,0-4.2.39c.33-1.89-1.12-2.11-2.36-2.65-1.56-.67-2.81.9-4.3.41.23-2.1-1.44-2.42-2.81-2.72a22.33,22.33,0,0,0-4-.19c-1.68-2.9-4.3-1.7-6.68-1.52.17-1.69-1-2.14-2.28-2.69-1.67-.7-3,.78-4.56.4.34-1.91-1.09-2.18-2.38-2.7-1.57-.64-2.87.82-4.37.45-1.15-3.56-4-3.83-7.46-.7-1.8.53-4.26-.58-5.21,2.09l-.87.12c-2.12-.07-4.2,0-5.94,1.5-2.25.07-4.52.11-6,2.25a3.62,3.62,0,0,0,.07.7c-1.81-1.07-3.56-.62-5.26.29-.16.08-.2.68-.08.94.79,1.71,2.36.84,3.61,1,.93,1.94,2.12.13,3.18.23l.75,1.25c-.36.15-1.29.23-.81.63.84.71,2,1.66,3.12.15l.27,0,.27,0c.93,1.9,2.1.08,3.15.21l.75,1.27c-.35.15-1.28.22-.79.63.83.69,2,1.66,3.1.15l.27,0h.27c.54,1.51,1.52.59,2.37.43.31,1.88,1,3,3.13,1.8a3,3,0,0,1,.63.06c.75,2,2.1,2.32,3.91,1.43a2.47,2.47,0,0,1,.59.07c0,1.47,1.1,1.51,2.16,1.55,1.27.64,2.45,1.9,4,.62a2.87,2.87,0,0,1,.58.08c.77,1.95,2.11,2.34,3.92,1.42a2.92,2.92,0,0,1,.59.09,8.76,8.76,0,0,0,8.3,2.95l6,2.3c1.16.66,2.19,2,3.72.74l.31,0h.31c1,1.77,2.12-.17,3.16.15l-.08.78c.47,2,1.55,2.42,3.26,1.3h.44c.43,1.23,1.38.61,2.16.61l.19.14c.76,2,2.12,2.37,4,1.49h.44c.45,1.23,1.37.64,2.16.56l.19.2c.74,2,2.1,2.33,3.91,1.51h.5c.38,1.23,1.36.62,2.12.68l1.09.19c.43,2.5,1.82,2.53,3.65,1.41,1.83-.08,3.51-.47,4.46-2.27l.77,0c1.17,1.57,2.44.87,3.7.15l0-.86,2.41-.13a6.89,6.89,0,0,0,4.44-1.36l2.15-.61.77,0a2.28,2.28,0,0,0,1.58,2.14c-5.72,2.9-12,4.26-17.95,6.57a12.47,12.47,0,0,1-9.06,0c-7.7-2.7-15.4-5.44-23.32-7.44a20.14,20.14,0,0,0-6.75-2.26,21.42,21.42,0,0,0-2-.92l-57.21-19.28v-1.52c11.65-3.84,23.09-8.29,34.92-11.56a9.65,9.65,0,0,0,1.94-1.05A12.49,12.49,0,0,0,271.39,432.09Z" transform="translate(-224.19 -319.51)"/><path class="cls-3" d="M352.47,431.3l3.78,1.53q0,5.12,0,10.25c0,1.7,1.06,2.36,2.55,2.59a37.63,37.63,0,0,1-9.36,3.47c-1.81-.92-3.59-1.18-5.29.25-14.77-4-29.16-9.2-43.58-14.28-.61-1.3-1.5-1.77-2.82-.92-3.29-.85-2.66,1.11-2.16,3-1.78-3.41-1.42-4.82,1.7-5.91,6.07-2.13,12.08-4.53,18.29-6.13a35.06,35.06,0,0,1,15.92-.56c1.74,1.07,1.5,2.8,1.47,4.45-.58,3.2.59,5.16,3.92,5.72a10.44,10.44,0,0,1,2.78.94c3.26,1.58,4.22.26,3.8-2.91h.65a4.84,4.84,0,0,1,.19.71V437l3.67-1.26,2.25-.75C351.35,434,350.88,432,352.47,431.3Z" transform="translate(-224.19 -319.51)"/><path class="cls-3" d="M386,360.89q-49.33-16.41-98.65-32.84c-6.57-2.2-13.34-3.85-19.58-7,1.72-2.52,3.92-1.44,6-.75q46.43,15.47,92.86,31c7.53,2.5,14.93,5.4,22.66,7.28C389.4,361,387.15,360.15,386,360.89Z" transform="translate(-224.19 -319.51)"/><path class="cls-4" d="M386,360.89c1.11-.75,3.37.13,3.29-2.31,2.23.3,1.38,2.08,1.39,3.24.05,24.45,0,48.91.12,73.36,0,3.64-1.43,4.92-4.71,4.93Q386.08,400.5,386,360.89Z" transform="translate(-224.19 -319.51)"/><path class="cls-5" d="M295.61,437.17c-.51-1.88-1.13-3.85,2.16-3a4.63,4.63,0,0,0,2.82.92c14.42,5.08,28.81,10.28,43.58,14.28q.11.27.25.53c-1.22.72-.84,1.92-.92,3l-42.23-13.82C299.38,438.46,297.5,437.8,295.61,437.17Z" transform="translate(-224.19 -319.51)"/><path class="cls-6" d="M291.74,468.68c7.93,2,15.62,4.75,23.32,7.44a12.47,12.47,0,0,0,9.06,0c5.94-2.31,12.23-3.66,17.95-6.57,3,0,5.43-1.7,8.19-2.38,2.55-.82,5.14-1.52,7.62-2.5,1.44-.57,1.38.19,1.42,1.1-1.16,1.27-2.81,1.56-4.31,2.07-10.36,3.49-20.77,6.87-31.11,10.43a12.45,12.45,0,0,1-8.69-.05c-7.78-2.78-15.62-5.37-23.44-8Z" transform="translate(-224.19 -319.51)"/><path class="cls-7" d="M225.76,446.23,283,465.51a21.4,21.4,0,0,1,2,.92v1.49c-12.56-4.1-25.16-8.11-37.68-12.33-7.51-2.53-15.19-4.55-22.45-7.8C225,447.19,224.88,446.41,225.76,446.23Z" transform="translate(-224.19 -319.51)"/><path class="cls-8" d="M349.46,449.13a37.63,37.63,0,0,0,9.36-3.47l1.91-.25,4.5-1.49,2.71-.92c.84-.28,1.32-1.81,2.39-1,.88.67.18,1.81.16,2.74-2.39,2.45-5.65,3-8.71,3.92-5.07,1.5-9.81,4.21-15.27,4.33v-3.05Z" transform="translate(-224.19 -319.51)"/><path class="cls-9" d="M333,429c0-1.65.26-3.38-1.47-4.45.87-.53.67-1.38.67-2.18,4.09,1.29,8.26,2.37,12.15,4.25l-.2,6.13h-.65Z" transform="translate(-224.19 -319.51)"/><path class="cls-10" d="M350.26,467.15c-2.76.68-5.21,2.43-8.19,2.38a2.28,2.28,0,0,1-1.58-2.14l2.92-.94a2.13,2.13,0,0,0,1.58-1.26,3.2,3.2,0,0,0,3.5-.81c1.3-.85.87-1.74-.22-2.11a37.35,37.35,0,0,0-4.77-1c-.27-1.6.52-3,.76-4.53a26.14,26.14,0,0,1,7.5,2.35C350.42,461.6,351.7,464.62,350.26,467.15Z" transform="translate(-224.19 -319.51)"/><path class="cls-11" d="M350.26,467.15c1.44-2.52.15-5.54,1.49-8.08a36.28,36.28,0,0,1,5.66,1.79c1.9.95,3.83,2.28,1.9,4.89,0-.91,0-1.67-1.42-1.1C355.41,465.63,352.81,466.33,350.26,467.15Z" transform="translate(-224.19 -319.51)"/><path class="cls-12" d="M365.23,443.92l-4.5,1.49a34.25,34.25,0,0,1-1.48-11.85l5.23,2.25C362.89,438.68,364.12,441.29,365.23,443.92Z" transform="translate(-224.19 -319.51)"/><path class="cls-13" d="M365.23,443.92c-1.11-2.62-2.35-5.24-.75-8.11,6,1,8.12,4.14,6,8.93,0-.93.72-2.07-.16-2.74-1.07-.81-1.55.72-2.39,1Z" transform="translate(-224.19 -319.51)"/><path class="cls-14" d="M359.25,433.56a34.25,34.25,0,0,0,1.48,11.85l-1.91.25c-1.49-.23-2.55-.89-2.55-2.59q0-5.13,0-10.25Z" transform="translate(-224.19 -319.51)"/><path class="cls-15" d="M344.14,432.76l.2-6.13,3.79,1,0,2q0,1.16,0,2.32,0,1.49-.07,3l-3.65-1.52A4.84,4.84,0,0,0,344.14,432.76Z" transform="translate(-224.19 -319.51)"/><path class="cls-16" d="M344.26,456.72c-.24,1.51-1,2.94-.76,4.53h-.75c-1-1.84-2.89-1.72-4.5-2.26q0-2.22,0-4.44A17.37,17.37,0,0,1,344.26,456.72Z" transform="translate(-224.19 -319.51)"/><path class="cls-17" d="M285,467.91v-1.49a20.13,20.13,0,0,1,6.75,2.26l0,1.48A18.86,18.86,0,0,1,285,467.91Z" transform="translate(-224.19 -319.51)"/><path class="cls-18" d="M348.06,432q0-1.16,0-2.32l4.38,1.61c-1.59.72-1.12,2.68-2.23,3.7C350.21,433.49,349.21,432.69,348.06,432Z" transform="translate(-224.19 -319.51)"/><path class="cls-19" d="M346.49,449.93V453a4.84,4.84,0,0,1-3-.09c.07-1.07-.31-2.27.92-3Z" transform="translate(-224.19 -319.51)"/><path class="cls-20" d="M271.39,432.09a12.49,12.49,0,0,1-8.78,0Z" transform="translate(-224.19 -319.51)"/><path class="cls-21" d="M225.76,446.23c-.88.18-.72,1-.89,1.55-1-1.38-1.09-2.52.87-3.07Z" transform="translate(-224.19 -319.51)"/><path class="cls-22" d="M285,402.79a68.22,68.22,0,0,1-14.23-4.7l0-1.34c3.65-.87,7.49-1.11,10.88-3.26-4.27.49-7-3.37-10.89-3.49q0-4.12,0-8.25a2.31,2.31,0,0,1,2.08,1.33c3,5.59,7.23,9.47,14,9.88,4.07.24,7.41-1.8,11-3.11,1.9-.69,1-2.6,1.67-3.85a9.18,9.18,0,0,1,1.63-2,9.51,9.51,0,0,0,2.46-4.56c2-10.17,2.92-20.46-.79-30.35-2.12-5.66-4.52-11.77-11.81-13.08-2.17-.39-3.78-2.4-6.22-2.07-4.91.66-9.83,1.27-14,4.32,0-1.22,0-2.45,0-3.67,0-5.54.27-5.85,6.05-6.84l19.44,6.35a6.76,6.76,0,0,0,1.9,3.11c2.2,2.66,4.76,5.19,6.22,8.23,2.13,4.41,4.1,9,4.71,14,.83,6.93,2.44,13.62-.07,20.78-1.12,3.19-3.19,6.72-2.25,10.57l-7.51,4.48Z" transform="translate(-224.19 -319.51)"/><path class="cls-23" d="M285,402.79l14.27-7.54c.36,2.11,2,1.6,3.25,1.41,6-.94,11.95-2,17.91-3.08l62.05-11.08q0,2.25,0,4.5c-6,1-12,2.07-17.95,3.13q-35.7,6.31-71.4,12.68c-1,.18-2.81,0-2.14,2.06A21.26,21.26,0,0,1,285,402.79Z" transform="translate(-224.19 -319.51)"/><path class="cls-24" d="M291,404.86c-.67-2.1,1.13-1.88,2.14-2.06q35.69-6.39,71.4-12.68c6-1.06,12-2.08,17.95-3.13q0,2.61,0,5.22c-10,.89-19.76,3.26-29.65,4.85q-22.7,3.66-45.28,8.09c-2.51.49-6-.78-7.54,2.71Z" transform="translate(-224.19 -319.51)"/><path class="cls-25" d="M336,419.86a120.13,120.13,0,0,1-15-5.09c1.08-1.9,3.05-1.93,4.84-2.25Q339.89,410,354,407.64l28.5-4.89q0,3.75,0,7.5c-5.14,0-10,1.51-15.06,2.31-9.67,1.54-19.29,3.39-28.92,5.19C337.4,418,335.37,417.48,336,419.86Z" transform="translate(-224.19 -319.51)"/><path class="cls-26" d="M382.46,402.75,354,407.64q-14.07,2.42-28.13,4.88c-1.79.32-3.77.35-4.84,2.25a70.84,70.84,0,0,1-12-3.9c3.21-3,7.42-2.28,11.23-3q31.09-5.64,62.2-11.15Q382.46,399.75,382.46,402.75Z" transform="translate(-224.19 -319.51)"/><path class="cls-27" d="M382.46,396.75q-31.1,5.56-62.2,11.15c-3.81.69-8,0-11.23,3l-9-3c1.54-3.49,5-2.22,7.54-2.71q22.57-4.41,45.28-8.09c9.89-1.59,19.65-4,29.65-4.85l.06.06Q382.5,394.52,382.46,396.75Z" transform="translate(-224.19 -319.51)"/><path class="cls-28" d="M306.76,390.77c-.94-3.85,1.13-7.38,2.25-10.57,2.51-7.17.9-13.85.07-20.78-.6-5-2.57-9.59-4.71-14-1.47-3-4-5.58-6.22-8.23a6.76,6.76,0,0,1-1.9-3.11l7.5,2.78c1.11,3.83,4.8,6.09,6.19,9.57,3.39,8.55,7.18,17.1,7.41,26.51.1,3.88.42,7.58,2.15,11.07l-7.5,4.51Z" transform="translate(-224.19 -319.51)"/><path class="cls-29" d="M319.5,384c-1.73-3.5-2.06-7.19-2.15-11.07-.23-9.41-4-18-7.41-26.51-1.38-3.48-5.07-5.75-6.19-9.57,3.25.21,6,1.83,9,2.92.08,2.77,1.84,4.81,3,7.13,2.31,4.64,5.57,9.13,6.48,14.05,1.22,6.56,3.84,12.7,4.77,19.28l-2.26,1.51C322.67,381.73,321.5,383.82,319.5,384Z" transform="translate(-224.19 -319.51)"/><path class="cls-30" d="M336,419.86c-.61-2.39,1.42-1.91,2.5-2.11,9.63-1.8,19.25-3.65,28.92-5.19,5-.8,9.92-2.36,15.06-2.31q0,3,0,6c-10.22.88-20.18,3.3-30.25,5-1.79.31-4.2-.32-5,2.33Z" transform="translate(-224.19 -319.51)"/><path class="cls-31" d="M327,380.23c-.93-6.58-3.55-12.72-4.77-19.28-.92-4.92-4.18-9.41-6.48-14.05-1.15-2.32-2.91-4.37-3-7.13a15.92,15.92,0,0,1,6,2.16,4.44,4.44,0,0,0,1,3.08c3,4.16,6,8.29,7.46,13.35.43,1.51,1.48,2.84,2.07,4.32,1.78,4.51,4.68,8.66,4.46,13.81Z" transform="translate(-224.19 -319.51)"/><path class="cls-32" d="M382.47,392.22q0-2.61,0-5.22,0-2.25,0-4.5t0-4.5q0-2.62,0-5.25c0-5,0-4.87-5.06-3.93Q360.23,372,343,374.89c-1.32.22-3.38,1.1-4-1.37,1.08-.65,2.45-.91,3-2.26l2.24-.77c1.31.12,2-1.06,3-1.49l3-1.49c.13,1.17.69,1.27,1.8,1,2.42-.49,4.93-.56,7.33-1.09,7.48-1.65,15.23-2,22.53-4.55,1.19.11,1.24,1,1.23,1.88q-.1,13.72-.18,27.45l-.43,0Z" transform="translate(-224.19 -319.51)"/><path class="cls-33" d="M347.25,423.62c.76-2.65,3.16-2,5-2.33,10.07-1.74,20-4.16,30.26-5q0,2.25,0,4.5c-7.16,1.25-14.34,2.42-21.47,3.82-1.63.32-3.86-.22-4.74,2Z" transform="translate(-224.19 -319.51)"/><path class="cls-34" d="M342,371.26c-.55,1.35-1.92,1.61-3,2.26l-1.5.72c-.38-.78-.81-1.53-1.14-2.33-3.52-8.59-6.36-17.49-11.82-25.18a5.31,5.31,0,0,1-1.23-3.44l5.94,1.89c-.25,3,1.54,5.18,3.07,7.42A77.37,77.37,0,0,1,342,371.26Z" transform="translate(-224.19 -319.51)"/><path class="cls-35" d="M381.91,362.92c-7.3,2.54-15,2.9-22.53,4.55-2.41.53-4.91.6-7.33,1.09-1.11.22-1.67.12-1.8-1l3.74-2.26c1.81-.14,2.86-1.78,4.5-2.25l9-5.06A138.45,138.45,0,0,1,381.91,362.92Z" transform="translate(-224.19 -319.51)"/><path class="cls-36" d="M354,365.24l-3.74,2.26-3,1.49a3.22,3.22,0,0,0-.63-2.44c-2.69-2.79-3.91-6.52-5.64-9.83-1.48-2.84-4.36-5.16-4.23-8.79a26.63,26.63,0,0,1,9,3C346.75,356.72,351.4,360.39,354,365.24Z" transform="translate(-224.19 -319.51)"/><path class="cls-37" d="M356.25,426.62c.88-2.26,3.1-1.72,4.74-2,7.13-1.41,14.31-2.57,21.47-3.82q0,2.62,0,5.25c-4.43,0-8.69,1.06-13,2-1.46.33-3.34-.27-4.23,1.61Z" transform="translate(-224.19 -319.51)"/><path class="cls-38" d="M323.31,343.29a5.31,5.31,0,0,0,1.23,3.44c5.46,7.69,8.3,16.59,11.82,25.18.33.8.76,1.56,1.14,2.33l-3.75,2.25c.22-5.15-2.68-9.31-4.46-13.81-.58-1.48-1.64-2.81-2.07-4.32-1.44-5.06-4.46-9.19-7.46-13.35a4.44,4.44,0,0,1-1-3.08A8.7,8.7,0,0,1,323.31,343.29Z" transform="translate(-224.19 -319.51)"/><path class="cls-39" d="M365.27,429.62c.89-1.87,2.77-1.28,4.23-1.61,4.27-1,8.53-2,13-2,.2,1.21-.33,2.53.5,3.65.47,6.25.46,6.27-5.27,4.32C373.55,432.55,369.42,431.07,365.27,429.62Z" transform="translate(-224.19 -319.51)"/><path class="cls-40" d="M336.75,347.94c-.13,3.63,2.75,6,4.23,8.79,1.72,3.31,2.94,7,5.64,9.83a3.22,3.22,0,0,1,.63,2.44c-1,.43-1.7,1.61-3,1.49-1.75-5.3-5.15-9.75-7.57-14.68-1.53-3.11-5.13-5.34-4.37-9.5Z" transform="translate(-224.19 -319.51)"/><path class="cls-27" d="M354,365.24c-2.59-4.85-7.25-8.52-8.24-14.3,2.94.21,5.53,1.56,8.25,2.5.75,3.54,3.17,6.29,4.5,9.55C356.86,363.46,355.8,365.11,354,365.24Z" transform="translate(-224.19 -319.51)"/><path class="cls-41" d="M276.81,327.72c-5.78,1-6.06,1.3-6.05,6.84,0,1.22,0,2.45,0,3.67q0,2.25,0,4.51V358.5q0,7.87,0,15.75v7.5q0,4.12,0,8.25,0,3.38,0,6.75l0,1.34c-1.33-1.07-.64-2.55-.65-3.81q-.08-32.14,0-64.28c0-4.83,0-4.83,4.74-3.18C275.49,327.07,276.14,327.42,276.81,327.72Z" transform="translate(-224.19 -319.51)"/><path class="cls-42" d="M332.3,346.3c-.77,4.16,2.84,6.39,4.37,9.5,2.42,4.94,5.82,9.38,7.57,14.68l-2.24.77a77.37,77.37,0,0,0-9.68-18.66c-1.53-2.23-3.33-4.42-3.07-7.42Z" transform="translate(-224.19 -319.51)"/><path class="cls-43" d="M358.5,363c-1.32-3.27-3.75-6-4.5-9.55l13.45,4.5Z" transform="translate(-224.19 -319.51)"/><path class="cls-24" d="M383,429.65c-.83-1.13-.3-2.44-.5-3.65q0-2.62,0-5.25,0-2.25,0-4.5,0-3,0-6,0-3.75,0-7.5,0-3,0-6,0-2.23.07-4.47l.43,0Q383,410.95,383,429.65Z" transform="translate(-224.19 -319.51)"/><path class="cls-44" d="M264.76,453.76a2.46,2.46,0,0,0-.6-.07,8.33,8.33,0,0,0-3.9-1.43,3,3,0,0,0-.64-.06c-.49-1-2.54-.29-2.3-2.09l.6-.18a2.11,2.11,0,0,0,1.58-1.4l1.49.2,1.57,1.24,3.73.73a1.84,1.84,0,0,0,2.2.24,1.25,1.25,0,0,0,.83,1.28L273,453a1.81,1.81,0,0,0,2.19.23c.66,2,2.27,2.07,4,2l2,.8c1.54.67,2.92,1.85,4.78,1.45l2,.8c1.55.68,3,1.87,4.83,1.43l1.88.8c1.11,1.12,2.78-.7,3.83.72l0,.87c-1.52-.11-2.63.86-3.89,1.44h-.31l-.31,0a5.93,5.93,0,0,0-3.72-.74l-6-2.3c-2.42-2-5.47-2.14-8.3-2.95a2.91,2.91,0,0,0-.59-.09,8.43,8.43,0,0,0-3.92-1.42,2.85,2.85,0,0,0-.58-.08l-3.21-1.35Z" transform="translate(-224.19 -319.51)"/><path class="cls-45" d="M242.25,442.5c1.48-2.14,3.75-2.18,6-2.25l.79.76c1.16.68,2.22,1.88,3.72.68l1.44.78c.83.94,2.17,1.51,2.21,3l-.71,0-2.78.17c-2.08-.45-3.95-1.71-6.16-1.67A7.78,7.78,0,0,0,242.25,442.5Z" transform="translate(-224.19 -319.51)"/><path class="cls-46" d="M330.73,469.53l0,.86c-1.19-1.16-2.47-.05-3.7-.15l-.77,0-2.3-.71A6.94,6.94,0,0,0,319.5,468l-1.47-.82V465l1.58-.13,1.4.18c1.37,1.22,3,.43,4.57.68C326.09,468.67,329.93,467,330.73,469.53Z" transform="translate(-224.19 -319.51)"/><path class="cls-47" d="M267.73,437.24c1.5.37,2.79-1.08,4.37-.45,1.29.52,2.73.79,2.38,2.7l-.85.06c-1.2,0-2.66-.61-2.86,1.4-.65,1.17-1.34.5-2,0l-1,0c0-1.54-1.4-1.72-2.36-2.31.35-.62,1.53-.36,1.49-1.4Z" transform="translate(-224.19 -319.51)"/><path class="cls-48" d="M273.63,439.54l.85-.06c1.55.37,2.89-1.1,4.56-.4,1.31.55,2.45,1,2.28,2.69h-.1c-1.58-.39-3.19-.89-3.7,1.45A1.53,1.53,0,0,1,276,444c.4-1.72-.76-1-1.48-.94-.16-1.41-1.45-1.54-2.36-2.1C272.5,440.33,273.67,440.59,273.63,439.54Z" transform="translate(-224.19 -319.51)"/><path class="cls-49" d="M267.73,437.24l-.85.06c-1.21,0-2.68-.61-2.87,1.42-.66,1.16-1.34.48-2,0h-1c-.06-.79.17-1.68-.72-2.2C263.68,433.41,266.57,433.68,267.73,437.24Z" transform="translate(-224.19 -319.51)"/><path class="cls-50" d="M318,465q0,1.07,0,2.13c-1.73,1.42,1.41.66.72,1.61l-3.86,1.45h-.5l-3.91-1.51-.19-.2,1.56-.62c1.34-.85,3.5-.13,4.2-2.19l1.22-.75Z" transform="translate(-224.19 -319.51)"/><path class="cls-51" d="M328.49,456.79h.77a4.67,4.67,0,0,0,.72,2.89v.86c-1.49-.12-2.57.89-3.85,1.36a7.4,7.4,0,0,0-3.66-.68l-.91-.8c.27-.77,1-.6,1.58-.81,1-1.28,2.85-.15,3.94-1.26.56-.09,1.13-.18,1.37-.81Z" transform="translate(-224.19 -319.51)"/><path class="cls-52" d="M301.46,448.45a19.4,19.4,0,0,1,4.2-.39c1.38.16,2.92.67,2.59,2.7l-.1.06c-1-.71-1.89-.28-2.83,0l-3,.11c-.81-1-2.63.15-3.12-1.5.81-.14,1.73,0,2.21-.93Z" transform="translate(-224.19 -319.51)"/><path class="cls-53" d="M308.25,450.76c2.34.09,5.22-2.23,6.75,1.51l0,.82c-1-.81-1.94-.39-2.91,0l-3,.15c-.8-1-2.25,0-3.08-1a2.34,2.34,0,0,0,.19-.51c.7-.21,1.6,0,2-.93Z" transform="translate(-224.19 -319.51)"/><path class="cls-54" d="M308.13,468h-.44l-4-1.49-.19-.14,1.58-.68c.85-.11,1.25-.74,1.62-1.4l3,.08c0,1.57,1.75,1.19,2.28,2.15Z" transform="translate(-224.19 -319.51)"/><path class="cls-55" d="M323.92,469.52l2.3.71c-1,1.8-2.63,2.19-4.46,2.27l-3.65-1.41-1.09-.19,1.63-.76a1.24,1.24,0,0,0,1-1.17A9.44,9.44,0,0,0,323.92,469.52Z" transform="translate(-224.19 -319.51)"/><path class="cls-56" d="M255.69,445.52l.71,0,.15.14,0,1.4.75,1.48L254.13,450h-.27l-.27,0a3.19,3.19,0,0,1-2.31-.78l-.75-1.27a4.48,4.48,0,0,1,.63-.27l1.71-.78C254,446.78,255.24,447,255.69,445.52Z" transform="translate(-224.19 -319.51)"/><path class="cls-57" d="M338.25,459c1.61.54,3.55.42,4.5,2.26L342,462l-1.2-.06-1,.64-2.28-.69c-1.18-.61-2.32-1.24-1.51-2.89h0A2,2,0,0,0,338.25,459Z" transform="translate(-224.19 -319.51)"/><path class="cls-58" d="M297.68,464.41l.08-.78a6,6,0,0,1,.61-.29c1.06-1.26,2.87-.1,4-1.24a3.24,3.24,0,0,1,.63,0c0,1.57,1.73,1.21,2.28,2.16l-3.86,1.5h-.44Z" transform="translate(-224.19 -319.51)"/><path class="cls-59" d="M328.49,456.79l0,.77c-1-.81-2-.36-2.94,0l-2.3-.06-1.53-1.57q0-.3,0-.6l0-.77C324,455.39,327.14,453.35,328.49,456.79Z" transform="translate(-224.19 -319.51)"/><path class="cls-60" d="M321.75,454.55l0,.77c-1-.77-1.95-.37-2.92,0l-2.28,0L315,453.65a2.7,2.7,0,0,1,0-.56l0-.82C317.2,453.16,320.41,451.09,321.75,454.55Z" transform="translate(-224.19 -319.51)"/><path class="cls-46" d="M288,443.29a22.33,22.33,0,0,1,4,.19c1.38.3,3,.63,2.81,2.72l0,0c-1.24-.7-2.47,0-3.71,0l-3-.78,0-.85q0-.31,0-.63T288,443.29Z" transform="translate(-224.19 -319.51)"/><path class="cls-59" d="M330,459.69a4.67,4.67,0,0,1-.72-2.89c2.3.55,5.14-.52,6.73,2.2h0l-2.93,1.36Z" transform="translate(-224.19 -319.51)"/><path class="cls-46" d="M294.8,446.2c1.48.49,2.74-1.08,4.3-.41,1.25.54,2.7.76,2.36,2.65v.09c-1.22-.82-2.43,0-3.65,0l-3-.79,0-.83q0-.34,0-.68Z" transform="translate(-224.19 -319.51)"/><path class="cls-61" d="M288,443.29q0,.37,0,.74c-1.23-.77-2.45,0-3.68,0h-2.2a1.67,1.67,0,0,1-.88-1.61,1.92,1.92,0,0,0,0-.66h.1C283.7,441.6,286.31,440.4,288,443.29Z" transform="translate(-224.19 -319.51)"/><path class="cls-62" d="M240.6,445.46c-1.25-.2-2.82.67-3.61-1-.12-.26-.08-.86.08-.94,1.69-.9,3.44-1.36,5.26-.29l.85.95Z" transform="translate(-224.19 -319.51)"/><path class="cls-61" d="M249,441l-.79-.76c1.74-1.46,3.81-1.57,5.94-1.5.45,1.06,2.41.6,2.28,2.25v0c-1.23-.87-2.43,0-3.65.06Z" transform="translate(-224.19 -319.51)"/><path class="cls-63" d="M260.27,436.54c.9.52.67,1.4.72,2.2v.87c-1-.83-1.94-.31-2.92,0l-3-.93C256,436,258.46,437.07,260.27,436.54Z" transform="translate(-224.19 -319.51)"/><path class="cls-64" d="M244.52,446.94l-.75-1.25a6.55,6.55,0,0,1,.64-.27l2.34-.82c1.18.43,2.51.58,3.22,1.83l-2.61,1.29-.27,0-.27,0A3.18,3.18,0,0,1,244.52,446.94Z" transform="translate(-224.19 -319.51)"/><path class="cls-65" d="M276,457.52c2.83.8,5.88,1,8.3,2.95A8.76,8.76,0,0,1,276,457.52Z" transform="translate(-224.19 -319.51)"/><path class="cls-66" d="M330.73,469.53c-.8-2.52-4.64-.87-5.17-3.76l8.3,2.35-.73,1.28Z" transform="translate(-224.19 -319.51)"/><path class="cls-67" d="M246.76,444.59l-2.34.82c.08-.9-.45-1.22-1.25-1.27l-.85-.95a3.66,3.66,0,0,1-.07-.7,7.78,7.78,0,0,1,4.49,1.53Q246.75,444.31,246.76,444.59Z" transform="translate(-224.19 -319.51)"/><path class="cls-68" d="M333.14,469.4l.73-1.28,3.64-.89.07.81A6.89,6.89,0,0,1,333.14,469.4Z" transform="translate(-224.19 -319.51)"/><path class="cls-69" d="M271.51,456a8.43,8.43,0,0,1,3.92,1.42C273.62,458.35,272.29,458,271.51,456Z" transform="translate(-224.19 -319.51)"/><path class="cls-70" d="M254.13,450l3.14-1.45a1.38,1.38,0,0,1,.66,1.42l-.6.18-.83.29C255.65,450.56,254.66,451.48,254.13,450Z" transform="translate(-224.19 -319.51)"/><path class="cls-71" d="M260.26,452.26a8.33,8.33,0,0,1,3.9,1.43C262.37,454.57,261,454.23,260.26,452.26Z" transform="translate(-224.19 -319.51)"/><path class="cls-72" d="M243.17,444.14c.8,0,1.32.37,1.25,1.27a6.54,6.54,0,0,0-.64.27c-1.06-.1-2.26,1.7-3.18-.23Z" transform="translate(-224.19 -319.51)"/><path class="cls-73" d="M318.1,471.09l3.65,1.41C319.92,473.63,318.53,473.6,318.1,471.09Z" transform="translate(-224.19 -319.51)"/><path class="cls-70" d="M247.37,447.71l2.61-1.29c.75.07,1.26.37,1.17,1.23a4.48,4.48,0,0,0-.63.27C249.48,447.8,248.3,449.61,247.37,447.71Z" transform="translate(-224.19 -319.51)"/><path class="cls-74" d="M298.37,463.34a6,6,0,0,0-.61.29c-1-.32-2.19,1.62-3.16-.15,1.26-.58,2.38-1.55,3.89-1.44Z" transform="translate(-224.19 -319.51)"/><path class="cls-75" d="M301.39,465.72l3.86-1.5-.11,1.43-1.58.68C302.77,466.33,301.82,467,301.39,465.72Z" transform="translate(-224.19 -319.51)"/><path class="cls-76" d="M343.41,466.44l-2.92.94-.77,0,0-1L343.5,465Z" transform="translate(-224.19 -319.51)"/><path class="cls-77" d="M256.49,450.4l.83-.29c-.23,1.8,1.81,1.09,2.3,2.09C257.54,453.41,256.8,452.28,256.49,450.4Z" transform="translate(-224.19 -319.51)"/><path class="cls-78" d="M339.69,466.45l0,1-2.15.61-.07-.81L336,465.77Z" transform="translate(-224.19 -319.51)"/><path class="cls-75" d="M308.13,468l3.86-1.49-.15,1.43-1.56.62C309.5,468.61,308.59,469.2,308.13,468Z" transform="translate(-224.19 -319.51)"/><path class="cls-66" d="M267.72,454.59l3.21,1.35c-1.57,1.27-2.74,0-4-.62Z" transform="translate(-224.19 -319.51)"/><path class="cls-72" d="M318.63,470.14l-1.63.76c-.76-.06-1.73.56-2.12-.68l3.86-1.45Z" transform="translate(-224.19 -319.51)"/><path class="cls-79" d="M297.68,464.41l3.26,1.3C299.24,466.83,298.16,466.38,297.68,464.41Z" transform="translate(-224.19 -319.51)"/><path class="cls-80" d="M255.06,438.63l3,.93-.16.74-1.43.7c.13-1.65-1.83-1.19-2.28-2.25Z" transform="translate(-224.19 -319.51)"/><path class="cls-81" d="M303.74,466.46l4,1.49C305.86,468.83,304.5,468.44,303.74,466.46Z" transform="translate(-224.19 -319.51)"/><path class="cls-81" d="M310.48,468.72l3.91,1.51C312.58,471,311.23,470.67,310.48,468.72Z" transform="translate(-224.19 -319.51)"/><path class="cls-79" d="M290.28,462.76a5.93,5.93,0,0,1,3.72.74C292.47,464.72,291.43,463.43,290.28,462.76Z" transform="translate(-224.19 -319.51)"/><path class="cls-82" d="M244.52,446.94a3.18,3.18,0,0,0,2.31.78c-1.1,1.51-2.28.56-3.12-.15C243.23,447.17,244.17,447.09,244.52,446.94Z" transform="translate(-224.19 -319.51)"/><path class="cls-83" d="M251.27,449.19a3.19,3.19,0,0,0,2.31.78c-1.09,1.5-2.27.54-3.1-.15C250,449.41,250.92,449.34,251.27,449.19Z" transform="translate(-224.19 -319.51)"/><path class="cls-84" d="M267.72,454.59l-.8.73c-1.06,0-2.13-.08-2.16-1.55Z" transform="translate(-224.19 -319.51)"/><path class="cls-85" d="M327,470.24c1.23.1,2.51-1,3.7.15C329.42,471.11,328.15,471.81,327,470.24Z" transform="translate(-224.19 -319.51)"/><path class="cls-86" d="M333,429l10.49,3.75c.42,3.17-.54,4.49-3.8,2.91a10.44,10.44,0,0,0-2.78-.94C333.59,434.16,332.42,432.2,333,429Z" transform="translate(-224.19 -319.51)"/><path class="cls-87" d="M344.33,433.47,348,435l0,.76L344.33,437Z" transform="translate(-224.19 -319.51)"/><path class="cls-88" d="M346.49,449.93l-2.07,0q-.13-.26-.25-.53c1.7-1.43,3.48-1.17,5.29-.25Z" transform="translate(-224.19 -319.51)"/><path class="cls-89" d="M348,435.75l0-.76q0-1.49.07-3c1.15.69,2.15,1.49,2.19,3Z" transform="translate(-224.19 -319.51)"/><path class="cls-90" d="M300.59,435.1a4.63,4.63,0,0,1-2.82-.92C299.09,433.33,300,433.79,300.59,435.1Z" transform="translate(-224.19 -319.51)"/><path class="cls-57" d="M342,462l.73-.75h.75a37.34,37.34,0,0,1,4.77,1c1.09.37,1.51,1.27.22,2.11-1.12-1.23-2.31.06-3.46-.09C344.11,463.41,342,464.12,342,462Z" transform="translate(-224.19 -319.51)"/><path class="cls-91" d="M342,462c0,2.12,2.09,1.42,3,2.29l0,.91a2.13,2.13,0,0,1-1.58,1.26l.09-1.46c-1.12-.82-2.48-1.42-2.69-3Z" transform="translate(-224.19 -319.51)"/><path class="cls-92" d="M345,465.19l0-.91c1.15.15,2.34-1.14,3.46.09A3.2,3.2,0,0,1,345,465.19Z" transform="translate(-224.19 -319.51)"/><path class="cls-93" d="M270.77,342.75q0-2.25,0-4.51c4.17-3,9.09-3.65,14-4.32,2.44-.33,4,1.69,6.22,2.07.55.67,1.07,1.37,1.65,2,2,2.31,4.94,4.35,6.14,6.83,2.93,6,2.68,13,3.41,19.61.06.58-.38,1.19-.42,1.8-.21,3.45-3.82,5.42-4,8.68-.3,4.57-3.44,6.55-6.73,8.59-3.77,2.33-11.62-.09-13.46-4.19a8.25,8.25,0,0,0-6.78-5.08q0-7.87,0-15.75c.44.2,1.21.35,1.26.62.94,5.31,5.89,7,9.16,10.16,1.85,1.79,5.72,1.78,5.83.54.29-3.3,2.89-3.15,4.46-4.41,2.32-1.86,4.21-4.38,4.36-7a31.85,31.85,0,0,0-2-13.87c-2.5-6.3-13.53-12.09-19.31-4.52C273.64,341.19,272.65,342.67,270.77,342.75Z" transform="translate(-224.19 -319.51)"/><path class="cls-94" d="M270.78,374.25a8.25,8.25,0,0,1,6.78,5.08c1.84,4.1,9.69,6.52,13.46,4.19,3.29-2,6.42-4,6.73-8.59.22-3.27,3.83-5.23,4-8.68,0-.61.48-1.22.42-1.8-.74-6.62-.49-13.56-3.41-19.61-1.2-2.48-4.09-4.52-6.14-6.83-.57-.65-1.1-1.34-1.65-2,7.29,1.31,9.69,7.42,11.81,13.08,3.71,9.89,2.82,20.18.79,30.35a9.51,9.51,0,0,1-2.46,4.56,9.18,9.18,0,0,0-1.63,2c-.62,1.25.23,3.15-1.67,3.85-3.59,1.31-6.93,3.35-11,3.11-6.75-.4-11-4.28-14-9.88a2.31,2.31,0,0,0-2.08-1.33Q270.78,378,270.78,374.25Z" transform="translate(-224.19 -319.51)"/><path class="cls-95" d="M382.46,378q0,2.25,0,4.5l-62.05,11.08c-6,1.06-11.93,2.13-17.91,3.08-1.21.19-2.89.69-3.25-1.41l7.51-4.48,5.25-2.26c.58,1.57,1.77.94,2.82.76,15.34-2.64,30.68-5.37,46-7.9C368,380.19,375.13,378.29,382.46,378Z" transform="translate(-224.19 -319.51)"/><path class="cls-96" d="M270.78,396.75q0-3.38,0-6.75c3.91.12,6.61,4,10.89,3.49C278.28,395.65,274.43,395.88,270.78,396.75Z" transform="translate(-224.19 -319.51)"/><path class="cls-97" d="M382.46,378c-7.33.29-14.41,2.19-21.6,3.37-15.36,2.53-30.69,5.26-46,7.9-1.05.18-2.24.82-2.82-.76l7.5-4.51c2-.18,3.16-2.27,5.24-2.26.86,1.07,2,.8,3.09.61l54.63-9.6Q382.46,375.38,382.46,378Z" transform="translate(-224.19 -319.51)"/><path class="cls-98" d="M382.46,372.75l-54.63,9.6c-1.09.19-2.23.46-3.09-.61l2.26-1.51,6.75-3.74,3.75-2.25,1.5-.72c.63,2.47,2.69,1.59,4,1.37q17.22-2.87,34.38-6.06C382.51,367.88,382.5,367.77,382.46,372.75Z" transform="translate(-224.19 -319.51)"/><path class="cls-99" d="M270.77,342.75c1.87-.08,2.87-1.55,3.8-2.77,5.78-7.57,16.81-1.78,19.31,4.52a31.85,31.85,0,0,1,2,13.87c-.15,2.67-2,5.18-4.36,7-1.57,1.26-4.17,1.12-4.46,4.41-.11,1.24-4,1.25-5.83-.54-3.27-3.17-8.22-4.85-9.16-10.16,0-.27-.82-.41-1.26-.62Q270.77,350.63,270.77,342.75Zm11.39-3c-3.63.07-6.94,3.18-6.9,6.48.07,6.14,3.2,10.19,7.74,10,2.74-.1,6.71-3.6,6.8-6C290,344.66,286.38,339.67,282.16,339.75Z" transform="translate(-224.19 -319.51)"/><path class="cls-100" d="M279.21,455.17c-1.7.09-3.31,0-4-2l1.47-.84,0-.82c1.1.33,2.43,1.74,3-.62a3.25,3.25,0,0,0,3.62-.8l.15-.07c.77-.17,1.7.17,2.26-.7l1.42.57c.83.44,1.83.64,2.32,1.58l-2.87.82c-.55,1.53-4.13-3.39-3.11,1.47l0,.77C281.91,453.72,280.55,454.37,279.21,455.17Z" transform="translate(-224.19 -319.51)"/><path class="cls-101" d="M283.48,454.54l0-.77c1,.42,2,1.25,3,.11,1.2-.63,2.74-.5,3.7-1.67h2.22l3.27.73.57.81-2.89.79c-.54,1.53-4.13-3.39-3.11,1.47l0,.78c-1.57-.81-2.93-.19-4.27.62-1.86.4-3.24-.78-4.78-1.45C281.73,455.14,283.14,455.7,283.48,454.54Z" transform="translate(-224.19 -319.51)"/><path class="cls-102" d="M290.23,456.79l0-.78c.75.24,1.52,1.17,2.25,0l2.22,0c.21.87,1.47,0,1.62,1l.67,1.27,0,.81c-1.57-.84-2.91-.16-4.24.64-1.88.44-3.28-.74-4.83-1.43C288.48,457.39,289.88,457.95,290.23,456.79Z" transform="translate(-224.19 -319.51)"/><path class="cls-56" d="M297,459l0-.81c.82.94,1.59.48,2.35-.09l2.12.1c.39,1.33,1.69-.07,2.25.76v2.37c-1-.83-2-.37-2.93,0l-2.32-.13c-1.05-1.43-2.72.4-3.83-.72C295.23,459.64,296.67,460.22,297,459Z" transform="translate(-224.19 -319.51)"/><path class="cls-45" d="M276.75,451.52l0,.82c-1.21-.86-2.43,0-3.65,0-1.25.23-2.45-1.77-3.73-.09a1.25,1.25,0,0,1-.83-1.28c.56-.18,1.23-.19,1.45-.91L270,450c1.12-.09,2.6.61,2.92-1.29l1.53.08C274.6,450.19,276.47,450.21,276.75,451.52Z" transform="translate(-224.19 -319.51)"/><path class="cls-56" d="M262.56,450,261,448.74c.81-.17,1.76,0,2.22-1l.07-.07c1.13-.09,2.61.61,2.93-1.3l.78,0c.2,1.89,3.3,1.29,3,3.56l-.09.08c-1.22-.77-2.42,0-3.63,0C265.06,450.31,263.85,448.31,262.56,450Z" transform="translate(-224.19 -319.51)"/><path class="cls-103" d="M290.23,456.79c-.35,1.15-1.75.6-2.3,1.42l-2-.8C287.3,456.61,288.66,456,290.23,456.79Z" transform="translate(-224.19 -319.51)"/><path class="cls-104" d="M297,459c-.33,1.22-1.77.64-2.36,1.44l-1.88-.8C294.09,458.84,295.43,458.16,297,459Z" transform="translate(-224.19 -319.51)"/><path class="cls-105" d="M257.92,449.94a1.38,1.38,0,0,0-.66-1.42l-.75-1.48,3,.76-.06.74A2.11,2.11,0,0,1,257.92,449.94Z" transform="translate(-224.19 -319.51)"/><path class="cls-106" d="M283.48,454.54c-.34,1.16-1.75.6-2.3,1.42l-2-.8C280.55,454.37,281.91,453.72,283.48,454.54Z" transform="translate(-224.19 -319.51)"/><path class="cls-107" d="M298.47,461.16l2.32.13c.19.89,1,.65,1.55.81-1.1,1.14-2.91,0-4,1.24l.13-1.31Z" transform="translate(-224.19 -319.51)"/><path class="cls-85" d="M273.06,452.31c1.22,0,2.44-.83,3.65,0l-1.47.84A1.81,1.81,0,0,1,273,453,.87.87,0,0,1,273.06,452.31Z" transform="translate(-224.19 -319.51)"/><path class="cls-85" d="M266.31,450.07c1.21,0,2.42-.8,3.63,0-.23.72-.89.73-1.45.91a1.84,1.84,0,0,1-2.2-.24A.91.91,0,0,1,266.31,450.07Z" transform="translate(-224.19 -319.51)"/><path class="cls-85" d="M259.5,448.54l.06-.74c1.22,0,2.43-.78,3.65,0-.46,1-1.42.79-2.22,1Z" transform="translate(-224.19 -319.51)"/><path class="cls-108" d="M273.06,452.31a.87.87,0,0,0,0,.64l-3.72-.73C270.61,450.54,271.81,452.54,273.06,452.31Z" transform="translate(-224.19 -319.51)"/><path class="cls-67" d="M266.31,450.07a.91.91,0,0,0,0,.64l-3.73-.73C263.85,448.31,265.06,450.31,266.31,450.07Z" transform="translate(-224.19 -319.51)"/><path class="cls-109" d="M256.47,441l1.43-.7c.77.59,1.55-.06,2.33,0,.39,1.57,3.11.85,2.92,3h0c-1.4-.52-2.71-.65-3.66.83-.25,1.91-1.87,1.13-2.91,1.48l-.15-.14c0-1.52-1.38-2.08-2.21-3,.35-1.12,1.87-.42,2.28-1.45Z" transform="translate(-224.19 -319.51)"/><path class="cls-110" d="M251.15,447.65c.08-.86-.42-1.17-1.17-1.23-.71-1.25-2-1.4-3.22-1.83q0-.29,0-.57c2.22,0,4.08,1.22,6.16,1.67l0,1.19Z" transform="translate(-224.19 -319.51)"/><path class="cls-85" d="M256.47,441c-.41,1-1.93.33-2.28,1.45l-1.44-.78a2.07,2.07,0,0,1,.06-.61C254,441.05,255.24,440.14,256.47,441Z" transform="translate(-224.19 -319.51)"/><path class="cls-67" d="M252.82,441.08a2.07,2.07,0,0,0-.06.61c-1.5,1.2-2.56,0-3.72-.68Z" transform="translate(-224.19 -319.51)"/><path class="cls-111" d="M252.86,446.88l0-1.19,2.78-.17C255.24,447,254,446.78,252.86,446.88Z" transform="translate(-224.19 -319.51)"/><path class="cls-56" d="M336,465.77l1.49,1.46-3.64.89-8.3-2.35c-1.52-.26-3.19.54-4.56-.68l3.12-1.51,2.18-.87,2-.09c1.35,1.26,2.62,2.67,4.74,2.38l2.07-.07Z" transform="translate(-224.19 -319.51)"/><path class="cls-67" d="M318,465l-.74-.07a1.34,1.34,0,0,0-1.43-1.49c1.57-1.56,3,.61,4.53.18l-.77,1.25Z" transform="translate(-224.19 -319.51)"/><path class="cls-112" d="M319.6,464.9l.77-1.25,3.63-.91.12.83L321,465.09Z" transform="translate(-224.19 -319.51)"/><path class="cls-110" d="M323.92,469.52a9.42,9.42,0,0,1-4.3-.55l-.11-1A6.94,6.94,0,0,1,323.92,469.52Z" transform="translate(-224.19 -319.51)"/><path class="cls-110" d="M319.5,468l.11,1a1.23,1.23,0,0,1-1,1.18l.12-1.37c.68-1-2.46-.18-.72-1.61Z" transform="translate(-224.19 -319.51)"/><path class="cls-54" d="M272.13,440.94c.91.56,2.2.69,2.36,2.1-.87.42-2.07.4-2.26,1.71l-1.37-.74c-.8-.94-3.16-.79-2.11-3,.68.46,1.37,1.13,2,0Z" transform="translate(-224.19 -319.51)"/><path class="cls-113" d="M262,438.74c.68.45,1.37,1.13,2,0l1.38,0c1,.59,2.32.77,2.36,2.31l0,.87c-.95-.85-1.93-.33-2.91-.08C263.76,440.89,261.11,441.45,262,438.74Z" transform="translate(-224.19 -319.51)"/><path class="cls-114" d="M267.74,441.88l0-.87,1,0c-1,2.23,1.32,2.08,2.11,3l-.85.67c-.63-.91-2.43-.66-2.29-2.33A.66.66,0,0,1,267.74,441.88Z" transform="translate(-224.19 -319.51)"/><path class="cls-115" d="M272.13,440.94h-1.36c.2-2,1.66-1.44,2.86-1.4C273.67,440.59,272.5,440.33,272.13,440.94Z" transform="translate(-224.19 -319.51)"/><path class="cls-74" d="M265.39,438.69l-1.38,0c.19-2,1.66-1.46,2.87-1.42C266.91,438.33,265.74,438.08,265.39,438.69Z" transform="translate(-224.19 -319.51)"/><path class="cls-59" d="M281.23,442.44a1.67,1.67,0,0,0,.88,1.61,2.6,2.6,0,0,0-.1.71c-.89.9-2.7.56-3,2.24l-1.38-.78c-.49-1-2.54-.31-2.3-2.12A2.58,2.58,0,0,1,276,444a1.53,1.53,0,0,0,1.54-.77Z" transform="translate(-224.19 -319.51)"/><path class="cls-116" d="M281.23,442.44l-3.72.78c.51-2.34,2.13-1.84,3.7-1.45A1.93,1.93,0,0,1,281.23,442.44Z" transform="translate(-224.19 -319.51)"/><path class="cls-70" d="M276,444a2.58,2.58,0,0,0-.65.12l-.82.32-2.26.33c.19-1.31,1.39-1.29,2.26-1.71C275.2,443,276.37,442.27,276,444Z" transform="translate(-224.19 -319.51)"/><path class="cls-69" d="M262,438.74c-.87,2.7,1.78,2.14,2.84,3.06.15.88.89.76,1.48.88-.92.88-2.12.38-3.16.64.19-2.13-2.53-1.42-2.92-3l.76-.73v-.87Z" transform="translate(-224.19 -319.51)"/><path class="cls-117" d="M315.84,463.48a1.34,1.34,0,0,1,1.43,1.49l-1.22.75c-2.27.64-4.05-.36-5.75-1.66a1.3,1.3,0,0,1,.13-.54,3.59,3.59,0,0,0,2.43-.89H315Z" transform="translate(-224.19 -319.51)"/><path class="cls-118" d="M310.3,464.06c1.7,1.3,3.49,2.3,5.75,1.66-.7,2.06-2.86,1.34-4.2,2.19l.15-1.43c-.53-1-2.33-.58-2.28-2.15A.83.83,0,0,1,310.3,464.06Z" transform="translate(-224.19 -319.51)"/><path class="cls-55" d="M315.84,463.48l-.87-.85,2.33-1.33,2.19-.68,2.09-.18.91.8,1.5,1.5-3.63.91C318.84,464.08,317.42,461.92,315.84,463.48Z" transform="translate(-224.19 -319.51)"/><path class="cls-74" d="M328.28,462.61l-2,.09-.15-.79c1.28-.47,2.36-1.48,3.85-1.36l-.13,1.27Z" transform="translate(-224.19 -319.51)"/><path class="cls-119" d="M321.58,460.43l-2.09.18,0-.92c1.31-.35,2.3-1.58,3.81-1.38l-.09,1.31C322.6,459.84,321.85,459.67,321.58,460.43Z" transform="translate(-224.19 -319.51)"/><path class="cls-120" d="M326.15,461.92l.15.79-2.18.87-.12-.83-1.5-1.5A7.4,7.4,0,0,1,326.15,461.92Z" transform="translate(-224.19 -319.51)"/><path class="cls-121" d="M323.16,459.63l.09-1.31v-.83l2.3.06c.2.89,1,.64,1.56.82C326,459.48,324.2,458.35,323.16,459.63Z" transform="translate(-224.19 -319.51)"/><path class="cls-122" d="M329.87,461.83l.13-1.27v-.86l3.09.67C332.41,461.74,330.65,460.7,329.87,461.83Z" transform="translate(-224.19 -319.51)"/><path class="cls-123" d="M327.1,458.37c-.57-.18-1.37.07-1.56-.82,1-.34,2-.79,2.94,0C328.23,458.19,327.67,458.28,327.1,458.37Z" transform="translate(-224.19 -319.51)"/><path class="cls-124" d="M299.24,449.47c.49,1.65,2.31.52,3.12,1.5l-.31,1-2.85,1-3-.78-.73-1.23a2.57,2.57,0,0,1,.65-.27,2.19,2.19,0,0,0,1.59-1.4Z" transform="translate(-224.19 -319.51)"/><path class="cls-125" d="M302,452l.31-1,3-.11.88.89a2.34,2.34,0,0,1-.19.51,5.08,5.08,0,0,0-3.08.61Z" transform="translate(-224.19 -319.51)"/><path class="cls-85" d="M299.24,449.47l-1.49-.2a1.18,1.18,0,0,1,.05-.73c1.22,0,2.43-.83,3.65,0C301,449.47,300,449.32,299.24,449.47Z" transform="translate(-224.19 -319.51)"/><path class="cls-85" d="M306.19,451.74l-.88-.89c.94-.32,1.88-.76,2.83,0C307.79,451.74,306.89,451.53,306.19,451.74Z" transform="translate(-224.19 -319.51)"/><path class="cls-126" d="M302.92,452.86a5.08,5.08,0,0,1,3.08-.61c.83,1,2.28-.06,3.08,1l-.94,1.18-2.21.78-2.93-.75-.74-1.23Z" transform="translate(-224.19 -319.51)"/><path class="cls-125" d="M308.14,454.4l.94-1.18,3-.15.87.91c-.94.8-2.45,0-3.26,1.12C309.36,454.43,308.7,454.52,308.14,454.4Z" transform="translate(-224.19 -319.51)"/><path class="cls-123" d="M312.93,454l-.87-.91c1-.38,1.95-.8,2.91,0a2.7,2.7,0,0,0,0,.56Z" transform="translate(-224.19 -319.51)"/><path class="cls-127" d="M305.13,465.65l.11-1.43c-.55-.94-2.32-.59-2.28-2.16a.54.54,0,0,1,.53-.21c.76,1.22,2.28.95,3.28,1.69a1,1,0,0,0,0,.71C306.38,464.91,306,465.54,305.13,465.65Z" transform="translate(-224.19 -319.51)"/><path class="cls-123" d="M306.75,464.25a1,1,0,0,1,0-.71c1.23,0,2.47-.87,3.7,0l-.06,0a1.3,1.3,0,0,0-.13.54.83.83,0,0,0-.58.27Z" transform="translate(-224.19 -319.51)"/><path class="cls-128" d="M256.55,445.64c1-.34,2.66.43,2.91-1.48l1.47.55a3.8,3.8,0,0,1,2.35,3l-.07.07c-1.22-.77-2.44,0-3.65,0l-3-.76Z" transform="translate(-224.19 -319.51)"/><path class="cls-129" d="M329.87,461.83c.77-1.13,2.54-.09,3.2-1.47L336,459c-.81,1.65.33,2.28,1.51,2.89l-.77.93c-1.22.77-3.22.21-3.73,2.18-2.12.29-3.39-1.13-4.74-2.38Z" transform="translate(-224.19 -319.51)"/><path class="cls-58" d="M336,465.77l-.93-.85,1.58-.84c.92-.75,2.52-.11,3.13-1.51l1-.64c.2,1.62,1.56,2.23,2.68,3l-3.81,1.47Z" transform="translate(-224.19 -319.51)"/><path class="cls-130" d="M339.8,462.58c-.61,1.4-2.21.75-3.13,1.51l.09-1.27.77-.93Z" transform="translate(-224.19 -319.51)"/><path class="cls-123" d="M303.5,461.85a.54.54,0,0,0-.53.21,3.24,3.24,0,0,0-.63,0c-.57-.16-1.36.09-1.55-.81,1-.33,2-.79,2.93,0l0-.07A2,2,0,0,0,303.5,461.85Z" transform="translate(-224.19 -319.51)"/><path class="cls-131" d="M323.24,457.48v.83c-1.51-.19-2.5,1-3.81,1.38l-3.59-.56-.8-.88c.05-.91.91-.6,1.36-.89l3.26-1.13,2-.32Z" transform="translate(-224.19 -319.51)"/><path class="cls-123" d="M321.72,455.91l-2,.32-.88-.91c1-.37,1.95-.78,2.92,0Q321.71,455.62,321.72,455.91Z" transform="translate(-224.19 -319.51)"/><path class="cls-132" d="M312.93,454l2-.34,1.56,1.66-1.62,1.35-2.22.77-3.7-.75-.66-.67c0-.92.9-.6,1.35-.89C310.48,454,312,454.79,312.93,454Z" transform="translate(-224.19 -319.51)"/><path class="cls-133" d="M314.89,456.66l1.62-1.35,2.28,0,.88.91-3.26,1.13C316.11,456.69,315.46,456.77,314.89,456.66Z" transform="translate(-224.19 -319.51)"/><path class="cls-124" d="M288,444.66l0,.85.76,1.51-3.05,1.44h-1.4c-.48-1-2.51-.32-2.26-2.1a5.53,5.53,0,0,0,.6-.21,2.3,2.3,0,0,0,1.6-1.41Z" transform="translate(-224.19 -319.51)"/><path class="cls-105" d="M288.76,447l-.76-1.51,3,.78a1.24,1.24,0,0,0-.05.73,2.16,2.16,0,0,1-1.58,1.4A1.36,1.36,0,0,0,288.76,447Z" transform="translate(-224.19 -319.51)"/><path class="cls-85" d="M291,447a1.24,1.24,0,0,1,.05-.73c1.24,0,2.46-.75,3.71,0q0,.34,0,.68Z" transform="translate(-224.19 -319.51)"/><path class="cls-85" d="M288,444.66l-3.71.08a1.54,1.54,0,0,1,.06-.68c1.23-.07,2.45-.8,3.68,0Q288,444.35,288,444.66Z" transform="translate(-224.19 -319.51)"/><path class="cls-64" d="M291,447l3.72-.1,0,.83.76,1.51-3.06,1.44-1.34,0c-.5-1-2.55-.24-2.29-2.06l.6-.18A2.16,2.16,0,0,0,291,447Z" transform="translate(-224.19 -319.51)"/><path class="cls-105" d="M295.51,449.26l-.76-1.51,3,.79a1.18,1.18,0,0,0-.05.73,2.19,2.19,0,0,1-1.59,1.4A1.36,1.36,0,0,0,295.51,449.26Z" transform="translate(-224.19 -319.51)"/><path class="cls-134" d="M284.31,444.06a1.54,1.54,0,0,0-.06.68,2.3,2.3,0,0,1-1.6,1.41l-.65-1.39a2.6,2.6,0,0,1,.1-.71Z" transform="translate(-224.19 -319.51)"/><path class="cls-135" d="M261,439.6l-.76.73c-.77-.1-1.56.55-2.33,0l.16-.74C259,439.29,260,438.77,261,439.6Z" transform="translate(-224.19 -319.51)"/><path class="cls-136" d="M282.16,339.75c4.22-.08,7.85,4.91,7.64,10.51-.09,2.38-4.06,5.88-6.8,6-4.53.17-7.66-3.88-7.74-10C275.23,342.93,278.53,339.82,282.16,339.75Z" transform="translate(-224.19 -319.51)"/><path class="cls-49" d="M277.61,446.22,279,447l2.25-.31c0,1.58,1,1.85,2.26,1.81l0,1.53-.15.07c-1.4-.59-2.68-.66-3.62.8-.53,2.37-1.86,1-3,.62-.28-1.31-2.14-1.33-2.26-2.78l2.17-.83.11-1Z" transform="translate(-224.19 -319.51)"/><path class="cls-137" d="M286.5,453.87c-1,1.15-2,.31-3-.11-1-4.85,2.57.07,3.11-1.47C286.32,452.81,285.31,453.26,286.5,453.87Z" transform="translate(-224.19 -319.51)"/><path class="cls-138" d="M286.5,453.87c-1.19-.61-.18-1.07.11-1.57l2.87-.82a2.59,2.59,0,0,0,.66.24.69.69,0,0,0,.06.49C289.24,453.37,287.7,453.25,286.5,453.87Z" transform="translate(-224.19 -319.51)"/><path class="cls-70" d="M289.41,448.43l-.6.18c-.94-.07-1.34.56-1.65,1.3l-1.42-.57,0-.86,3.05-1.44A1.36,1.36,0,0,1,289.41,448.43Z" transform="translate(-224.19 -319.51)"/><path class="cls-139" d="M287.16,449.9c.31-.74.71-1.36,1.65-1.3-.26,1.82,1.79,1.08,2.29,2.06l-1,1.05a2.65,2.65,0,0,1-.66-.24C289,450.54,288,450.34,287.16,449.9Z" transform="translate(-224.19 -319.51)"/><path class="cls-85" d="M279.71,450.9c.94-1.47,2.22-1.4,3.62-.8A3.25,3.25,0,0,1,279.71,450.9Z" transform="translate(-224.19 -319.51)"/><path class="cls-140" d="M285.71,448.46l0,.86c-.56.87-1.49.53-2.26.7l0-1.53.81,0Z" transform="translate(-224.19 -319.51)"/><path class="cls-49" d="M292.51,456c-.73,1.2-1.5.27-2.25,0-1-4.85,2.57.07,3.11-1.47Z" transform="translate(-224.19 -319.51)"/><path class="cls-138" d="M292.51,456l.86-1.43,2.89-.79.73.73-2.25,1.46Z" transform="translate(-224.19 -319.51)"/><path class="cls-141" d="M297,454.48l-.73-.73-.57-.81.56-.77,3,.78.06,1Z" transform="translate(-224.19 -319.51)"/><path class="cls-49" d="M296.25,452.17l-.56.77-3.27-.73a1.1,1.1,0,0,0,.08-.54l3-.74Z" transform="translate(-224.19 -319.51)"/><path class="cls-142" d="M292.5,451.67a1.1,1.1,0,0,1-.08.54H290.2a.69.69,0,0,1-.06-.49l1-1,1.34,0Z" transform="translate(-224.19 -319.51)"/><path class="cls-55" d="M297,454.48l2.28-.55,3-.73.74,1.23c-.77,1,1,.87.75,1.62l-3.66.93-3.74-.07c-.15-1-1.41-.1-1.62-1Z" transform="translate(-224.19 -319.51)"/><path class="cls-143" d="M296.35,456.91l3.74.07-.72,1.12c-.76.56-1.53,1-2.35.09Z" transform="translate(-224.19 -319.51)"/><path class="cls-132" d="M308.31,456l.66.67,1.53,1.56-3.65,1-3.11-.22c-.55-.84-1.86.57-2.25-.76l2.34-1.39,2.16-.64C306.74,455.74,307.59,456.8,308.31,456Z" transform="translate(-224.19 -319.51)"/><path class="cls-138" d="M303.83,456.81l-2.34,1.39-2.12-.1.72-1.12,3.66-.93Z" transform="translate(-224.19 -319.51)"/><path class="cls-144" d="M303.74,459l3.11.22-.74,1.2a3.64,3.64,0,0,1-2.41.88l0,.07Z" transform="translate(-224.19 -319.51)"/><path class="cls-137" d="M276.76,446.94l-.11,1c-1.42-.68-2.75-.87-3.7.76-.32,1.9-1.8,1.2-2.92,1.29.25-2.28-2.85-1.68-3-3.56,1-.09,2.1.15,2.91-.73l.12-1,.85-.67,1.37.74,2.26-.32C274.21,446.21,276.09,446,276.76,446.94Z" transform="translate(-224.19 -319.51)"/><path class="cls-85" d="M273,448.67c.95-1.63,2.27-1.44,3.7-.76l-2.17.83Z" transform="translate(-224.19 -319.51)"/><path class="cls-145" d="M270,444.68l-.12,1c-1.42-.69-2.71-.72-3.68.75-.32,1.91-1.8,1.21-2.93,1.3a3.8,3.8,0,0,0-2.35-3c.32-1.1,1.8-.38,2.19-1.38h0c1-.25,2.24.24,3.16-.64l1.42-.32C267.58,444,269.39,443.77,270,444.68Z" transform="translate(-224.19 -319.51)"/><path class="cls-85" d="M266.21,446.41c1-1.47,2.26-1.44,3.68-.75-.81.89-1.9.65-2.91.73Z" transform="translate(-224.19 -319.51)"/><path class="cls-85" d="M263.12,443.33c-.39,1-1.86.28-2.19,1.38l-1.47-.55C260.41,442.68,261.72,442.81,263.12,443.33Z" transform="translate(-224.19 -319.51)"/><path class="cls-72" d="M336.75,462.81l-.09,1.27-1.58.84L333,465C333.53,463,335.53,463.58,336.75,462.81Z" transform="translate(-224.19 -319.51)"/><path class="cls-135" d="M267.72,442.35l-1.42.32c-.6-.12-1.33,0-1.48-.88,1-.26,2-.77,2.91.08A.66.66,0,0,0,267.72,442.35Z" transform="translate(-224.19 -319.51)"/><path class="cls-70" d="M281.24,446.69,279,447c.32-1.68,2.13-1.34,3-2.24l.65,1.39a5.53,5.53,0,0,1-.6.21Z" transform="translate(-224.19 -319.51)"/><path class="cls-114" d="M276.76,446.94c-.68-.91-2.55-.73-2.27-2.51l.82-.32c-.25,1.8,1.81,1.11,2.3,2.12Z" transform="translate(-224.19 -319.51)"/><path class="cls-112" d="M317.31,461.3,315,462.63h-2.13l.76-1.2,3.64-.9Z" transform="translate(-224.19 -319.51)"/><path class="cls-144" d="M313.61,461.42l-.76,1.2a3.59,3.59,0,0,1-2.43.89l.06,0,0-2.35Z" transform="translate(-224.19 -319.51)"/><path class="cls-146" d="M317.31,461.3l-.05-.78-1.4-1.39,3.59.56,0,.92Z" transform="translate(-224.19 -319.51)"/><path class="cls-70" d="M292.5,451.67l-.06-1,3.06-1.44a1.36,1.36,0,0,1,.65,1.41,2.57,2.57,0,0,0-.65.27Z" transform="translate(-224.19 -319.51)"/><path class="cls-72" d="M302.26,453.2l-3,.73-.06-1,2.85-1,.88.86Z" transform="translate(-224.19 -319.51)"/><path class="cls-76" d="M308.31,456c-.72.79-1.57-.26-2.31.17l-.06-1,2.21-.78c.56.12,1.22,0,1.52.71C309.2,455.4,308.35,455.08,308.31,456Z" transform="translate(-224.19 -319.51)"/><path class="cls-147" d="M305.93,455.18l.06,1-2.16.64-.08-.75c.22-.76-1.52-.61-.75-1.62Z" transform="translate(-224.19 -319.51)"/><path class="cls-113" d="M310.47,461.2l0,2.35c-1.23-.89-2.47,0-3.7,0-1-.74-2.53-.47-3.28-1.69a2,2,0,0,1,.19-.58,3.64,3.64,0,0,0,2.41-.88h2.12C308.56,461.77,309.91,460.41,310.47,461.2Z" transform="translate(-224.19 -319.51)"/><path class="cls-132" d="M310.47,461.2c-.56-.79-1.9.56-2.24-.82l2.35-1.31,2.17-.65c.74-.42,1.59.61,2.31-.16l.8.88,1.4,1.39-3.64.9Z" transform="translate(-224.19 -319.51)"/><path class="cls-76" d="M315,458.25c-.72.77-1.56-.26-2.31.16l-.07-1,2.22-.77c.56.11,1.22,0,1.52.7C316,457.65,315.1,457.34,315,458.25Z" transform="translate(-224.19 -319.51)"/><path class="cls-148" d="M312.67,457.43l.07,1-2.17.65-.07-.83L309,456.67Z" transform="translate(-224.19 -319.51)"/><path class="cls-66" d="M281.24,446.69l.82-.33c-.25,1.78,1.78,1.11,2.26,2.1l-.81,0C282.24,448.54,281.21,448.27,281.24,446.69Z" transform="translate(-224.19 -319.51)"/><path class="cls-112" d="M310.5,458.23l.07.83-2.35,1.32h-2.12l.74-1.2Z" transform="translate(-224.19 -319.51)"/></svg>