<svg id="图层_1" data-name="图层 1" xmlns="http://www.w3.org/2000/svg" viewBox="0 0 172.38 170"><defs><style>.cls-1{fill:#99a4bd;}.cls-2{fill:#9ca6be;}.cls-3{fill:#97a2bc;}.cls-4{fill:#9ba5bd;}.cls-5{fill:#98a3bc;}.cls-6{fill:#d7dbe6;}.cls-7{fill:#f2f2f2;}.cls-8{fill:#97a1ba;}.cls-9{fill:#a1acc4;}.cls-10{fill:#ececec;}.cls-11{fill:#fbfbfb;}.cls-12{fill:#8894b2;}.cls-13{fill:#b8bdcb;}.cls-14{fill:#8897bb;}.cls-15{fill:#d4d9e2;}.cls-16{fill:#2d4887;}.cls-17{fill:#fafbfe;}.cls-18{fill:#9ca7c1;}.cls-19{fill:#989fb1;}.cls-20{fill:#7586b0;}.cls-21{fill:#818eae;}.cls-22{fill:#cacfdb;}.cls-23{fill:#163377;}.cls-24{fill:#eff0f4;}.cls-25{fill:#8a94ad;}.cls-26{fill:#324c8c;}.cls-27{fill:#8a94ab;}.cls-28{fill:#c2c8d5;}.cls-29{fill:#4862a0;}.cls-30{fill:#3e5999;}.cls-31{fill:#e1e5eb;}.cls-32{fill:#96a1bf;}.cls-33{fill:#acb7d0;}.cls-34{fill:#ccd0db;}.cls-35{fill:#7584ac;}.cls-36{fill:#375292;}.cls-37{fill:#6e80b0;}.cls-38{fill:#8a98b7;}.cls-39{fill:#8e97ae;}.cls-40{fill:#8391b1;}.cls-41{fill:#a5abbb;}.cls-42{fill:#6b7daa;}.cls-43{fill:#6f81ab;}.cls-44{fill:#e8ebf0;}.cls-45{fill:#f2f4f8;}.cls-46{fill:#526ba6;}.cls-47{fill:#919ebb;}.cls-48{fill:#7487b5;}.cls-49{fill:#e9ebf0;}.cls-50{fill:#a2abc2;}.cls-51{fill:#7485ad;}.cls-52{fill:#e3e7f0;}.cls-53{fill:#8992aa;}.cls-54{fill:#7183ac;}.cls-55{fill:#f1f5fe;}.cls-56{fill:#9da7be;}.cls-57{fill:#7989b4;}.cls-58{fill:#5c73a9;}.cls-59{fill:#6e80af;}.cls-60{fill:#95a0ba;}.cls-61{fill:#667bac;}.cls-62{fill:#6c7fae;}.cls-63{fill:#7688b8;}.cls-64{fill:#6c80b1;}.cls-65{fill:#949fb9;}.cls-66{fill:#cacfda;}.cls-67{fill:#7c8cb4;}.cls-68{fill:#6a7899;}.cls-69{fill:#bac2d5;}.cls-70{fill:#eceef3;}.cls-71{fill:#95a1bc;}.cls-72{fill:#a7b1c9;}.cls-73{fill:#b6bed2;}.cls-74{fill:#afb8ce;}.cls-75{fill:#b3bbd0;}.cls-76{fill:#acb5cc;}.cls-77{fill:#d6dbe6;}.cls-78{fill:#95a1bb;}.cls-79{fill:#97a1b9;}.cls-80{fill:silver;}.cls-81{fill:#c6c6c6;}.cls-82{fill:#7cacf6;}.cls-83{fill:#6b90cc;}.cls-84{fill:#5f6d8d;}.cls-85{fill:#d3d9e4;}.cls-86{fill:#e8eaf1;}.cls-87{fill:#eceff6;}.cls-88{fill:#e3e3e3;}.cls-89{fill:#ebebeb;}.cls-90{fill:#efefef;}.cls-91{fill:#e7e7e7;}.cls-92{fill:#0b2664;}.cls-93{fill:#97a2be;}.cls-94{fill:#9fa9c1;}.cls-95{fill:#a5afc7;}.cls-96{fill:#9aa5bf;}.cls-97{fill:#9da8c2;}.cls-98{fill:#eef0f6;}.cls-99{fill:#ced4e1;}.cls-100{fill:#d1d6e3;}.cls-101{fill:#c8cedd;}.cls-102{fill:#cbd1df;}.cls-103{fill:#bcc4d6;}.cls-104{fill:#c4cbdb;}.cls-105{fill:#b7bfd3;}.cls-106{fill:#c0c8d8;}.cls-107{fill:#b2bbd0;}.cls-108{fill:#aeb7cd;}.cls-109{fill:#aab3ca;}.cls-110{fill:#a2acc5;}.cls-111{fill:#d8d8d8;}.cls-112{fill:#e5ebfb;}.cls-113{fill:#e0e4ec;}.cls-114{fill:#e5e8ef;}.cls-115{fill:#adb6cd;}.cls-116{fill:#98a3be;}.cls-117{fill:#9aa5c0;}.cls-118{fill:#9da8c3;}.cls-119{fill:#a3adc6;}.cls-120{fill:#a0abc5;}.cls-121{fill:#a1acc5;}.cls-122{fill:#a8b2c9;}.cls-123{fill:#74a5f0;}.cls-124{fill:#0c1e46;}.cls-125{fill:#668dcb;}.cls-126{fill:#172744;}.cls-127{fill:#afb7ca;}.cls-128{fill:#061b4c;}.cls-129{fill:#e5e7ee;}.cls-130{fill:#f2f3f7;}.cls-131{fill:#c3c3c3;}.cls-132{fill:#c7c7c7;}.cls-133{fill:#cecece;}.cls-134{fill:#80b1fd;}.cls-135{fill:#e9eaeb;}.cls-136{fill:#8cbefe;}.cls-137{fill:#8cbbfd;}.cls-138{fill:#d0d0d0;}.cls-139{fill:#e8e8e8;}.cls-140{fill:#061f58;}.cls-141{fill:#99a4c0;}.cls-142{fill:#f7f7f7;}.cls-143{fill:#f6f6f6;}.cls-144{fill:#adb6cc;}.cls-145{fill:#dbdfe9;}.cls-146{fill:#d3d8e4;}.cls-147{fill:#cdd3e0;}.cls-148{fill:#c5ccdb;}.cls-149{fill:#c1c8d9;}.cls-150{fill:#bcc3d6;}.cls-151{fill:#b7bfd2;}.cls-152{fill:#b2bbcf;}.cls-153{fill:#c9c9c9;}.cls-154{fill:#9ba6c1;}.cls-155{fill:#b9b9b9;}.cls-156{fill:#dedede;}</style></defs><title>imageres.dll(9)</title><path class="cls-1" d="M-580.58,84.85a1.51,1.51,0,0,1,1.69.54c.34,1.77,2,1.12,3,1.69.23.64.84.57,1.34.7l.77,1.46c-1.86,1.08-2,2.9-2.32,4.79-.77,4,.91,7.77.82,11.69-.21,9-1.9,17.9-.77,26.91.25,1.95.92,4.11.36,5.84-1.7,5.26-1.09,10.81-.43,15.76,1.21,9.12-1.25,18.2.78,27.21.77,3.44-.54,6.91-.71,10.38-.36,7.12.57,14.28.3,21.29s-.16,14-.3,20.93l-3.69-.87c-1.25-.18-2.5-1.28-3.75,0-1.9.53-2.77-2-4.64-1.55-.53-.77-1.36-.53-2.1-.62l-3-.9c.14-5.76.63-11.55.31-17.29-.3-5.41-1-10.77.38-16.13a1.91,1.91,0,0,0-.28-1.43c-2-2.7-1.1-5.84-.88-8.62,1.06-13.25.82-26.49.56-39.74-.07-3.77.87-7.72,0-11.28-1.57-6.71.54-13.29-.46-20.1-1-6.49,0-13.53.43-20.31.19-3.23,0-6.65,1.49-9.73,1.44-.16,3,.68,4.31-.66,1-.56,1.35,1.18,2.35.71C-583.52,85.3-581.91,86-580.58,84.85Z" transform="translate(638.42 -80.24)"/><path class="cls-2" d="M-607.51,225.78c-1.75-.16-3.7,1.32-5.23-.64-.68-1.9-2.3-1.65-3.8-1.64-1-.12-2.17.34-3-.73-1-1.3-2.44-.54-3.64-.86q-.06-29.55-.11-59.1-.05-38.53-.09-77.05c0-5.18,0-5.18,5.09-5.11a3.89,3.89,0,0,0,1.06-.3l1.46,1.36a1,1,0,0,0-.16.33c0,.1.09.29.14.3,1.55.1,3.18.71,4.53-.63l3.78.76,0-.09c.1,8.72.23,17.45.19,26.15-.06,10.74-.29,21.5-.28,32.26,0,8.05,0,16.1,0,24.16,0,6.83.67,13.7.14,20.49-.6,7.68-.3,15.39-.49,23C-608,214.14-608.7,220.05-607.51,225.78Z" transform="translate(638.42 -80.24)"/><path class="cls-3" d="M-576,234c.14-7,0-14,.3-20.93s-.66-14.17-.3-21.29c.17-3.47,1.49-6.94.71-10.38-2-9,.43-18.09-.78-27.21-.66-4.94-1.27-10.5.43-15.76.56-1.73-.12-3.89-.36-5.84-1.14-9,.55-17.94.77-26.91.09-3.91-1.59-7.68-.82-11.69.36-1.89.46-3.71,2.32-4.79q0,.37.05.74L-570,97.5a21.1,21.1,0,0,0,2.25,6c.91,3.14,1.8,6.29,3.73,9,0,2.27,1.24,4.1,2.26,6,.46,3.18,3.46,5.51,3,9a2.07,2.07,0,0,0-.73,2c.27,3.5,1.07,6.88.9,10.52-.35,7.46.58,15,.15,22.45-.17,3,.73,5.83.3,8.83-1.54,10.74,0,21.54-.39,32.31-.12,3.14.49,6.23,0,9.43a33,33,0,0,0,0,9.7,16.27,16.27,0,0,1-1,9c-3.22,1.09-6.78,1.08-9.75,3l-2.34.82a2.24,2.24,0,0,1-2.93-.09Z" transform="translate(638.42 -80.24)"/><path class="cls-4" d="M-607.51,225.78c-1.19-5.73-.46-11.64-.32-17.3.18-7.65-.11-15.36.49-23,.53-6.78-.1-13.66-.14-20.49,0-8.05,0-16.1,0-24.16,0-10.75.22-21.51.28-32.26,0-8.7-.09-17.43-.19-26.15,1.23.36,2.55-.72,3.75.24,1.49,2.09,3.44.46,5.17.63l.77,0v.77c1.59,1.41,3.37,1.32,5.23.68l.85.08a1.41,1.41,0,0,0,0,.63c-1.52,3.08-1.3,6.5-1.49,9.73-.39,6.78-1.38,13.82-.43,20.31,1,6.81-1.12,13.39.46,20.1.84,3.56-.11,7.51,0,11.28.26,13.25.5,26.49-.56,39.74-.22,2.78-1.12,5.92.88,8.62a1.91,1.91,0,0,1,.28,1.43c-1.42,5.36-.68,10.71-.38,16.13.32,5.74-.17,11.52-.31,17.29l-1.35-.55c-2.12-.23-3.94-1.65-6.14-1.53a8.89,8.89,0,0,0-6.09-1.49Z" transform="translate(638.42 -80.24)"/><path class="cls-5" d="M-531.87,245.15l-11.88-2.92c-.52-1.4-1.76-1.47-3-1.59l-3-1.39c-.18-1.48,2.19-2.68,1.28-3.63-2.47-2.58-.68-4.63.22-6.87,6.17-2.46,12.42-4.74,18.46-7.49,2.09-1,5.05-.28,6.29-3,4.58-2.3,4.32-2.19,6.36,2.62,1.14,2.7,1.13,6.16,4.17,7.9.33,3-.82,6,.73,8.9a3.94,3.94,0,0,0,.74.08c.79,2,2.37,3.65,2.25,6a1.59,1.59,0,0,0-1.49.78,4.58,4.58,0,0,1-.69,0c-2.64.12-2.3,2.05-2.31,3.78h.06c-1.49-.38-3,1.27-4.48,0l-.25.14c-.85-1.35-2.33-1.22-3.61-1.55-1.28,0-2.49-1.59-3.84-.17-.64.08-1.26.09-1.61-.61C-528.75,244.87-530.12,244.08-531.87,245.15Z" transform="translate(638.42 -80.24)"/><path class="cls-6" d="M-514.39,96.75l.76.85q0,1,0,2.09l-.13,11.3c-3.85-2-7-5.09-10.72-7.26-3.93-2.3-6.82-6.37-11.74-7-1-1-1.18-2.41-1.48-3.72L-537,93l5.24.06c1.75,1.54,4.24,0,6,1.44l6,.07c.56.85,1.44.7,2.26.73C-516.91,96.67-515.71,96.83-514.39,96.75Z" transform="translate(638.42 -80.24)"/><path class="cls-7" d="M-502.37,196.49c3.47,2,7.51,2.42,11.16,3.89a170.28,170.28,0,0,0,22.15,7.47c3.42.86,4,3.18,1.48,5.79-3.61,3.8-7.34,7.48-11.11,11.12-1.71,1.65-2.85,3-.59,5.22,1.38,1.34,1.11,3-.72,4,0-.82.13-1.71-.74-2.26-.22-.57-.26-1.36-.68-1.67-2.3-1.71-1.56-2.86-.1-5,1.89-2.78,5.21-3.88,6.76-6.82l.75-.75,1.5-.75c2.27-2.72,2.11-4.24-.67-5.31q-14.59-5.63-29.21-11.19l-.25-2.24Z" transform="translate(638.42 -80.24)"/><path class="cls-8" d="M-548.25,228.75c-.89,2.24-2.69,4.29-.22,6.87.91,1-1.46,2.15-1.28,3.63l-3.06.11c-.65-1.25-1.84-.79-2.85-.92-1.73-.58-3.33-2.11-5.31-.64l-1.41-.16c-1.2-2.17-3.51-1.62-5.36-2.19a1.65,1.65,0,0,0-1.49-.71c3-1.9,6.53-1.89,9.75-3C-555.57,231.41-552,229.65-548.25,228.75Z" transform="translate(638.42 -80.24)"/><path class="cls-9" d="M-512,183.91l.52.62c0,1,.64,1.45,1.58,1.53-.14,2.13,2.07,1.2,2.83,2.15.53,0,1.08-.79,1.59,0-1.47,1.75.2,3.5,0,5.25-1.5,1.6-2.41.17-3.32-.72-2.72-2.69-6.35-3.93-9.44-6a54.94,54.94,0,0,1-4.5-9.75c3.33,1.2,5,4.74,8.25,6H-513Z" transform="translate(638.42 -80.24)"/><path class="cls-10" d="M-480.74,231.74c.87.55.71,1.44.74,2.26a108.62,108.62,0,0,1-17.52,14.29c-2.17,1.45-4.85,2.16-7.45.73-2.95-1.62-5.85,0-8.77,0a1.57,1.57,0,0,1,.06-.71h-.06c.64,0,1.28-.08,1.59-.78,2.55-1.45,5.07-.71,7.56.15,2.81,1,5.36,1,7.34-1.64,4.84-2.49,8.47-6.55,12.75-9.76a3.56,3.56,0,0,0,3-2.26Z" transform="translate(638.42 -80.24)"/><path class="cls-11" d="M-638.42,186.35c.74-1.34-1-3.77,1.7-3.84a2.62,2.62,0,0,1,2.9,2.77c-.17,2.11-1.2,4.32-3.31,4.42C-639.6,189.81-637.45,187.33-638.42,186.35Z" transform="translate(638.42 -80.24)"/><path class="cls-12" d="M-570.7,87c1.8-2,3.63,0,5.44.05a30,30,0,0,1,9.63,1.38l-.83.63c-3.84.33-7.52-.92-11.3-1.16Z" transform="translate(638.42 -80.24)"/><path class="cls-13" d="M-552.82,239.36l3.07-.11,3,1.39a1.82,1.82,0,0,0-.79,1.61c-1.77-.77-4-.25-5.4-2Z" transform="translate(638.42 -80.24)"/><path class="cls-14" d="M-512.88,109.52c-.57-3.25.65-6.65-.79-9.83l0-2.09c1.7.19,1.37,1.52,1.37,2.57,0,3.12-.07,6.23-.12,9.35Z" transform="translate(638.42 -80.24)"/><path class="cls-15" d="M-567.75,235.45c1.85.58,4.17,0,5.36,2.19-2.41,1-4.51-1.33-6.89-.67A1.48,1.48,0,0,1-567.75,235.45Z" transform="translate(638.42 -80.24)"/><path class="cls-16" d="M-512.28,179.17c-1.6-4.15-.4-8.44-.6-12.66h.5Z" transform="translate(638.42 -80.24)"/><path class="cls-17" d="M-537,93l-.73.08c-1.68-.78-4,.63-5.27-1.53l.75-.75,2.39.05c.55,1.32,2.35,0,2.88,1.39Z" transform="translate(638.42 -80.24)"/><path class="cls-18" d="M-505.49,188.25c-.51-.83-1.06-.06-1.59,0l.09-1.47q0-.3,0-.6c2.31.23,4.27.87,4.36,3.72a.77.77,0,0,1-.56-.1l-.75.08A2.6,2.6,0,0,0-505.49,188.25Z" transform="translate(638.42 -80.24)"/><path class="cls-19" d="M-606.83,226.52a8.89,8.89,0,0,1,6.09,1.49q0,.32,0,.64C-602.89,228.31-605.26,228.56-606.83,226.52Z" transform="translate(638.42 -80.24)"/><path class="cls-17" d="M-525.73,94.45c-1.79-1.4-4.27.11-6-1.44q0-.32,0-.63l2.22.45c1.3.15,2.61.38,3.63-.76a1.76,1.76,0,0,0,1.58,1Z" transform="translate(638.42 -80.24)"/><path class="cls-20" d="M-591.65,84.83l-.85-.08,0-.78,0,.05c2.54-.06,5.12-.59,7.55.62l0,.86c-1,.47-1.32-1.27-2.35-.71Z" transform="translate(638.42 -80.24)"/><path class="cls-21" d="M-513.68,248.29a1.57,1.57,0,0,0-.06.71c-1.87,2.1-3.26,1.34-4.42-.75C-516.68,249.56-515.17,247.91-513.68,248.29Z" transform="translate(638.42 -80.24)"/><path class="cls-17" d="M-525.73,94.45l1.41-1.42.12-.06a7,7,0,0,0,3.62.75L-519,93a1.9,1.9,0,0,0,0,.74l-.76.77Z" transform="translate(638.42 -80.24)"/><path class="cls-22" d="M-561,237.8c2-1.47,3.58.07,5.31.64l-.93,1C-557.8,238.21-560,239.52-561,237.8Z" transform="translate(638.42 -80.24)"/><path class="cls-23" d="M-503.21,189.76a.77.77,0,0,0,.56.1l.28,6.63-.26,1.52h-.5Z" transform="translate(638.42 -80.24)"/><path class="cls-24" d="M-531.87,245.15c1.75-1.07,3.12-.28,4.41.9C-529.12,246.7-530.71,247-531.87,245.15Z" transform="translate(638.42 -80.24)"/><path class="cls-25" d="M-600.74,228.65q0-.32,0-.64c2.2-.12,4,1.3,6.14,1.53C-596.88,230.91-598.74,229.32-600.74,228.65Z" transform="translate(638.42 -80.24)"/><path class="cls-26" d="M-512.38,166.5h-.5q0-4.12,0-8.25h.5Z" transform="translate(638.42 -80.24)"/><path class="cls-27" d="M-576,234l1.5,1.42a11.86,11.86,0,0,1-5.27-1.37l.08-.91Z" transform="translate(638.42 -80.24)"/><path class="cls-28" d="M-616.54,223.5c1.5,0,3.12-.26,3.8,1.64-1.13,1.35-2-.36-3.08-.22Z" transform="translate(638.42 -80.24)"/><path class="cls-17" d="M-542.25,90.75l-.75.75-.76,0-4.49,0-.74,0,0-.79,1.44-.09c1.33-.12,2.83.81,4-.61Z" transform="translate(638.42 -80.24)"/><path class="cls-29" d="M-512.87,144q0-3.75,0-7.5h.5V144Z" transform="translate(638.42 -80.24)"/><path class="cls-30" d="M-512.87,144h.5q0,3.75,0,7.5h-.51Q-512.88,147.76-512.87,144Z" transform="translate(638.42 -80.24)"/><path class="cls-31" d="M-522,246.83c1.28.33,2.76.21,3.61,1.55-1.45.72-2.78,1-3.6-.87Q-522,247.17-522,246.83Z" transform="translate(638.42 -80.24)"/><path class="cls-32" d="M-507,186.14q0,.3,0,.6a4.57,4.57,0,0,1-2.91-.68c-.94-.08-1.54-.51-1.58-1.53Z" transform="translate(638.42 -80.24)"/><path class="cls-33" d="M-611.22,81.71c-1.35,1.34-3,.73-4.53.63-.06,0-.15-.2-.14-.3a1,1,0,0,1,.16-.33c.84,0,1.75.21,2.27-.75l2.26.14A2.49,2.49,0,0,0-611.22,81.71Z" transform="translate(638.42 -80.24)"/><path class="cls-34" d="M-556.6,239.46l.93-1c1,.12,2.2-.33,2.85.92l-.08.84C-554.33,241-555.26,239.18-556.6,239.46Z" transform="translate(638.42 -80.24)"/><path class="cls-35" d="M-575.85,87.09c-1-.57-2.69.07-3-1.69l3.63.25V86.9A2.21,2.21,0,0,1-575.85,87.09Z" transform="translate(638.42 -80.24)"/><path class="cls-36" d="M-512.88,151.51h.51q0,3.37,0,6.75h-.5Q-512.88,154.88-512.88,151.51Z" transform="translate(638.42 -80.24)"/><path class="cls-37" d="M-598.5,83.25c-1.73-.17-3.67,1.47-5.17-.63C-601.9,82.46-600.07,81.81-598.5,83.25Z" transform="translate(638.42 -80.24)"/><path class="cls-38" d="M-519,93.75a1.9,1.9,0,0,1,0-.74c1.76-.09,3.27.24,3.77,2.25l-1.36-.08Z" transform="translate(638.42 -80.24)"/><path class="cls-39" d="M-616.54,223.5l.71,1.43c-1.7-.72-4,0-5.08-2.18l1.41,0C-618.71,223.83-617.55,223.37-616.54,223.5Z" transform="translate(638.42 -80.24)"/><path class="cls-40" d="M-520.58,93.72A7,7,0,0,1-524.2,93C-522.76,92.12-521.33,91.29-520.58,93.72Z" transform="translate(638.42 -80.24)"/><path class="cls-41" d="M-567.75,235.45a1.48,1.48,0,0,0-1.52,1.52,2,2,0,0,1-2.31-1.41l2.34-.82A1.64,1.64,0,0,1-567.75,235.45Z" transform="translate(638.42 -80.24)"/><path class="cls-42" d="M-537,92.19c-.53-1.36-2.33-.06-2.88-1.39l5,.07-.74,1.19Z" transform="translate(638.42 -80.24)"/><path class="cls-43" d="M-556.47,89.06l.83-.63,4.28.23-2.2,1.18a2.55,2.55,0,0,1-.69.3Z" transform="translate(638.42 -80.24)"/><path class="cls-44" d="M-522,246.83q0,.34,0,.68c-1.64,1.36-2.64-.22-3.84-.85C-524.5,245.24-523.29,246.86-522,246.83Z" transform="translate(638.42 -80.24)"/><path class="cls-45" d="M-575.85,87.09a2.22,2.22,0,0,0,.6-.18c.88.06,1.82.33,2.4-.67l1.36.76-.75,1.39-2.27-.6C-575,87.65-575.62,87.73-575.85,87.09Z" transform="translate(638.42 -80.24)"/><path class="cls-46" d="M-512.38,136.51h-.5q0-3,0-6h.51Z" transform="translate(638.42 -80.24)"/><path class="cls-47" d="M-513.08,181.3l.83-.74c.67,1.07,1.34,2.15.23,3.34l-1-.89Q-513.06,182.16-513.08,181.3Z" transform="translate(638.42 -80.24)"/><path class="cls-48" d="M-512.88,109.52h.5q0,3,0,6h-.51Q-512.88,112.51-512.88,109.52Z" transform="translate(638.42 -80.24)"/><path class="cls-49" d="M-547.49,242.25a1.82,1.82,0,0,1,.79-1.61c1.21.12,2.44.19,3,1.59C-545,243.08-546.25,240.65-547.49,242.25Z" transform="translate(638.42 -80.24)"/><path class="cls-50" d="M-543.57,90c-1.13,1.42-2.63.49-4,.61l1.45-1.24C-545.15,89.23-544.23,89.11-543.57,90Z" transform="translate(638.42 -80.24)"/><path class="cls-51" d="M-546.08,89.36l-1.45,1.24-1.44.09,0,0c-.27-.72-.94-.69-1.52-.83l.84-.74Z" transform="translate(638.42 -80.24)"/><path class="cls-52" d="M-516.55,95.19l1.36.08c.5.37,1.59.43.79,1.49-1.31.07-2.51-.09-3.11-1.49Z" transform="translate(638.42 -80.24)"/><path class="cls-53" d="M-579.71,233.18l-.08.91a6.44,6.44,0,0,1-3.68-.92C-582.2,231.91-581,233-579.71,233.18Z" transform="translate(638.42 -80.24)"/><path class="cls-54" d="M-529.53,92.83l-2.22-.45-1.46-.29,1.5-.62,3.62.15Z" transform="translate(638.42 -80.24)"/><path class="cls-55" d="M-572.25,88.38l.75-1.39h.79l2.94.91q0,.32,0,.65l-.77,0Z" transform="translate(638.42 -80.24)"/><path class="cls-56" d="M-529.53,92.83l1.44-1.21a2.1,2.1,0,0,1,2.19.45C-526.92,93.21-528.23,93-529.53,92.83Z" transform="translate(638.42 -80.24)"/><path class="cls-57" d="M-613.45,81c-.52,1-1.43.75-2.27.75l-1.46-1.36A5.77,5.77,0,0,1-613.45,81Z" transform="translate(638.42 -80.24)"/><path class="cls-58" d="M-512.37,130.51h-.51q0-2.62,0-5.25h.52Q-512.37,127.88-512.37,130.51Z" transform="translate(638.42 -80.24)"/><path class="cls-59" d="M-597.73,84.07V83.3c1.78-.05,3.64-.67,5.22.73l0-.05Z" transform="translate(638.42 -80.24)"/><path class="cls-60" d="M-531.7,91.47l-1.5.62-2.35,0,.74-1.19C-533.71,90.69-532.6,90.53-531.7,91.47Z" transform="translate(638.42 -80.24)"/><path class="cls-61" d="M-512.37,125.26h-.52q0-2.63,0-5.25h.5Z" transform="translate(638.42 -80.24)"/><path class="cls-62" d="M-585,85.52l0-.86,4.39.2C-581.91,86-583.52,85.3-585,85.52Z" transform="translate(638.42 -80.24)"/><path class="cls-63" d="M-611.22,81.71a2.49,2.49,0,0,1,0-.61c1.46-.12,2.89-.15,3.75,1.38Z" transform="translate(638.42 -80.24)"/><path class="cls-64" d="M-512.38,120h-.5q0-2.25,0-4.5h.51Q-512.37,117.76-512.38,120Z" transform="translate(638.42 -80.24)"/><path class="cls-65" d="M-549.63,89.16l-.84.74-3.07-.06,2.2-1.18A1.52,1.52,0,0,1-549.63,89.16Z" transform="translate(638.42 -80.24)"/><path class="cls-66" d="M-619.49,222.77l-1.41,0c-1.07.58-2,.67-2.23-.84C-621.93,222.23-620.47,221.47-619.49,222.77Z" transform="translate(638.42 -80.24)"/><path class="cls-67" d="M-572.85,86.24c-.59,1-1.53.72-2.4.67V85.65A2.57,2.57,0,0,1-572.85,86.24Z" transform="translate(638.42 -80.24)"/><path class="cls-68" d="M-590.2,231c.73.09,1.57-.15,2.1.62C-588.89,231.69-589.76,232.08-590.2,231Z" transform="translate(638.42 -80.24)"/><path class="cls-69" d="M-572.25,88.38l3.72.21c-.4,4.25,3,6.27,5.28,8.91,1.83,1.59,1.46,4,2.25,6-3-3.81-6.11-7.59-9.07-11.45-1-1.26-1.93-2.21-3.62-2.06q0-.37-.05-.74l-.77-1.46Z" transform="translate(638.42 -80.24)"/><path class="cls-70" d="M-591.65,84.83l4.3,0c-1.27,1.34-2.86.5-4.31.66A1.42,1.42,0,0,1-591.65,84.83Z" transform="translate(638.42 -80.24)"/><path class="cls-71" d="M-548.25,228.75c-3.78.9-7.32,2.66-11.25,3a16.27,16.27,0,0,0,1-9,33,33,0,0,1,0-9.7c.49-3.2-.12-6.29,0-9.43.41-10.77-1.15-21.57.39-32.31.43-3-.47-5.82-.3-8.83.43-7.45-.5-15-.15-22.45.17-3.64-.63-7-.9-10.52a2.07,2.07,0,0,1,.73-2q0,.37,0,.75l4.49,10.5a16.3,16.3,0,0,0,3,7.5c1,5,4,9.32,5.25,14.25l6.75,17.25,6.26,16.3a9.3,9.3,0,0,0,8,6.2c1.12,2.73,2.27,5.46,3.34,8.21.49,1.26.77,2.75-1.3,2.48-3.74-.49-2.95,1.41-2.07,3.51.53,1.26,1,2.53,1.53,3.8-1.24,2.73-4.2,2.05-6.29,3C-535.83,224-542.08,226.29-548.25,228.75Z" transform="translate(638.42 -80.24)"/><path class="cls-72" d="M-558.74,128.25q0-.37,0-.75c.46-3.49-2.54-5.82-3-9a36.31,36.31,0,0,1,6.9,7c.69.93,1.13,2.46,2.85,2h.75l3,9.75c-1.63-.3-2.26-1.78-3.32-2.77C-553.88,132.32-555.44,129.27-558.74,128.25Z" transform="translate(638.42 -80.24)"/><path class="cls-73" d="M-573.69,90c1.69-.16,2.66.8,3.62,2.06,3,3.86,6,7.64,9.07,11.45h.75c-.31,2.2,1.8,3.8,1.5,6-1.44-.8-2.17-2.32-3.3-3.35-2.92-2.66-4.06-6.93-8-8.65Z" transform="translate(638.42 -80.24)"/><path class="cls-74" d="M-564,112.5c-1.93-2.72-2.83-5.86-3.73-9,2.51,1.41,3.41,4.23,5.35,6.1s2.88,5,5.9,5.9c1.19,1,.82,2.91,2.24,3.75v2.25c-1.41,0-2.13-1-2.89-2A40.7,40.7,0,0,0-564,112.5Z" transform="translate(638.42 -80.24)"/><path class="cls-75" d="M-556.5,115.5c-3-.9-3.89-4-5.9-5.9s-2.84-4.69-5.35-6.1a21.1,21.1,0,0,1-2.25-6c3.89,1.72,5,6,8,8.65,1.13,1,1.86,2.55,3.3,3.35l2.24,4.5Z" transform="translate(638.42 -80.24)"/><path class="cls-76" d="M-564,112.5a40.7,40.7,0,0,1,6.88,7c.76,1,1.48,2,2.89,2,1.29,1.8,1.64,3.95,2.25,6-1.73.43-2.16-1.1-2.85-2a36.31,36.31,0,0,0-6.9-7C-562.77,116.6-564,114.77-564,112.5Z" transform="translate(638.42 -80.24)"/><path class="cls-77" d="M-597.73,84.07l5.25-.09,0,.78C-594.36,85.39-596.14,85.48-597.73,84.07Z" transform="translate(638.42 -80.24)"/><path class="cls-78" d="M-523.5,218.25c-.51-1.27-1-2.54-1.53-3.8-.88-2.1-1.67-4,2.07-3.51,2.07.27,1.79-1.23,1.3-2.48-1.08-2.75-2.22-5.47-3.34-8.21l-1.5-4.5c1.81-.48,3.41-.87,4.77,1.21,2.94,4.5,3,4.43,8,1.79,1.21,1.11.71,2.57.72,3.88,0,8.72,0,17.43,0,26.15h0c-3-1.74-3-5.2-4.17-7.9C-519.18,216.06-518.92,215.95-523.5,218.25Z" transform="translate(638.42 -80.24)"/><path class="cls-79" d="M-509.25,243.73c.12-2.32-1.46-4-2.25-6l.75,0c1.49.77,3,1.4,4.51.09,1.5-2.38.43-5,.72-7.5l0-19.56c1.51-2.9.36-6,.72-9v-1.5h.63q.11,7.87.21,15.73,0,1.87,0,3.75c.09,1.49-.62,3.08.55,4.44l.23,2.32-.22,3.05c-1.3,1.86-.34,4-.62,5.94.14,1.25-.46,2.62.62,3.72l.14,2.26C-504.25,244.86-507,243.51-509.25,243.73Z" transform="translate(638.42 -80.24)"/><path class="cls-80" d="M-509.25,243.73c2.21-.22,5,1.14,6-2.26,1.46-1.26.32-3,.86-4.47,3.1.48,5.86,1.32,5.87,5.25-2,1.3-3.49,3.92-6.45,2.9-2.57-.89-5.18-.56-7.78-.64A1.59,1.59,0,0,1-509.25,243.73Z" transform="translate(638.42 -80.24)"/><path class="cls-81" d="M-510.73,244.5c2.6.09,5.21-.25,7.78.64,3,1,4.44-1.6,6.45-2.9h.75l-.75,1.5a4.76,4.76,0,0,0-2.25,2.25h0l-12.86-.79a4.68,4.68,0,0,1,.19-.7A4.58,4.58,0,0,0-510.73,244.5Z" transform="translate(638.42 -80.24)"/><path class="cls-82" d="M-510.75,237.71l-.75,0a4,4,0,0,1-.74-.08q0-.72,0-1.44l5.94-4.48,0,2.24C-507.56,235.48-510.16,235.39-510.75,237.71Z" transform="translate(638.42 -80.24)"/><path class="cls-83" d="M-512.23,236.24v1.44c-1.55-2.86-.41-5.94-.73-8.9h.63a1.9,1.9,0,0,1,.21.58l0,2.38,0,1.5Z" transform="translate(638.42 -80.24)"/><path class="cls-84" d="M-511.42,244.51a4.63,4.63,0,0,0-.19.7l-.47.82-.06,1.48c-.31.7-1,.73-1.59.78C-513.72,246.56-514.06,244.62-511.42,244.51Z" transform="translate(638.42 -80.24)"/><path class="cls-85" d="M-513.79,111q0,4.87,0,9.75a16.07,16.07,0,0,1-5.51-3c-3.1-2.92-6.87-4.86-10.3-7.29-.69-.49-1.32-1.32-2.15-.2l-2.24-4.52-2.26-9c4.92.61,7.81,4.67,11.74,7C-520.8,105.91-517.64,109-513.79,111Z" transform="translate(638.42 -80.24)"/><path class="cls-86" d="M-536.25,96.75l2.26,9c-.43.62-1.09.8-1.54.24-3.37-4.2-6.63-8.47-8.22-13.74q0-.36,0-.73l.76,0c1.28,2.16,3.59.75,5.27,1.53C-537.43,94.34-537.26,95.71-536.25,96.75Z" transform="translate(638.42 -80.24)"/><path class="cls-17" d="M-535.56,92.06l2.35,0,1.46.29q0,.32,0,.63L-537,93l0-.76Z" transform="translate(638.42 -80.24)"/><path class="cls-87" d="M-516.55,95.19l-1,.07c-.82,0-1.7.12-2.26-.73l.76-.77Z" transform="translate(638.42 -80.24)"/><path class="cls-88" d="M-480.74,231.74l-.77,2.26h-.76a2.91,2.91,0,0,0-1.19-3.83c-2.21-1.6-1.68-3.25-.13-5a21.89,21.89,0,0,0,2.1-2.57c1.13-1.7.8-3.12-1.19-3.81-6.73-2.32-12.84-6.14-19.71-8.09l-.24-1.48.24-3.76a30.74,30.74,0,0,1,6.5,2.47c3.65,1.74,7.3,3.6,11.37,4.29a9.82,9.82,0,0,0,4.59,2.29c2.14.59,4.1,1.56,5.16,3.71-1.54,2.93-4.87,4-6.76,6.82-1.46,2.14-2.2,3.29.1,5C-481,230.38-481,231.17-480.74,231.74Z" transform="translate(638.42 -80.24)"/><path class="cls-89" d="M-472.5,216.75l-1.5.75c-.41-3.63-3.06-4.25-6-4.5-.89-1.21-2.34-1.29-3.59-1.81q-9.41-3.94-18.79-7.93v-1.51c1.23.54,2.44,1.13,3.7,1.61,7.25,2.77,14.54,5.44,21.76,8.3C-474.69,212.54-472.06,213.4-472.5,216.75Z" transform="translate(638.42 -80.24)"/><path class="cls-90" d="M-472.5,216.75c.44-3.35-2.19-4.21-4.42-5.09-7.22-2.86-14.51-5.53-21.76-8.3-1.25-.48-2.47-1.07-3.7-1.61q0-.75,0-1.5,14.61,5.59,29.21,11.19C-470.39,212.51-470.23,214-472.5,216.75Z" transform="translate(638.42 -80.24)"/><path class="cls-91" d="M-480,213c2.94.25,5.6.88,6,4.5l-.75.75c-1.06-2.15-3-3.12-5.16-3.71a9.82,9.82,0,0,1-4.59-2.29Z" transform="translate(638.42 -80.24)"/><path class="cls-92" d="M-502.38,200.25q0,.75,0,1.5t0,1.51v2.24l-.24,3.76h-.51q0-5.62,0-11.25h.5Z" transform="translate(638.42 -80.24)"/><path class="cls-93" d="M-522.75,177a54.94,54.94,0,0,0,4.5,9.75c-.3,2,1.4,3.38,1.5,5.25-3.88-4-7.73-8-11.65-11.9-1.46-1.46-2.47-3.53-4.85-3.85-2.56-3.33-2.66-7.64-4.5-11.25-.68-2.27-2.21-4.26-2.25-6.75,5.49,2.08,7.47,7.52,10.93,11.53,1.43,1.66,2.4,3.73,4.82,4.22Z" transform="translate(638.42 -80.24)"/><path class="cls-94" d="M-516.75,192c-.1-1.86-1.8-3.27-1.5-5.25,3.09,2.1,6.71,3.34,9.44,6,.9.89,1.82,2.32,3.32.72,1.5,2.11.41,4.51.75,6.75v1.5c-1.54,2.89-.39,6-.72,9q0,9.78,0,19.56a3.33,3.33,0,0,0-.65.08l-.17-.18q0-1.48,0-3,0-1.14,0-2.28v-4.47c.05-6.08-.05-12.17.22-18.24.17-3.84-2.87-2.85-4.63-3.22-2.37-.5-1.49,1.74-1.5,2.85,0,6.45,0,12.91.07,19.36l0,4.5-.13,3H-513c0-8.72,0-17.43,0-26.15,0-1.31.49-2.77-.72-3.88Z" transform="translate(638.42 -80.24)"/><path class="cls-95" d="M-522.75,177l-1.5-3-2.25-6c1.71,0,2.41,1.52,3.53,2.4,2.94,2.31,5.11,5.5,8.46,7.35V183C-517.79,181.74-519.42,178.2-522.75,177Z" transform="translate(638.42 -80.24)"/><path class="cls-96" d="M-504.75,200.25c-.34-2.24.75-4.64-.75-6.75.2-1.75-1.47-3.5,0-5.25a2.6,2.6,0,0,1,1.53,1.59l-.16,10.41Z" transform="translate(638.42 -80.24)"/><path class="cls-97" d="M-514.5,183q0-2.63,0-5.25,0-2.25,0-4.5,0-.37,0-.75h.63c.56,2.91-.67,6,.78,8.8q0,.85,0,1.71Z" transform="translate(638.42 -80.24)"/><path class="cls-98" d="M-509.91,186.06a4.57,4.57,0,0,0,2.91.68l-.09,1.47C-507.84,187.25-510,188.19-509.91,186.06Z" transform="translate(638.42 -80.24)"/><path class="cls-99" d="M-513.8,124.49q0,1.51,0,3a14.09,14.09,0,0,1-5.21-2.6c-3.44-2.45-7-4.77-10.48-7.15a11.44,11.44,0,0,1-1.5-5.25Z" transform="translate(638.42 -80.24)"/><path class="cls-100" d="M-513.8,124.49l-17.21-12h-.74v-2.24c.83-1.12,1.47-.28,2.15.2,3.43,2.43,7.2,4.37,10.3,7.29a16.07,16.07,0,0,0,5.51,3Q-513.8,122.61-513.8,124.49Z" transform="translate(638.42 -80.24)"/><path class="cls-101" d="M-513.81,131.24q0,2.25,0,4.5c-3.43-2.27-6.22-5.27-9.25-8-.72-.65-1.65-3.09-3.44-1h-.74c-.25-1.5-1-2.91-.75-4.5,1.53-1.29,2.59.07,3.41.88A46.75,46.75,0,0,0-513.81,131.24Z" transform="translate(638.42 -80.24)"/><path class="cls-102" d="M-513.81,131.24a46.75,46.75,0,0,1-10.78-8.11c-.82-.81-1.88-2.17-3.41-.88-1.21-.65-.29-2.36-1.5-3v-1.5c3.5,2.37,7,4.69,10.48,7.15a14.09,14.09,0,0,0,5.21,2.6Q-513.81,129.37-513.81,131.24Z" transform="translate(638.42 -80.24)"/><path class="cls-103" d="M-513.83,141.73q0,1.5,0,3a31.42,31.42,0,0,1-5.65-4.53c-.83-.87-1.62-2.25-3.27-1.45-1.21-.65-.29-2.35-1.5-3v-2.24c1.62-1.51,2.14.39,2.88,1.05C-518.79,136.88-516.33,139.33-513.83,141.73Z" transform="translate(638.42 -80.24)"/><path class="cls-104" d="M-526.5,126.76c1.79-2.11,2.72.34,3.44,1,3,2.73,5.82,5.72,9.25,8q0,1.5,0,3c-4.44-2.68-7.39-7.18-11.93-9.73h-.74Z" transform="translate(638.42 -80.24)"/><path class="cls-105" d="M-522.75,138.75c1.65-.8,2.44.58,3.27,1.45a31.42,31.42,0,0,0,5.65,4.53q0,1.89,0,3.77a7.43,7.43,0,0,1-4.93-3.34c-.89-1.21-1.43-1.23-1.72.34l-.75-.75c-.52-1.49-.38-3.2-1.49-4.5Z" transform="translate(638.42 -80.24)"/><path class="cls-106" d="M-525.75,129c4.54,2.56,7.49,7.06,11.93,9.73q0,1.5,0,3c-2.51-2.4-5-4.85-7.55-7.17-.74-.67-1.26-2.57-2.88-1.05A7.19,7.19,0,0,1-525.75,129Z" transform="translate(638.42 -80.24)"/><path class="cls-107" d="M-520.5,145.5c.29-1.57.84-1.55,1.72-.34a7.43,7.43,0,0,0,4.93,3.34q0,2.61,0,5.23c-1.95-.92-2.69-3.52-5.16-3.73-1.21-.65-.29-2.36-1.5-3Z" transform="translate(638.42 -80.24)"/><path class="cls-108" d="M-519,150c2.47.21,3.21,2.81,5.16,3.73q0,1.89,0,3.77l-3.64-.75a5.08,5.08,0,0,0-.76-3A6.2,6.2,0,0,1-519,150Z" transform="translate(638.42 -80.24)"/><path class="cls-109" d="M-517.49,156.75l3.64.75q0,3.75,0,7.51h-.64a1.58,1.58,0,0,0-.75-1.51,7.15,7.15,0,0,0-1.5-4.5Z" transform="translate(638.42 -80.24)"/><path class="cls-110" d="M-514.49,165h.64q0,3.75,0,7.5h-.63q0-1.5,0-3Q-514.5,167.25-514.49,165Z" transform="translate(638.42 -80.24)"/><path class="cls-111" d="M-484.49,236.25c-4.28,3.21-7.92,7.27-12.75,9.76l0,0,1.51-2.24c1.67-1.59,4-2.36,5.25-4.5,1.9-.19,2.82-1.6,3.74-3l.75-.75h1.49Z" transform="translate(638.42 -80.24)"/><path class="cls-111" d="M-512.14,247.5l.06-1.48a36.19,36.19,0,0,1,7.69.55c1.77.4,3.9.87,5.64-.57h1.49l0,0c-2,2.66-4.53,2.61-7.34,1.64C-507.07,246.8-509.59,246.06-512.14,247.5Z" transform="translate(638.42 -80.24)"/><path class="cls-91" d="M-484.49,236.25l0-.76,2.25-1.5h.76A3.56,3.56,0,0,1-484.49,236.25Z" transform="translate(638.42 -80.24)"/><path class="cls-112" d="M-567.76,88.55q0-.33,0-.65c3.78.24,7.46,1.49,11.3,1.16l2.23,1.07q0,.31,0,.61l-2.28-.7h-3l-4.43-.7-3,0Z" transform="translate(638.42 -80.24)"/><path class="cls-113" d="M-529.5,117.75v1.5c-1.77,1.74-2.65-.09-3.59-1-7-6.85-12.75-14.68-18.11-22.84-1.48-2.26-1.46-3.81,1.42-4.61l.83-.07,0,0,0,.79c-.17,3.52,2.3,5.59,4.3,7.94,3.71,4.34,7.35,8.73,11.09,13,.38.43,1.22,2.37,1.85,0h.74A11.44,11.44,0,0,0-529.5,117.75Z" transform="translate(638.42 -80.24)"/><path class="cls-114" d="M-531.75,112.5c-.63,2.35-1.47.41-1.85,0-3.74-4.31-7.38-8.71-11.09-13-2-2.35-4.48-4.42-4.3-7.94l.74,0c1.31,1.36,3,.51,4.5.75,1.59,5.26,4.85,9.54,8.22,13.74.45.56,1.11.38,1.54-.24l2.24,4.52Z" transform="translate(638.42 -80.24)"/><path class="cls-113" d="M-543.75,92.25c-1.5-.24-3.18.61-4.5-.75l4.49,0Q-543.75,91.89-543.75,92.25Z" transform="translate(638.42 -80.24)"/><path class="cls-17" d="M-548.95,90.72l-.83.06-4.46,0q0-.31,0-.61a2.54,2.54,0,0,0,.69-.3l3.07.06C-549.89,90-549.21,90-548.95,90.72Z" transform="translate(638.42 -80.24)"/><path class="cls-103" d="M-567.76,88.55l.8.76c2.51,1.19,2.23,4.12,3.71,5.94V97.5c-2.33-2.63-5.68-4.66-5.28-8.91Z" transform="translate(638.42 -80.24)"/><path class="cls-115" d="M-563.25,97.5q0-1.12,0-2.25c3.28.67,3.77,4,5.62,6,2.36,2.57,3,6.45,6.35,8.28,1.54,3.24,2.45,6.76,4.5,9.76v1.49a8.76,8.76,0,0,1-2.31-2.31c-4.23-4.61-6.4-10.75-11.17-14.95H-561C-561.78,101.51-561.41,99.09-563.25,97.5Z" transform="translate(638.42 -80.24)"/><path class="cls-116" d="M-526.5,195.75l1.5,4.5a9.3,9.3,0,0,1-8-6.2l-6.26-16.3c3,.66,4.5,3.84,7.5,4.5C-529.43,186.53-528.33,191.28-526.5,195.75Z" transform="translate(638.42 -80.24)"/><path class="cls-117" d="M-531.75,182.25c-3-.66-4.5-3.84-7.5-4.5L-546,160.5c3.11.83,4.61,4.62,8.25,4.5,1.84,3.61,1.94,7.92,4.5,11.25Z" transform="translate(638.42 -80.24)"/><path class="cls-118" d="M-537.75,165c-3.63.12-5.14-3.67-8.25-4.5-1.27-4.92-4.26-9.22-5.25-14.25,1.69-.74,2,1,2.75,1.7,1.7,1.43,3.21,3.06,5.5,3.55l3,6.75C-540,160.74-538.43,162.73-537.75,165Z" transform="translate(638.42 -80.24)"/><path class="cls-119" d="M-558.74,128.25c3.3,1,4.86,4.07,7.17,6.24,1.06,1,1.68,2.47,3.32,2.77l.75.75,2.25,6.75c-2-.2-3.29-1.49-4.67-2.76s-2.2-3.08-4.32-3.24Z" transform="translate(638.42 -80.24)"/><path class="cls-120" d="M-554.25,138.75c2.12.16,3,2,4.32,3.24s2.69,2.56,4.67,2.76a1.55,1.55,0,0,0,.75,1.5l1.5,5.25c-2.29-.49-3.81-2.12-5.5-3.55-.8-.67-1.05-2.43-2.75-1.7A16.3,16.3,0,0,1-554.25,138.75Z" transform="translate(638.42 -80.24)"/><path class="cls-121" d="M-552,127.5c-.61-2.05-1-4.2-2.25-6v-2.25c1.92,1.21,3,3.14,4.42,4.82,3,3.63,5.51,7.75,9.08,10.94l3.75,7.5.75,3a23.4,23.4,0,0,1-5.19-5.66c-3.1-4.23-6.08-8.6-9.8-12.34Z" transform="translate(638.42 -80.24)"/><path class="cls-118" d="M-551.25,127.5c3.73,3.75,6.7,8.11,9.8,12.34a23.4,23.4,0,0,0,5.19,5.66l1.51,3a5.3,5.3,0,0,1,.75,3c-2.84-.75-4.19-3.22-6-5.17-2.53-2.75-3.74-6.7-7.53-8.32l-.75-.75Z" transform="translate(638.42 -80.24)"/><path class="cls-122" d="M-560.25,103.5c4.77,4.19,6.94,10.33,11.17,14.95a8.76,8.76,0,0,0,2.31,2.31c.19,1.79,1.8,2.86,2.28,4.5L-543,129a2,2,0,0,1-1.52-.89c-3.05-4.13-6.07-8.28-9.27-12.29-.6-.76-.56-3.09-2.68-1.83l-2.24-4.5C-558.45,107.3-560.55,105.7-560.25,103.5Z" transform="translate(638.42 -80.24)"/><path class="cls-95" d="M-556.5,114c2.12-1.27,2.07,1.07,2.68,1.83,3.2,4,6.22,8.16,9.27,12.29A2,2,0,0,0-543,129l.79,1.5,1.5,3.75,0,.75c-3.57-3.19-6-7.31-9.08-10.94-1.41-1.68-2.5-3.61-4.42-4.82-1.42-.85-1.05-2.77-2.24-3.75Z" transform="translate(638.42 -80.24)"/><path class="cls-71" d="M-531.75,182.25l-1.5-6c2.37.33,3.39,2.39,4.85,3.85,3.92,3.93,7.77,7.93,11.65,11.9l3,6.75c-4.94,2.64-5,2.71-8-1.79-1.36-2.08-3-1.69-4.77-1.21C-528.33,191.28-529.43,186.53-531.75,182.25Z" transform="translate(638.42 -80.24)"/><path class="cls-123" d="M-510.75,237.71c.59-2.32,3.19-2.23,4.47-3.72q0,1.91,0,3.82C-507.77,239.11-509.26,238.48-510.75,237.71Z" transform="translate(638.42 -80.24)"/><path class="cls-96" d="M-505.47,210.74c.34-3-.82-6.1.72-9C-505.12,204.74-504,207.85-505.47,210.74Z" transform="translate(638.42 -80.24)"/><path class="cls-124" d="M-503.36,229.55l.22-3.05h.52l.25,3.77-.25,4.47h-.51Z" transform="translate(638.42 -80.24)"/><path class="cls-125" d="M-506.24,237.81q0-1.91,0-3.82,0-1.12,0-2.24l.13-1.37a3.33,3.33,0,0,1,.65-.08C-505.81,232.8-504.74,235.43-506.24,237.81Z" transform="translate(638.42 -80.24)"/><path class="cls-126" d="M-503.14,234.75h.51l.25,2.25c-.54,1.44.6,3.21-.86,4.47l-.14-2.26v-3.72Z" transform="translate(638.42 -80.24)"/><path class="cls-127" d="M-503.14,234.75l-.25.74h-.6c.29-2-.68-4.07.62-5.94Z" transform="translate(638.42 -80.24)"/><path class="cls-128" d="M-502.62,226.5h-.52l-.23-2.32.24-2.92h.5l.25,2.24v2.25Z" transform="translate(638.42 -80.24)"/><path class="cls-129" d="M-503.13,221.25l-.24,2.92c-1.17-1.36-.46-2.95-.55-4.44h.54Z" transform="translate(638.42 -80.24)"/><path class="cls-130" d="M-503.38,219.74h-.54q0-1.87,0-3.75h.53Z" transform="translate(638.42 -80.24)"/><path class="cls-50" d="M-504,235.49h.6v3.72C-504.45,238.11-503.84,236.74-504,235.49Z" transform="translate(638.42 -80.24)"/><path class="cls-131" d="M-502.37,237l-.25-2.25.25-4.47c1.44.73,2.91,1.41,4.3,2.22,2.5,1.45,5.8,1.89,6.82,5.26a16.27,16.27,0,0,0-4.5,4.5h-.75C-496.51,238.32-499.28,237.48-502.37,237Z" transform="translate(638.42 -80.24)"/><path class="cls-132" d="M-495.75,242.25a16.27,16.27,0,0,1,4.5-4.5l3-2.25v.75l-2.25,3c-1.21,2.13-3.58,2.9-5.25,4.5h-.75Z" transform="translate(638.42 -80.24)"/><path class="cls-133" d="M-498.75,246c-1.74,1.45-3.87,1-5.64.57a36.19,36.19,0,0,0-7.69-.55l.47-.82Z" transform="translate(638.42 -80.24)"/><path class="cls-133" d="M-496.5,243.75h.75l-1.51,2.24h-1.49A4.76,4.76,0,0,1-496.5,243.75Z" transform="translate(638.42 -80.24)"/><path class="cls-134" d="M-506.17,230.38l-.13,1.37-5.94,4.48q0-1.5,0-3c1.88-.19,2.79-1.61,3.72-3l2.17-.05Z" transform="translate(638.42 -80.24)"/><path class="cls-135" d="M-506.33,230.2l-2.17.05a1.9,1.9,0,0,0-.62-.09c-.84-.89-2-.57-3-.8a1.9,1.9,0,0,0-.21-.58l.13-3h1.36c.85.94,1.66,1.17,2.39-.13,1.23-.13.65,2.13,2.16,1.64Z" transform="translate(638.42 -80.24)"/><path class="cls-136" d="M-512.14,229.37c1,.23,2.18-.09,3,.8-1.08.41-1.73,1.65-3.06,1.58Z" transform="translate(638.42 -80.24)"/><path class="cls-137" d="M-512.19,231.75c1.33.08,2-1.17,3.06-1.58a1.88,1.88,0,0,1,.62.09c-.93,1.38-1.83,2.8-3.72,3Q-512.2,232.49-512.19,231.75Z" transform="translate(638.42 -80.24)"/><path class="cls-138" d="M-482.26,234l-2.25,1.5H-486c1.78-1.87,2.82-3.68,0-5.68a2.78,2.78,0,0,1-1.24-2.94c.67-2-.61-2.79-2-3.42-4.38-2-8.8-4-13.21-6v-6.76c6.87,2,13,5.77,19.71,8.09,2,.69,2.31,2.11,1.19,3.81a21.89,21.89,0,0,1-2.1,2.57c-1.56,1.71-2.08,3.36.13,5A2.91,2.91,0,0,1-482.26,234Z" transform="translate(638.42 -80.24)"/><path class="cls-139" d="M-502.37,205.5v-2.24q9.39,4,18.79,7.93c1.24.52,2.7.6,3.59,1.81l-4.5-.75c-4.07-.68-7.72-2.55-11.37-4.29A30.74,30.74,0,0,0-502.37,205.5Z" transform="translate(638.42 -80.24)"/><path class="cls-140" d="M-502.38,210.74v6.76l-.25,3.76h-.5l-.25-1.51q0-1.87,0-3.75l.25-6.74h.51Z" transform="translate(638.42 -80.24)"/><path class="cls-141" d="M-543,151.5l-1.5-5.25c2.77.19,3.55,2.74,5.17,4.3,3.49,3.37,5.4,8.19,9.82,10.69l.75.75a21.4,21.4,0,0,0,2.26,6l2.25,6c-2.42-.49-3.39-2.56-4.82-4.22-3.45-4-5.44-9.45-10.93-11.53Z" transform="translate(638.42 -80.24)"/><path class="cls-142" d="M-508.44,221.24l2.11-.75q0,2.24,0,4.47l-2.13-.71Z" transform="translate(638.42 -80.24)"/><path class="cls-143" d="M-512.18,221.24h1.43c.1,1-.31,2.18.66,3l-.77,1.46h-1.36Q-512.2,223.49-512.18,221.24Z" transform="translate(638.42 -80.24)"/><path class="cls-90" d="M-508.46,224.25l2.13.71q0,1.14,0,2.28c-1.51.49-.92-1.77-2.16-1.64C-509.37,225.15-509.1,224.7-508.46,224.25Z" transform="translate(638.42 -80.24)"/><path class="cls-109" d="M-526.5,168a21.4,21.4,0,0,1-2.26-6c1.65.1,2.49,1.29,3.61,2.31,3.43,3.11,7.08,6,10.64,8.93q0,2.25,0,4.5c-3.35-1.84-5.52-5-8.46-7.35C-524.09,169.52-524.79,168-526.5,168Z" transform="translate(638.42 -80.24)"/><path class="cls-144" d="M-514.5,173.25c-3.56-3-7.21-5.82-10.64-8.93-1.12-1-2-2.21-3.61-2.31l-.75-.75-3-7.5a91.73,91.73,0,0,1,7.76,6.79c3.25,3.12,5.86,7.09,10.23,9v3Q-514.5,172.88-514.5,173.25Z" transform="translate(638.42 -80.24)"/><path class="cls-145" d="M-554.24,90.74l4.46,0c-2.88.8-2.9,2.35-1.42,4.61,5.35,8.16,11.12,16,18.11,22.84.94.92,1.82,2.75,3.59,1,1.21.65.29,2.35,1.5,3-.26,1.59.51,3,.75,4.5a56.26,56.26,0,0,1-14.51-13.4c-3.84-5-7.13-10.32-10.9-15.33-1.69-2.24-4.81-4.27-3.86-8Z" transform="translate(638.42 -80.24)"/><path class="cls-6" d="M-556.52,90c-.95,3.7,2.18,5.73,3.86,8,3.78,5,7.07,10.37,10.9,15.33a56.26,56.26,0,0,0,14.51,13.4h.74q0,1.12,0,2.24c-1.82.56-3-.66-4.19-1.62a90.86,90.86,0,0,1-17.52-19.09c-2.31-3.47-4-7.45-7.56-10l-.75-.75-3-7.45Z" transform="translate(638.42 -80.24)"/><path class="cls-146" d="M-555.76,98.25c3.52,2.58,5.25,6.56,7.56,10a90.86,90.86,0,0,0,17.52,19.09c1.15,1,2.37,2.19,4.19,1.62h.74a7.19,7.19,0,0,0,1.49,4.51v2.24a73.77,73.77,0,0,1-19.61-17.84c-2.39-3.12-4.33-6.59-7.4-9.16A57.4,57.4,0,0,1-555.76,98.25Z" transform="translate(638.42 -80.24)"/><path class="cls-147" d="M-551.26,108.75c3.07,2.57,5,6,7.4,9.16a73.77,73.77,0,0,0,19.61,17.84c1.21.65.29,2.35,1.5,3v1.5a2.18,2.18,0,0,1-2.71-.36c-3.19-2.47-5.88-5.51-9.13-8-1.75-1.34-4.17-2.46-5.1-4.73-1.43-3.53-4.4-5.57-7.09-7.9-2.05-3-3-6.52-4.5-9.76Z" transform="translate(638.42 -80.24)"/><path class="cls-101" d="M-546.78,119.26c2.7,2.33,5.66,4.37,7.09,7.9.92,2.27,3.34,3.39,5.1,4.73,3.25,2.48,5.94,5.52,9.13,8a2.18,2.18,0,0,0,2.71.36c1.11,1.3,1,3,1.49,4.5-5.37-4.16-11.59-7.18-16.1-12.5-2.14-2.53-4.15-5.29-7.13-7-.48-1.64-2.09-2.71-2.28-4.5Q-546.78,120-546.78,119.26Z" transform="translate(638.42 -80.24)"/><path class="cls-148" d="M-544.49,125.25c3,1.71,5,4.47,7.13,7,4.51,5.32,10.73,8.34,16.1,12.5l.75.75V147c-.21,1.57-.93,1.52-2,.65-3.12-2.63-6.12-5.4-9.4-7.81-3.78-2.78-5.84-7.44-10.38-9.34L-543,129Z" transform="translate(638.42 -80.24)"/><path class="cls-149" d="M-542.24,130.5c4.54,1.9,6.6,6.56,10.38,9.34,3.28,2.41,6.28,5.18,9.4,7.81,1,.87,1.76.92,2-.65,1.21.65.29,2.36,1.5,3a6.2,6.2,0,0,0,.75,3.75c-3.29-1.06-5.75-3.39-8.18-5.65-4.86-4.52-9.55-9.22-14.31-13.85Z" transform="translate(638.42 -80.24)"/><path class="cls-150" d="M-540.74,134.25c4.76,4.63,9.44,9.34,14.31,13.85,2.43,2.25,4.89,4.59,8.18,5.65a5.08,5.08,0,0,1,.76,3l.75,2.25c-.36-.07-.83,0-1.07-.23-5.65-4.86-12.19-8.73-16.73-14.85A3,3,0,0,0-537,142.5l-3.75-7.5Z" transform="translate(638.42 -80.24)"/><path class="cls-151" d="M-537,142.5a3,3,0,0,1,2.47,1.41c4.54,6.12,11.07,10,16.73,14.85.24.21.71.16,1.07.23a7.15,7.15,0,0,1,1.5,4.5c-1.14.75-1.84-.2-2.57-.74A123.08,123.08,0,0,1-531.16,151c-1-1-1.84-2.45-3.58-2.49l-1.51-3Z" transform="translate(638.42 -80.24)"/><path class="cls-152" d="M-534.74,148.5c1.74,0,2.55,1.47,3.58,2.49a123.08,123.08,0,0,0,13.35,11.77c.73.54,1.43,1.49,2.57.74a1.58,1.58,0,0,1,.75,1.51q0,2.25,0,4.49c-4.37-1.87-7-5.84-10.23-9a91.72,91.72,0,0,0-7.76-6.79L-534,151.5A5.3,5.3,0,0,0-534.74,148.5Z" transform="translate(638.42 -80.24)"/><path class="cls-153" d="M-502.62,221.25l.25-3.76c4.41,2,8.83,3.92,13.21,6,1.35.63,2.63,1.41,2,3.42a2.78,2.78,0,0,0,1.24,2.94c2.77,2,1.73,3.8,0,5.68l-.75.75h-1.49v-.75c2.67-1.38,2.74-3.57.46-4.83-4.74-2.61-9.41-5.43-14.58-7.17Z" transform="translate(638.42 -80.24)"/><path class="cls-138" d="M-488.25,236.25h1.49c-.93,1.4-1.85,2.81-3.74,3Z" transform="translate(638.42 -80.24)"/><path class="cls-107" d="M-551.26,108.75l0,.75c-3.33-1.83-4-5.71-6.35-8.28-1.85-2-2.34-5.3-5.62-6-1.48-1.83-1.2-4.76-3.71-5.94l3,0a10.76,10.76,0,0,1,3.75,4.33,6.57,6.57,0,0,0,3.71,3.82l.75.75A57.4,57.4,0,0,0-551.26,108.75Z" transform="translate(638.42 -80.24)"/><path class="cls-105" d="M-556.51,97.5a6.57,6.57,0,0,1-3.71-3.82A10.76,10.76,0,0,0-564,89.35l4.43.7Z" transform="translate(638.42 -80.24)"/><path class="cls-154" d="M-534,151.5l1.49,2.25,3,7.5c-4.42-2.51-6.34-7.32-9.82-10.69-1.62-1.57-2.4-4.12-5.17-4.3a1.55,1.55,0,0,1-.75-1.5L-547.5,138c3.79,1.62,5,5.57,7.53,8.32C-538.17,148.28-536.83,150.75-534,151.5Z" transform="translate(638.42 -80.24)"/><path class="cls-81" d="M-488.25,235.5l-3,2.25c-1-3.38-4.32-3.81-6.82-5.26-1.39-.81-2.87-1.48-4.3-2.22l-.25-3.77.25-.75c4.2,1.71,7.77,4.65,12.08,6.17A3.18,3.18,0,0,1-488.25,235.5Z" transform="translate(638.42 -80.24)"/><path class="cls-132" d="M-488.25,235.5a3.18,3.18,0,0,0-2-3.58c-4.32-1.52-7.88-4.46-12.08-6.17V223.5c5.18,1.74,9.85,4.57,14.58,7.17C-485.51,231.93-485.58,234.12-488.25,235.5Z" transform="translate(638.42 -80.24)"/><path class="cls-155" d="M-508.46,224.25c-.64.45-.91.9,0,1.35-.73,1.3-1.54,1.07-2.39.13l.77-1.46.82-3.73.54-1.45.28,2.15Q-508.45,222.75-508.46,224.25Z" transform="translate(638.42 -80.24)"/><path class="cls-155" d="M-508.73,219.09l-.54,1.45h-.79v-5C-508,216.48-508.55,217.84-508.73,219.09Z" transform="translate(638.42 -80.24)"/><path class="cls-156" d="M-510.05,220.55h.79l-.82,3.73c-1-.84-.56-2-.66-3Z" transform="translate(638.42 -80.24)"/></svg>