<svg id="图层_1" data-name="图层 1" xmlns="http://www.w3.org/2000/svg" viewBox="0 0 175.56 181.48"><defs><style>.cls-1{fill:#a4a4a4;}.cls-2{fill:#c5cfd6;}.cls-3{fill:#353c40;}.cls-4{fill:#a2abb0;}.cls-5{fill:#40484d;}.cls-6{fill:#2b3134;}.cls-7{fill:#c7c9cc;}.cls-8{fill:#bcc8d0;}.cls-9{fill:#c2cdd4;}.cls-10{fill:#c0cbd3;}.cls-11{fill:#8c989f;}.cls-12{fill:#b1bbc1;}.cls-13{fill:#3a4246;}.cls-14{fill:#dde1e3;}.cls-15{fill:#b0b4b8;}.cls-16{fill:#afb4b7;}.cls-17{fill:#5500cb;}.cls-18{fill:#e71123;}.cls-19{fill:#fe4242;}.cls-20{fill:#fe8b00;}.cls-21{fill:#feb800;}.cls-22{fill:#8664ba;}.cls-23{fill:#0078d6;}.cls-24{fill:#0098bb;}.cls-25{fill:#498105;}.cls-26{fill:#00cb6a;}.cls-27{fill:#e2008b;}.cls-28{fill:#e9005e;}.cls-29{fill:#29adfe;}.cls-30{fill:#4abafe;}.cls-31{fill:#27acfe;}.cls-32{fill:#47b9fe;}.cls-33{fill:#48b9fe;}.cls-34{fill:#45b7fd;}.cls-35{fill:#45b8fe;}.cls-36{fill:#dee0e3;}.cls-37{fill:#9ba8b0;}.cls-38{fill:#4dbbfe;}.cls-39{fill:#2caefe;}.cls-40{fill:#2faffe;}.cls-41{fill:#31b0fe;}.cls-42{fill:#34b1fe;}.cls-43{fill:#37b2fe;}.cls-44{fill:#3ab3fe;}.cls-45{fill:#3cb4fe;}.cls-46{fill:#4bbafe;}.cls-47{fill:#8732fe;}.cls-48{fill:#8b39fe;}.cls-49{fill:#842efe;}.cls-50{fill:#3fb5fe;}.cls-51{fill:#8d3efe;}.cls-52{fill:#8936fe;}.cls-53{fill:#822afe;}.cls-54{fill:#42b6fe;}.cls-55{fill:#9042fe;}.cls-56{fill:#44b7fe;}.cls-57{fill:#49b8fc;}.cls-58{fill:#47b7fe;}.cls-59{fill:#9145fe;}.cls-60{fill:#894fda;}.cls-61{fill:#742fd4;}.cls-62{fill:#7029d3;}.cls-63{fill:#50bcfe;}.cls-64{fill:#6a00fe;}.cls-65{fill:#aa7fe5;}.cls-66{fill:#e0d1f5;}.cls-67{fill:#6014cd;}.cls-68{fill:#d7c4f3;}.cls-69{fill:#53bdfe;}.cls-70{fill:#8027fd;}.cls-71{fill:#55befe;}.cls-72{fill:#f6f1fb;}.cls-73{fill:#7f41d6;}.cls-74{fill:#57bffe;}</style></defs><title>thisPC</title><path class="cls-1" d="M-210.5,280.75c0,26.47.05,52.94-.07,79.4,0,3.14.86,3.93,4,3.92,35.46-.11,70.91-.07,106.37-.07v.75l-17.92,0h-6.16l-2.92.08h-75l-9-.18-.13-15V329.47c0-3.63.59-7.29-.36-10.89a2.47,2.47,0,0,0-.36-3.26c1.49-1.36.6-3.08.72-4.65l.1-29.91Z" transform="translate(275.81 -280.75)"/><path class="cls-2" d="M-170.63,433.73l8.14,3.09c0,3.6.2,7.21-.07,10.79-.23,3.05.65,5,3.78,5.51-5.27,1.48-10.18,4.13-15.7,4.75l-3.76,0c-7.53-2.54-15.08-5-22.58-7.62-11.7-4.06-23.64-7.44-35.17-12,0-1.69-4.09-.81-2.23-3.62,8.29-2.8,16.34-6.38,25.07-7.81,1.19-.19,2.14-1.28,3.47-1.2a4.6,4.6,0,0,0,5.08,0l3.94,0a3.38,3.38,0,0,0,4.37,0l3.77.66c1.07,1.65.72,3.5.78,5.29-.92,4.5,1,6.86,5.48,7.49a20.82,20.82,0,0,1,3.51,1.12c4.46,1.49,4.46,1.49,4.54-3.38l.67,0,.1,0c-.06,4.57-.06,4.57,4.4,3.7,2.91-1.19,5.81-2.26,1.43-5.49C-172.6,434.22-171.27,433.92-170.63,433.73Z" transform="translate(275.81 -280.75)"/><path class="cls-3" d="M-127.25,364.86l2.92-.08c0,6.24.08,12.47.07,18.71q-.05,31.05-.14,62.11L-171.48,430l-6.13-2c-4.92-1.68-9.76-3.63-14.85-4.77q-24.4-8.24-48.8-16.48c-10.62-3.57-21.25-7.13-31.91-10.57-2-.64-2.64-1.52-2.64-3.66q.15-49.06.11-98.12c.36.09.73.15,1.08.26l62.54,20.7a2.47,2.47,0,0,1,.36,3.26l-7.78-2.45c-3.13-.62-5.76-2.72-9-3-2.43-1-4.79-2.21-7.5-2.27-1.19-.65-2.29-1.52-3.75-1.48-6-2.7-12.47-4-18.63-6.17-4.51-2-9.27-3.31-14.2-4.9v38.78l0,3.69V385q0,1.85,0,3.71c-1,3.77.86,5.25,4.33,5.47a94.88,94.88,0,0,0,13.34,4.38,117,117,0,0,0,15.75,5.3c1,.44,2,1,3.06,1.3q39.72,13.23,79.44,26.44l29.17,9.7a11,11,0,0,0,.16-4.77l0-8.77q0-3.36,0-6.72,0-3,0-6t0-6q0-3,0-6t0-6q0-3.36,0-6.72v-6q0-3,0-6V365.5A1.5,1.5,0,0,0-127.25,364.86Z" transform="translate(275.81 -280.75)"/><path class="cls-4" d="M-124.4,445.59q.07-31.05.14-62.11c0-6.24,0-12.47-.07-18.71h6.16q0,37.07-.08,74.14C-118.26,444.7-118.25,444.7-124.4,445.59Z" transform="translate(275.81 -280.75)"/><path class="cls-5" d="M-236,438.2c11.52,4.58,23.46,8,35.17,12,7.5,2.6,15.05,5.08,22.58,7.62,0,1.46-.21,3,.73,4.26-7.07-1.46-13.71-4.26-20.53-6.49-12.85-4.21-25.67-8.54-38.51-12.8a7.63,7.63,0,0,1-3.32-1.57l.17-3.76Z" transform="translate(275.81 -280.75)"/><path class="cls-2" d="M-212.07,315.31l-62.54-20.7c-.35-.12-.72-.17-1.08-.26a10.62,10.62,0,0,1,10-1.49c16.74,5.75,33.55,11.33,50.35,16.91,1.26.42,2.5,1.19,3.94.89C-211.47,312.23-210.58,314-212.07,315.31Z" transform="translate(275.81 -280.75)"/><path class="cls-6" d="M-174.48,457.87c5.53-.62,10.44-3.27,15.7-4.75l2.26-.74a17.31,17.31,0,0,0,5.3-2c2.81.12,4.86-1.85,7.37-2.94l.24,2.88a5.1,5.1,0,0,1-3.61,3.48c-8.31,2.88-16.68,5.63-25,8.37a7.54,7.54,0,0,1-2.22,0Z" transform="translate(275.81 -280.75)"/><path class="cls-7" d="M-192.46,423.19c5.1,1.14,9.93,3.09,14.85,4.77l.06,8.82-.67,0c-.54-1.37-1.88-1.47-3-1.84-3.49-1.15-7-2.26-10.51-3.39-.05-1.79.29-3.65-.78-5.29Z" transform="translate(275.81 -280.75)"/><path class="cls-8" d="M-143.62,450.27l-.24-2.88c-2.51,1.08-4.56,3.06-7.37,2.94-2.5-3.22-1.76-6.91-1.52-10.53,2.23,1,4.69,1.42,6.79,2.88C-143.09,444.68-142.07,447-143.62,450.27Z" transform="translate(275.81 -280.75)"/><path class="cls-9" d="M-156.52,452.38l-2.26.74c-3.14-.55-4-2.45-3.78-5.51.27-3.58.06-7.2.07-10.79a12.07,12.07,0,0,1,4.5,1.5c0,2.1-.08,4.21,0,6.31C-157.86,447.27-158.76,450.13-156.52,452.38Z" transform="translate(275.81 -280.75)"/><path class="cls-10" d="M-156.52,452.38c-2.24-2.25-1.34-5.1-1.46-7.74-.09-2.1,0-4.21,0-6.31l5.25,1.47c-.24,3.62-1,7.31,1.52,10.53A17.31,17.31,0,0,1-156.52,452.38Z" transform="translate(275.81 -280.75)"/><path class="cls-11" d="M-177.55,436.77l-.06-8.82,6.13,2c-2.15.17-1.39,1.77-1.46,3L-173,439l-4.45-2.26Z" transform="translate(275.81 -280.75)"/><path class="cls-12" d="M-173,439l.07-6.08c.81.14,1.76-.1,2.3.81-.63.2-2,.49-1,1.21,4.39,3.23,1.48,4.31-1.43,5.49Q-173,439.72-173,439Z" transform="translate(275.81 -280.75)"/><path class="cls-13" d="M-174.48,457.87v4.28l-3,0c-.94-1.3-.72-2.8-.73-4.26Z" transform="translate(275.81 -280.75)"/><path class="cls-14" d="M-236,438.2l-3.71-.71-.17,3.76c-.6-2.51-2.37-5.3,1.65-6.67C-240.08,437.39-236,436.51-236,438.2Z" transform="translate(275.81 -280.75)"/><path class="cls-15" d="M-204.6,425.6a4.6,4.6,0,0,1-5.08,0Z" transform="translate(275.81 -280.75)"/><path class="cls-16" d="M-196.3,425.56a3.38,3.38,0,0,1-4.37,0Z" transform="translate(275.81 -280.75)"/><path class="cls-17" d="M-194.13,337.75c2.49,0,5,.13,7.47,0,2.06-.14,2.49.69,2.45,2.57-.11,5.1-.14,10.21,0,15.31.06,2.06-.7,2.48-2.58,2.44-5.1-.11-10.21-.14-15.31,0-2.06.06-2.48-.7-2.44-2.58.11-5.1.14-10.21,0-15.31-.06-2.06.7-2.54,2.58-2.44C-199.36,337.85-196.74,337.75-194.13,337.75Z" transform="translate(275.81 -280.75)"/><path class="cls-18" d="M-194.31,285.49c3.22,0,7.55-1.27,9.36.33,2.13,1.88.59,6.3.67,9.62s1.11,7.53-.53,9.36c-1.91,2.13-6.31.59-9.63.67s-7.53,1.11-9.36-.53c-2.13-1.91-.59-6.31-.67-9.63s-1.1-7.51.53-9.36C-202,283.78-197.62,285.59-194.31,285.49Z" transform="translate(275.81 -280.75)"/><path class="cls-19" d="M-158.26,295.39c0,3.22,1.27,7.55-.33,9.38-1.89,2.17-6.32.65-9.64.68s-7.38,1.4-9.38-.55-.49-6.15-.61-9.36c-.1-2.62.11-5.25-.06-7.86-.13-2.07.72-2.51,2.59-2.47,5.12.11,10.24.1,15.36,0,1.75,0,2.46.47,2.37,2.31-.13,2.62,0,5.24,0,7.87Z" transform="translate(275.81 -280.75)"/><path class="cls-20" d="M-142.05,305.57c-3.2-.38-7.39,1.35-9.36-.69s-.57-6.18-.54-9.39-1.49-7.74.67-9.66c1.85-1.64,6.17-.55,9.39-.56s7.53-1.09,9.4.54c2.18,1.91.64,6.33.69,9.65s1.41,7.46-.53,9.38C-134.44,306.94-138.73,305.19-142.05,305.57Z" transform="translate(275.81 -280.75)"/><path class="cls-21" d="M-115.8,305.5c-2.5,0-5-.12-7.49,0-2,.13-2.54-.65-2.5-2.57.11-5,.13-10,0-15-.05-2.05.45-2.86,2.67-2.79q7.48.24,15,0c2.19-.07,2.74.69,2.69,2.77-.14,5-.12,10,0,15,0,1.89-.42,2.72-2.47,2.59C-110.55,305.37-113.18,305.5-115.8,305.5Z" transform="translate(275.81 -280.75)"/><path class="cls-22" d="M-167.27,337.75c2.58.37,6.67-1.43,8.72.7,1.86,1.93.48,5.93.52,9,0,3.34,1.12,7.76-.57,9.74-2,2.32-6.54.67-10,.73-3.07.06-7,1.35-9-.53s-.51-5.89-.64-9c-.13-2.86,0-5.73,0-8.59-.05-1.64.6-2.19,2.19-2.14C-173.35,337.81-170.61,337.75-167.27,337.75Z" transform="translate(275.81 -280.75)"/><path class="cls-23" d="M-184.48,321.66c0,3.21,1.26,7.51-.33,9.36-1.87,2.18-6.29.6-9.6.7s-7.5,1.11-9.36-.51c-2.17-1.9-.6-6.3-.7-9.61s-1.11-7.5.51-9.36c1.9-2.17,6.3-.6,9.61-.7s7.47-1.11,9.37.51C-182.71,314-184.71,318.36-184.48,321.66Z" transform="translate(275.81 -280.75)"/><path class="cls-24" d="M-168.15,331.49c-3.22,0-7.57,1.27-9.38-.33-2.15-1.89-.64-6.33-.67-9.65s-1.4-7.39.55-9.38,6.15-.48,9.37-.6c2.5-.1,5,.09,7.5-.05,2-.11,2.92.3,2.84,2.59-.17,5.12-.12,10.25,0,15.37,0,1.77-.49,2.45-2.31,2.35-2.62-.13-5.25,0-7.87,0Z" transform="translate(275.81 -280.75)"/><path class="cls-25" d="M-132,321.67c0,3.22,1.27,7.54-.33,9.37-1.88,2.15-6.3.59-9.62.68s-7.53,1.12-9.37-.51c-2.14-1.9-.59-6.31-.68-9.63s-1.12-7.53.51-9.37c1.9-2.14,6.31-.59,9.63-.68s7.49-1.11,9.38.51C-130.22,314-132.19,318.37-132,321.67Z" transform="translate(275.81 -280.75)"/><path class="cls-26" d="M-116,331.54c-3.17-.18-7.41,1.68-9.24-.52-1.55-1.85-.58-5.94-.47-9,.12-3.43-1.56-8,.72-10,2-1.68,6.4-.59,9.74-.51,3.18.08,7.42-1.42,9.24.7,1.56,1.81.58,5.93.48,9-.12,3.43,1.56,8-.72,10C-108.2,332.85-112.65,331.54-116,331.54Z" transform="translate(275.81 -280.75)"/><path class="cls-27" d="M-131.68,348c-.36,3.21,1.34,7.39-.67,9.37s-6.17.58-9.38.56-7.74,1.48-9.67-.66c-1.64-1.82-.57-6.16-.58-9.38s-1.11-7.52.52-9.42c1.9-2.21,6.32-.62,9.64-.71s7.54-1.08,9.38.56C-130.28,340.28-132.08,344.7-131.68,348Z" transform="translate(275.81 -280.75)"/><path class="cls-28" d="M-105.44,348c-.32,3.2,1.32,7.36-.64,9.35s-6.13.57-9.33.58-7.67,1.43-9.71-.55-.58-6.36-.6-9.68-1.39-7.37.54-9.35,6.13-.57,9.32-.58,7.65-1.42,9.71.55S-105.8,344.71-105.44,348Z" transform="translate(275.81 -280.75)"/><path class="cls-29" d="M-127.25,364.86a1.5,1.5,0,0,1-.13.64c-9.24,2.32-18.69,3.51-28,5.23-17.86,3.28-35.72,6.55-53.62,9.54-3.12.52-6.45,2.28-9.72.22,1.46-1.5,3.54-1.93,5.25-3l6-3.73c1.84-.06,3-1.42,4.51-2.21,1,2.71,3.17,1.47,4.75,1.21,8.18-1.3,16.36-2.63,24.46-4.34,4.3-.91,8.95-.77,12.75-3.53Z" transform="translate(275.81 -280.75)"/><path class="cls-30" d="M-207.5,373.74l-6,3.73a2.08,2.08,0,0,0-1.31-2.1c-2.24-.77-1.45-1.93-1.35-3.81.18-3.4,2.36-6.23,1.46-10.07-1.39-5.91-1.36-12.15-4.36-17.7a3.05,3.05,0,0,1-.38-2.16c2.07-5.71-4.16-9.29-3.66-14.56-4.74-3.33-4.92-10.36-10.59-13a3.81,3.81,0,0,1-2.3-3.23c2.71.06,5.07,1.29,7.5,2.27.29,2.91,2.91,4.24,4.35,6.36,5.83,8.57,10.09,17.78,11.41,28.17a2.56,2.56,0,0,0,1.38,2.08l.13,15C-211.3,368.24-208.27,370.52-207.5,373.74Z" transform="translate(275.81 -280.75)"/><path class="cls-31" d="M-161,364.87c-3.81,2.76-8.46,2.62-12.75,3.53-8.1,1.71-16.28,3-24.46,4.34-1.58.25-3.77,1.49-4.75-1.21l.75-.77c4.16-1.17,7.55-3.82,11.23-5.9Z" transform="translate(275.81 -280.75)"/><path class="cls-32" d="M-211.36,349.72a2.56,2.56,0,0,1-1.38-2.08c-1.32-10.39-5.58-19.6-11.41-28.17-1.45-2.12-4.06-3.45-4.35-6.36,3.24.3,5.87,2.4,9,3a35.86,35.86,0,0,0,8.14,13.35Z" transform="translate(275.81 -280.75)"/><path class="cls-33" d="M-202.25,370.76l-.75.77c-1.47.79-2.67,2.16-4.51,2.21-.76-3.22-3.8-5.5-3.72-9.06l9,.18Z" transform="translate(275.81 -280.75)"/><path class="cls-34" d="M-211.36,329.47a35.86,35.86,0,0,1-8.14-13.35l7.78,2.45C-210.77,322.18-211.38,325.84-211.36,329.47Z" transform="translate(275.81 -280.75)"/><path class="cls-35" d="M-202.25,370.76v-5.9H-191C-194.7,366.94-198.09,369.59-202.25,370.76Z" transform="translate(275.81 -280.75)"/><path class="cls-36" d="M-191.75,431.51c3.5,1.13,7,2.24,10.51,3.39,1.14.38,2.48.47,3,1.84-.08,4.87-.08,4.87-4.54,3.38a20.82,20.82,0,0,0-3.51-1.12C-190.71,438.36-192.66,436-191.75,431.51Z" transform="translate(275.81 -280.75)"/><path class="cls-37" d="M-173,439q0,.72,0,1.44c-4.47.87-4.47.87-4.4-3.7Z" transform="translate(275.81 -280.75)"/><path class="cls-38" d="M-258.38,303.18c6.17,2.2,12.64,3.47,18.63,6.17a3.68,3.68,0,0,0,1.51,3.22c5,4.57,10.08,9.1,10.75,16.51a2.88,2.88,0,0,0,.81,1.66c4.17,4,3.23,9.85,4.58,14.73a50.72,50.72,0,0,1,1.5,11.8c.16,6.26-2.39,11.78-3.19,17.72-.38,2.8-1.9,5.47-1,8.48-2.6.93-4.56,3.11-7.31,3.76l-.22-6q0-3.75,0-7.5,0-4.13,0-8.25,0-3.38,0-6.75l.29-3.07c3.12-.79,3.09-3.54,2.93-5.71-.23-3.14,1.59-6.61-.84-9.39-1.52-1.74-1.95-3.33-1.11-5.42a4.69,4.69,0,0,0-.2-3.63c-2.36-5.67-4.47-11.32-9.51-15.54-6.22-5.2-12.64-7.72-20.8-5.47A47.7,47.7,0,0,0-272,315.24c-1-4.72,1.22-7.17,5.46-8.85C-263.82,305.33-260.72,305.18-258.38,303.18Z" transform="translate(275.81 -280.75)"/><path class="cls-39" d="M-232.06,387.25c2.75-.64,4.71-2.83,7.31-3.76l6-3c3.27,2.06,6.59.3,9.72-.22,17.91-3,35.77-6.26,53.62-9.54,9.35-1.72,18.8-2.91,28-5.23q0,3.37,0,6.75c-5.25.89-10.5,1.75-15.75,2.68q-20,3.51-39.9,7.06c-15.49,2.75-31,5.56-46.5,8.18-1.68.28-1.86,1.32-2.45,2.33l-.35-4.5Z" transform="translate(275.81 -280.75)"/><path class="cls-40" d="M-232,392.5c.58-1,.77-2.05,2.45-2.33,15.52-2.62,31-5.43,46.5-8.18q19.95-3.54,39.9-7.06c5.24-.92,10.5-1.79,15.75-2.68q0,3,0,6c-1.21.24-2.42.52-3.63.73-13.64,2.35-27.29,4.66-40.93,7-16.56,2.89-33.13,5.71-49.65,8.85-3.48.66-7.45.07-10.38,2.88Q-232,395.13-232,392.5Z" transform="translate(275.81 -280.75)"/><path class="cls-41" d="M-232,397.75c2.93-2.81,6.9-2.22,10.38-2.88,16.51-3.14,33.09-6,49.65-8.85,13.64-2.38,27.29-4.69,40.93-7,1.22-.21,2.42-.48,3.63-.73q0,3,0,6c-1.21.24-2.42.52-3.63.73l-49.31,8.58c-12.3,2.15-24.62,4.14-36.86,6.58-3.32.66-7.35-.31-9.88,3.08l-5.08-1.75Z" transform="translate(275.81 -280.75)"/><path class="cls-42" d="M-227.07,403.22c2.53-3.39,6.56-2.42,9.88-3.08,12.24-2.44,24.56-4.43,36.86-6.58L-131,385c1.22-.21,2.42-.48,3.63-.73q0,3,0,6c-1.21.84-2.64.56-4,.8q-40.43,7.07-80.84,14.24c-1,.18-2.85,0-2.06,2.1Z" transform="translate(275.81 -280.75)"/><path class="cls-43" d="M-214.25,407.41c-.79-2.13,1.07-1.92,2.06-2.1q40.41-7.18,80.84-14.24c1.33-.23,2.76,0,4-.8q0,3.36,0,6.72l-4,.69c-20.87,3.56-41.76,7-62.59,10.79-3,.54-6.53.06-9,2.67A73.84,73.84,0,0,1-214.25,407.41Z" transform="translate(275.81 -280.75)"/><path class="cls-17" d="M-214.25,407.41A73.85,73.85,0,0,0-203,411.16a107.73,107.73,0,0,0,13.47,4.49,75.14,75.14,0,0,0,11.27,3.75A65.62,65.62,0,0,0-167,423.16a100.13,100.13,0,0,0,13.47,4.5,48.52,48.52,0,0,0,9.65,3.14l8.47,3.64c-2.12.58-2.18,1.63-.68,3,.59,0,1.38.32,1.66-.38.38-1-.32-1.57-1.06-2.07q0-.3.05-.59a7.25,7.25,0,0,1,4.65,1.5c-2.18.45-2.16,1.59-1,3.09,1.74.21,3-.25,3-2.28l1.4-.2a11,11,0,0,1-.16,4.77l-29.17-9.7q-39.72-13.21-79.44-26.44c-1-.35-2-.86-3.06-1.3,1.47-1,.76-2.52.9-3.84,2.12.18,3.94,1.65,6.15,1.45l5.08,1.75Zm73.41,26.46c-.25.05-.48.56-.35,1.23s.79.86,1.39.79.59-.65.58-1.12C-139.24,434.06-139.56,433.63-140.84,433.86Z" transform="translate(275.81 -280.75)"/><path class="cls-44" d="M-189.51,415.65A107.73,107.73,0,0,1-203,411.16c2.47-2.61,6-2.13,9-2.67,20.83-3.77,41.72-7.23,62.59-10.79l4-.69q0,3,0,6L-149,406.75c-12.94,2.26-25.88,4.52-38.81,6.85C-188.7,413.76-190.32,413.83-189.51,415.65Z" transform="translate(275.81 -280.75)"/><path class="cls-45" d="M-189.51,415.65c-.8-1.82.82-1.89,1.72-2.05,12.93-2.33,25.87-4.58,38.81-6.85l21.61-3.75q0,3,0,6c-14.72,2.54-29.46,5-44.12,7.77-2.23.43-5.55-.8-6.75,2.64A75.14,75.14,0,0,1-189.51,415.65Z" transform="translate(275.81 -280.75)"/><path class="cls-46" d="M-218.75,380.49l-6,3c-.93-3,.59-5.68,1-8.48.8-5.94,3.35-11.47,3.19-17.72a50.72,50.72,0,0,0-1.5-11.8c-1.35-4.89-.41-10.69-4.58-14.73a2.88,2.88,0,0,1-.81-1.66c-.67-7.41-5.75-11.94-10.75-16.51a3.68,3.68,0,0,1-1.51-3.22c1.46,0,2.56.84,3.75,1.48a3.81,3.81,0,0,0,2.3,3.23c5.68,2.66,5.85,9.68,10.59,13-.5,5.27,5.73,8.85,3.66,14.56a3.05,3.05,0,0,0,.38,2.16c3,5.55,3,11.79,4.36,17.7.9,3.84-1.28,6.67-1.46,10.07-.1,1.88-.89,3,1.35,3.81a2.08,2.08,0,0,1,1.31,2.1C-215.21,378.56-217.29,379-218.75,380.49Z" transform="translate(275.81 -280.75)"/><path class="cls-47" d="M-232.29,365.5q0,4.13,0,8.25c-13.07,5.35-26.48,7-40.34,3.75q0-3.75,0-7.5c9.53,2,19.1,2.63,28.58-.08C-240,368.78-236.2,367-232.29,365.5Z" transform="translate(275.81 -280.75)"/><path class="cls-48" d="M-232,355.68l-.29,3.07c-1.19-.12-2.06.54-3.07,1.06-10.39,5.42-21.22,8.16-32.89,4.79a14,14,0,0,0-4.39-.6q0-3.75,0-7.5c1.32.32,2.68.54,4,1a35.44,35.44,0,0,0,22.61-.26c4.53-1.49,8.4-4.29,12.42-6.76C-230.85,351.5-232.9,354-232,355.68Z" transform="translate(275.81 -280.75)"/><path class="cls-49" d="M-272.63,377.5c13.86,3.23,27.27,1.6,40.34-3.75q0,3.75,0,7.5c-10.74,3.37-21.48,6.59-33,4.57-2.4-.42-4.82-1.25-7.34-.83Z" transform="translate(275.81 -280.75)"/><path class="cls-50" d="M-178.25,419.41c1.2-3.44,4.52-2.21,6.75-2.64,14.66-2.81,29.41-5.22,44.12-7.77q0,3,0,6c-10.34,1.77-20.72,3.39-31,5.42-2.89.57-6.29.12-8.59,2.74A65.62,65.62,0,0,1-178.25,419.41Z" transform="translate(275.81 -280.75)"/><path class="cls-51" d="M-233.63,350.45c-4,2.47-7.9,5.26-12.42,6.76a35.44,35.44,0,0,1-22.61.26c-1.29-.42-2.64-.65-4-1q0-4.12,0-8.25c.92.35,1.85.68,2.76,1,9.38,3.84,18.48,3.6,27.23-1.85l3.63.72Z" transform="translate(275.81 -280.75)"/><path class="cls-52" d="M-272.63,364a14,14,0,0,1,4.39.6c11.67,3.38,22.49.64,32.89-4.79,1-.53,1.88-1.18,3.07-1.06q0,3.38,0,6.75c-3.92,1.49-7.75,3.27-11.76,4.42-9.48,2.71-19,2-28.58.08Q-272.62,367-272.63,364Z" transform="translate(275.81 -280.75)"/><path class="cls-53" d="M-272.63,385c2.52-.43,4.94.41,7.34.83,11.53,2,22.26-1.2,33-4.57l.22,6-.26.75-2.19.74A168.85,168.85,0,0,1-260,392.5c-2.91-.13-5.4-1.79-8.22-2.26-.55-.86-1.42-.74-2.25-.75l0,0c-.5-.82-1.34-.71-2.11-.77Z" transform="translate(275.81 -280.75)"/><path class="cls-54" d="M-167,423.16c2.3-2.62,5.7-2.17,8.59-2.74,10.29-2,20.67-3.65,31-5.42q0,3,0,6a9.15,9.15,0,0,1-1.73.67q-11.3,1.93-22.61,3.79c-1.31.21-2.68.22-1.8,2.17A100.13,100.13,0,0,1-167,423.16Z" transform="translate(275.81 -280.75)"/><path class="cls-55" d="M-242.63,347.45c-8.75,5.45-17.85,5.69-27.23,1.85-.91-.37-1.84-.7-2.76-1q0-3.75,0-7.5c3.1,1.55,6.09,3.49,9.55,4,3.29.5,6.8,1.74,9.83-1l5.23,1.38Z" transform="translate(275.81 -280.75)"/><path class="cls-56" d="M-153.51,427.66c-.87-2,.5-2,1.8-2.17q11.31-1.85,22.61-3.79a9.15,9.15,0,0,0,1.73-.67q0,3.36,0,6.72a91,91,0,0,0-16.49,3A48.52,48.52,0,0,1-153.51,427.66Z" transform="translate(275.81 -280.75)"/><path class="cls-57" d="M-258.38,303.18c-2.34,2-5.43,2.14-8.14,3.21-4.24,1.67-6.49,4.13-5.46,8.85q0,2.25,0,4.51l-.06,17.38-.55-.07V298.28C-267.65,299.87-262.9,301.15-258.38,303.18Z" transform="translate(275.81 -280.75)"/><path class="cls-58" d="M-143.87,430.79a91,91,0,0,1,16.49-3l0,8.77-1.4.2,0,0c-.35-1.11-1.24-.87-2.06-.84a7.26,7.26,0,0,0-4.65-1.5l0,0Z" transform="translate(275.81 -280.75)"/><path class="cls-59" d="M-272.58,337.06l.55.06a8.13,8.13,0,0,0,4.45,1.4l14.33,5.26c-3,2.71-6.53,1.47-9.83,1-3.46-.52-6.45-2.46-9.55-4Z" transform="translate(275.81 -280.75)"/><path class="cls-60" d="M-268.22,390.25c2.82.47,5.31,2.13,8.22,2.26,3.29,1.84,7,2.6,10.5,3.76-1.08,2.51-3.32,2.25-5.44,2.29a94.79,94.79,0,0,1-13.34-4.38Q-268.25,392.21-268.22,390.25Z" transform="translate(275.81 -280.75)"/><path class="cls-61" d="M-254.94,398.56c2.12,0,4.36.22,5.44-2.29l1.46,0c2.9,2.18,6.48,2.58,9.76,3.77-.14,1.32.57,2.83-.9,3.84A116.91,116.91,0,0,1-254.94,398.56Z" transform="translate(275.81 -280.75)"/><path class="cls-62" d="M-268.22,390.25q0,2-.06,3.93c-3.47-.22-5.35-1.7-4.33-5.47.77.06,1.61-.06,2.11.77-2.08.65-2.08,1.66-.52,2.95,2-.38,1.63-1.29.54-2.36q0-.28,0-.57C-269.65,389.51-268.77,389.39-268.22,390.25Z" transform="translate(275.81 -280.75)"/><path class="cls-63" d="M-272,319.75q0-2.25,0-4.51a47.71,47.71,0,0,1,10.46-4.73c8.16-2.25,14.58.28,20.8,5.47,5,4.21,7.14,9.87,9.51,15.54a4.69,4.69,0,0,1,.2,3.63c-.83,2.09-.41,3.67,1.11,5.42,2.43,2.78.6,6.25.84,9.39.16,2.17.19,4.92-2.93,5.71-.9-1.63,1.14-4.18-1.63-5.23l-5.37-2.28c.25-1.21.16-2.65.8-3.59,3-4.27-1.22-9.15,1.29-13.42.16-.27-.17-1-.49-1.34-2.08-2-2.56-4.78-3.52-7.26-3.05-7.9-9.72-9.66-17-10.26-2.92-.24-5.47,1-7.81,2.95C-267.71,316.87-269.37,319-272,319.75Z" transform="translate(275.81 -280.75)"/><path class="cls-64" d="M-238.29,400c-3.28-1.19-6.86-1.59-9.76-3.77l13.53-7.5,2.19-.74.35,4.5q0,2.63,0,5.25l-.18,3.72C-234.36,401.67-236.17,400.2-238.29,400Z" transform="translate(275.81 -280.75)"/><path class="cls-65" d="M-128.76,436.72c0,2-1.25,2.49-3,2.28-.19-2.36,1.56-2.12,3-2.25Z" transform="translate(275.81 -280.75)"/><path class="cls-66" d="M-140.84,433.86c1.28-.23,1.6.19,1.61.9,0,.46,0,1-.58,1.12s-1.25,0-1.39-.79S-141.09,433.92-140.84,433.86Z" transform="translate(275.81 -280.75)"/><path class="cls-67" d="M-128.72,436.75c-1.46.14-3.21-.11-3,2.25-1.19-1.5-1.22-2.64,1-3.09C-130,435.87-129.07,435.64-128.72,436.75Z" transform="translate(275.81 -280.75)"/><path class="cls-68" d="M-135.48,435c.75.49,1.45,1.11,1.06,2.07-.28.7-1.07.38-1.66.38C-136.33,436.52-136.89,435.52-135.48,435Z" transform="translate(275.81 -280.75)"/><path class="cls-67" d="M-135.48,435c-1.41.52-.85,1.52-.6,2.45-1.5-1.39-1.44-2.43.68-3l0,0Q-135.45,434.7-135.48,435Z" transform="translate(275.81 -280.75)"/><path class="cls-69" d="M-272,319.75c2.61-.75,4.27-2.88,6.24-4.49,2.34-1.92,4.88-3.19,7.81-2.95,7.3.6,14,2.36,17,10.26,1,2.49,1.44,5.27,3.52,7.26.32.31.65,1.07.49,1.34-2.51,4.27,1.67,9.15-1.29,13.42-.65.93-.56,2.38-.8,3.59l-3.63-.72-5.39-2.28c-.91-1.63.54-2.09,1.38-2.92,1.21-1.2,3.51-3,2.87-4-2-3,0-5.45.31-8.09a11.05,11.05,0,0,0-4-10.26,14.2,14.2,0,0,1-2-2.23c-3.43-4.62-14.48-4.32-16.92.86-2.87,6.08-5.92,12.5-.41,19,.68.8-.29.9-.86,1a8.13,8.13,0,0,1-4.45-1.4Q-272,328.44-272,319.75Z" transform="translate(275.81 -280.75)"/><path class="cls-70" d="M-234.52,388.74l-13.53,7.5-1.46,0c-3.53-1.16-7.21-1.92-10.5-3.76A168.85,168.85,0,0,0-234.52,388.74Z" transform="translate(275.81 -280.75)"/><path class="cls-71" d="M-267.58,338.53c.57-.12,1.54-.23.86-1-5.52-6.45-2.46-12.88.41-19,2.45-5.18,13.49-5.47,16.92-.86a14.2,14.2,0,0,0,2,2.23,11.05,11.05,0,0,1,4,10.26c-.32,2.63-2.29,5.07-.31,8.09.64,1-1.65,2.78-2.87,4-.84.84-2.29,1.29-1.38,2.92l-5.23-1.38Zm10.35-2.29c2.86.47,5.36-1.15,7.64-2.78,1.95-1.4-.35-3.43.05-5.23a14.18,14.18,0,0,0,0-3.35c-.06-3-5.18-8.11-8.18-8a5.61,5.61,0,0,0-2.76,1c-4.16,2.73-5.32,6.62-3.51,11.4a7.44,7.44,0,0,1,.78,2.47C-263.22,335.67-260.7,336.35-257.23,336.24Z" transform="translate(275.81 -280.75)"/><path class="cls-72" d="M-270.48,390.06c1.09,1.08,1.42,2-.54,2.36C-271.24,391.54-271.71,390.61-270.48,390.06Z" transform="translate(275.81 -280.75)"/><path class="cls-73" d="M-270.48,390.06c-1.23.55-.76,1.48-.54,2.36-1.56-1.29-1.56-2.3.52-2.95l0,0Q-270.47,389.78-270.48,390.06Z" transform="translate(275.81 -280.75)"/><path class="cls-74" d="M-257.23,336.24c-3.46.11-6-.57-5.94-4.57a7.44,7.44,0,0,0-.78-2.47c-1.8-4.78-.65-8.67,3.51-11.4a5.61,5.61,0,0,1,2.76-1c3-.07,8.12,5.06,8.18,8a14.18,14.18,0,0,1,0,3.35c-.41,1.8,1.89,3.84-.05,5.23C-251.88,335.09-254.37,336.71-257.23,336.24Z" transform="translate(275.81 -280.75)"/></svg>